<svg xmlns="http://www.w3.org/2000/svg" viewBox="0 0 493.96 491.54"><defs><style>.cls-1{fill:#fff;}</style></defs><g id="Layer_2" data-name="Layer 2"><g id="Layer_1-2" data-name="Layer 1"><path class="cls-1" d="M494,.43V9q-.07,205.74-.28,411.46c0,20.63-1.45,41.27-2.52,61.89-.38,7.24-1.3,7.78-8.49,7.84-47.82.38-95.64.9-143.46,1q-151.47.38-302.95.34c-11,0-21.92-1-32.89-1.44C.64,490,0,488.71,0,486.33s.06-5,.06-7.5q0-235,0-469.95C.09-.84-1.51.19,9,.11,36.67-.09,64.34,0,92,0q160.74,0,321.47,0Q452.22.06,491,.2C491.75.2,492.54.32,494,.43ZM245.54,22.15v.58c-11.33,0-22.66-.09-34,0-45,.42-90,.71-135,1.48C61,24.5,45.33,26,29.72,27c-5,.33-7.37,3.35-7.64,8.21-.6,11.14-1.64,22.28-1.72,33.43q-.41,56.75-.21,113.49.51,114.75,1.49,229.47c.15,16.3,1.46,32.61,2.65,48.88.55,7.51,1.46,7.91,8.84,8.65,1,.09,2,.2,3,.23,58.45,1.85,116.9,4.25,175.36,5.32,34.47.62,69-.94,103.45-1.39,41.65-.54,83.31-.74,125-1.54,11.55-.22,23.29-.65,33.45-8.09,3.71-2.72,5.05-5.29,4.91-9.78-1.79-57.29-3.77-114.58-4.93-171.88-1.4-69.16-.13-138.3,3.1-207.41a348.11,348.11,0,0,0-.36-34.94c-.35-6.83-4.24-11.94-11.26-13.66A55.31,55.31,0,0,0,453,24.22c-32.31-.79-64.62-1.69-96.94-2C319.2,21.9,282.37,22.15,245.54,22.15Z"/><path class="cls-1" d="M226.09,446.76c-24.28.5-47.34-4.86-68.05-17.08-24.38-14.4-42.19-35.25-53.21-61.64-3-7.19-6.85-14-9.76-21.25-1.59-3.93-2.91-8.34-2.81-12.51.32-14.44,1.15-28.87,2.23-43.27.19-2.62,2.49-5.07,3.82-7.6,1.22,2.66,3.16,5.21,3.55,8,1.71,12.17,1.46,24.81,4.66,36.54,11,40.27,33.51,71.91,73,88.84,20.19,8.67,41.54,12.69,63.47,8,31.38-6.71,51.78-26.53,61.8-56.35,9.19-27.38,3.1-52.34-18-72.17-24.42-22.91-61.09-20.33-84.08,4.46-7,7.55-11.54,15.71-11.16,26.27.19,5.48-.07,11-.12,16.48-.15,14.45,9.72,22.46,19.88,29.84,7.88,5.73,16.75,9.42,27,8.87,11.5-.61,19.44-6.21,24.1-16.45a40.62,40.62,0,0,0,2.44-25.92c-1.24-5.84-4.71-9.28-10.58-10.54-12.39-2.67-16.78.52-19.33,13.94a37.75,37.75,0,0,1-2.79,9c-1.91,4.07-5.08,4.63-8.59,2-7.22-5.39-8.72-14.63-3.59-22.18,4.49-6.63,11-10.6,18.31-13.21a49.42,49.42,0,0,1,26.62-1.51c8,1.6,13.44,6.51,15.52,14.5a72.33,72.33,0,0,1-.35,38,31.75,31.75,0,0,1-17.33,20.94c-7.49,3.51-15.19,7.15-23.19,8.84-6.06,1.27-13,.6-19.11-1C199.21,393,182,381.82,173,360.85c-8-18.38-6.29-36.66,2.49-54,29.07-57.46,94.12-53.12,125.87-24.92,20.65,18.34,28.27,42.18,26.57,69.21-2,31.18-16.44,56.24-38.4,77.72-9.89,9.66-21.3,15.16-35,16.1C245,445.58,235.56,446.15,226.09,446.76Z"/><path class="cls-1" d="M365.61,347.78c1.22-1.61,2.34-3.31,3.67-4.82,11.54-13.09,23.88-25.56,34.52-39.35,22.56-29.2,34.8-62,30.4-99.56-2.69-23-10.1-44.16-26.34-61.33-14.5-15.33-32.86-23-53.57-24.87-7.75-.72-15.64-.16-23.46,0-14.39.26-25.34,6.55-34.81,17.53C273.76,161.16,273,205,295.12,231c9.1,10.63,20.75,17,34.2,20.18,10.67,2.53,19.89-1.93,28.15-7.56,12.79-8.72,22.79-20.18,25.93-35.84a32,32,0,0,0-1.26-16.92c-4.46-11.56-12.83-20.32-23.14-27.35-13.66-9.3-36.94-1.87-44.94,14.9-4.67,9.81,1.7,19.39,12.59,19.31,5.29,0,10.55-1.34,15.85-1.86s6.15.89,3.75,5.59c-10.26,20.15-32.47,15.88-43.2,1-7.59-10.51-7.85-23.92.33-33.94a154.73,154.73,0,0,1,21.87-21.63c10.65-8.71,22.91-6.11,34.16-1.41,33.9,14.15,50,46.8,41.13,82.25-2.53,10.06-9.64,17.33-16.3,24.78a33.53,33.53,0,0,1-5.73,5.51c-1.73,1.18-4,1.59-6.06,2.26-2.79.9-5.89,1.23-8.35,2.68-32,18.78-85.38-1.86-100.05-40.36-13.32-35-9-68.07,13.23-98.27,11.45-15.56,27.86-23.35,46.69-26,26.84-3.77,52.42-.15,76.18,13.68,21.75,12.66,36.86,30.77,45.13,54.5,9.3,26.69,11.53,54,5.48,81.64-4.61,21.09-15.2,39.3-28.93,55.69a192.35,192.35,0,0,1-51.13,43.38,33,33,0,0,1-4.19,1.74Z"/><path class="cls-1" d="M236.19,70.34c-3.58.32-6.61.71-9.66.86-21.12,1-42.37.9-63.34,3.28-35.87,4.06-62.75,22.46-77.58,55.8C72.41,160,74.16,189.5,93.81,215.9s58.4,37.27,89.08,19.63c9.81-5.64,18.28-12.68,24.52-22.25,8.32-12.76,10.82-26.47,6-41-6.91-20.71-19.28-36.73-40.63-44.22-2.86-1-6.46-1.72-9.22-.89C151.45,130.8,140,136,132.28,146.52c-10.34,14-9.77,34,1.18,49a40.17,40.17,0,0,0,9.79,9.72c7,4.67,17.25,2.11,22.64-4.93,5.65-7.38,5-14.43-1.84-21.34a5.21,5.21,0,0,1-.67-.74c-1.61-2.53-3.2-5.07-4.8-7.62,3.11-.33,6.41-1.48,9.31-.84,8.39,1.85,16.43,5.25,18.19,14.8,2,10.83-2,20.15-10.68,26.82-14.62,11.18-36,10-53.13-2-12.57-8.84-18.8-20.39-18.46-36,.38-17.55,2.51-34.05,16.18-47.08,23.67-22.58,66-24.67,88.48-3,18.39,17.74,26.07,40.33,24,65.79-1.92,23.19-12,42.47-30.59,56.68-12.31,9.44-26.2,15.85-42.09,16.58a137.16,137.16,0,0,1-45.85-5.93,6.67,6.67,0,0,1-1.9-.56c-8.57-6-17.94-11.2-25.4-18.36a105,105,0,0,1-19.49-25c-21.78-40.12-15.72-90,15.43-123.4a117.41,117.41,0,0,1,30.56-23c9.16-4.87,20.18-6.63,30.6-8.63a187.38,187.38,0,0,1,76.38,1C226.71,60.06,232.82,62.45,236.19,70.34Z"/></g></g></svg>