<svg xmlns="http://www.w3.org/2000/svg" viewBox="0 0 492.41 496.37"><defs><style>.cls-1{fill:#fff;}</style></defs><g id="Layer_2" data-name="Layer 2"><g id="Layer_1-2" data-name="Layer 1"><path class="cls-1" d="M492.41,2V494.42c-3.42.15-7,.41-10.63.47-27.32.45-54.64,1.16-82,1.24q-117.22.35-234.45.23c-44,0-88-.33-132-.55-8,0-16-.59-24-.38-4.71.12-6.21-2.05-6.39-6.16-.41-9.48-1.16-19-1.23-28.46C1.16,380.85.45,300.87.15,220.9-.12,149.42.15,77.93,0,6.44,0,1.49,1.13,0,6.33,0q120,.72,239.93,1,112.47.45,224.94,1C478,2,484.78,2,492.41,2ZM247.72,27.3v-.76c-45.65,0-91.3-.23-136.94.08-27.32.19-54.62,1.29-81.93,1.83-4.77.09-6.34,2.09-6.41,6.69-.46,28-1.52,56-1.62,83.93Q20.31,264,20.41,409c0,17,1.45,33.94,2.09,50.91.2,5.3,3.09,7.85,7.88,8.62,5.75.93,11.52,2,17.32,2.29,40.92,1.81,81.85,3.71,122.8,5,24.64.78,49.31.76,74,.68,49.65-.16,99.3-.4,149-1,20.64-.27,41.28-1.54,61.91-2.58,1.94-.1,4.78-1.38,5.54-2.93,5.05-10.19,8.94-20.84,9.38-32.37.84-22,2-43.94,2.13-65.91q.51-70.73.1-141.46-.39-78-1.58-155.95c-.22-13.94-2.09-27.86-3.12-41.8-.27-3.62-1.71-5.28-5.62-5.05-4.65.28-9.33-.09-14-.1Q347.94,27.28,247.72,27.3Z"/><path class="cls-1" d="M249.45,336.75c-.57,31.12-1.14,61.43-1.69,91.73-.13,7.17-.34,14.33-.21,21.49.07,3.93-1.48,5.29-5.31,5.29-61.82,0-123.64.43-185.45,0-20.06-.16-16.59,2.54-19-17.49a494.23,494.23,0,0,1-3.16-59.35c0-7.63,3.9-15.33,6.42-22.86Q55.58,312,70.39,268.57c7.59-22.38,15-44.82,22.9-67.09,10.46-29.61,20.8-59.27,32.12-88.55,6.7-17.33,15.19-34,22.85-51C153.45,50.47,162.51,45,175,44.39,201.07,43,227.16,41,253.29,40.14c21.13-.71,42.31-.38,63.45,0a62.43,62.43,0,0,1,18.08,3.29c13.31,4.39,20.15,15.48,25.24,27.43,7.68,18,15,36.24,21.73,54.66,8.81,24.22,17.85,48.43,24.94,73.18q9.28,32.44,20.92,64c7.4,20.14,15.06,40.25,21.2,60.79,9.95,33.29,17,67.19,15,102.28-.5,8.62-2.07,17.18-3.09,25.78-.48,4.12-3,5.52-6.83,5.66-18.31.69-36.62,2.12-54.92,2-42-.29-84-1.32-125.94-2.08-6.82-.12-6.55-.24-7.4-7.34A535.55,535.55,0,0,1,262.56,367a117.76,117.76,0,0,1,1.44-13.9c1.1-7.05,5.49-11.69,12.29-12.81a191.89,191.89,0,0,1,28.26-2.91c32.82-.52,65.66-.53,98.49-.7,8.12,0,8.12,0,8.09,8.15-.05,12.58-.05,12.49-12.75,12.77-27.65.6-55.3,1.2-82.94,2a155.25,155.25,0,0,0-19.33,2.13c-3.51.55-7.9,1.14-7.78,6.08s3.31,7.95,7.93,9a81.77,81.77,0,0,0,14.25,2.41c29.78,1.59,59.58,2.9,89.36,4.44a112.3,112.3,0,0,1,15.83,2c5.58,1.11,10.3,12,7.18,16.55-.86,1.26-3.42,1.82-5.23,1.9-28.8,1.27-57.61,2.35-86.41,3.61-9.82.43-19.63,1.13-29.43,1.9a38.77,38.77,0,0,0-8.26,1.83,5.6,5.6,0,0,0-3,2.3c-2.61,4.75,2.11,13.51,7.45,13.72,35.46,1.45,70.91,3,106.39,4.07a101.36,101.36,0,0,0,21.79-2.15c8.07-1.55,11.83-6.28,12.81-14.51,2.76-23.22-.19-45.89-7.42-68-8.43-25.78-17.57-51.33-25.77-77.18-9.67-30.45-18.62-61.12-28-91.67-8.62-28.17-17.15-56.44-31.85-82.19-6-10.5-13.44-20.19-20.54-30a8.62,8.62,0,0,0-6.13-3.12c-40.81.58-81.63,1.05-122.41,2.44-8.37.29-16.88,3.56-24.83,6.71-7.2,2.86-10.54,10.09-13.11,16.92-13.19,35-26.31,70.05-39,105.26-9.12,25.34-17.75,50.87-26.13,76.47C81,309.77,67.78,349,63.92,390.37c-1,11.2-.44,22.62.17,33.89.4,7.55,2.24,8.95,9.75,8.91,48.82-.31,97.63-.78,146.44-1.15,2.94,0,4.3-.88,3.93-4.1-.74-6.45-1.09-12.95-2-19.38-.18-1.26-1.94-2.49-3.23-3.34-.7-.45-1.95-.06-2.94-.06q-63.51,0-127,.14c-3.07,0-4.09-1.06-4.33-3.94-.37-4.48-.9-8.95-1.68-13.38s.42-6.12,5.36-6.1c42.83.21,85.67.14,128.5.17,7.24,0,7.25,0,7.26-7.31,0-3.83-.38-7.71.07-11.49.58-5-1.63-5.77-6-5.75-26,.11-52,.16-78-.16-12.48-.16-25-1-37.42-1.92-2.45-.18-6.34-1.56-6.84-3.2-1.13-3.77-.65-8.48,3.53-10.51A34.22,34.22,0,0,1,112.27,338c17.63-.88,35.29-1.46,52.94-1.63,26.16-.25,52.33-.06,78.49,0C245.49,336.33,247.28,336.58,249.45,336.75Z"/><path class="cls-1" d="M274.47,265.51c-16.35,0-28.41-.83-39.87-5.76-14.87-6.4-23.51-17.65-25.93-33.47-3-19.77-.43-38.44,14.31-53.3,12-12.13,27-18.62,44.23-16.9,16.9,1.67,30.28,15.55,32.18,37.13.85,9.57-.39,18.94-4.69,27.73-2.36,4.8-6,8-11.43,7-9.9-1.8-19.87-3.71-29.43-6.76-3.37-1.07-6.47-5.18-8.22-8.65-2.53-5,.22-8.48,5.9-8.17,5.31.28,10.6,1.06,15.9,1.61,2.48.26,5,.65,7.44.71,6.64.16,6.84-.42,5.41-6.82a113.2,113.2,0,0,1-2.08-14.79c-.68-7.66-5.43-11.76-12.78-10.06-27.49,6.34-39.53,34.88-26.53,56.91,6.2,10.5,16.25,15.67,28,17,22.65,2.48,40.45-6.86,53.42-24.75,4-5.48,5.88-13.19,6.65-20.11,2.33-20.9.09-41-15.28-57.31C297.91,132,281.64,125.45,260.81,125c-59.15-1.19-88.85,60.66-80.61,101.68,6,29.69,25.06,48.36,55.18,54.34,21.09,4.18,41.69,3.49,62.1-3.24a4.74,4.74,0,0,1,1-.27c3-.32,6.74-2.68,8.47,1.15s-.46,7.64-3.79,9.41c-4.93,2.62-10.23,5.09-15.66,6.12-20.88,4-42,5.63-63.13,2.45-17.62-2.66-31.46-12.49-43.56-25.34-17-18-25-38.68-22.61-63.62,1.94-20,4-40.11,14.53-57.61,13.4-22.16,34.36-34.66,58.78-41.86,29-8.53,54.82-.46,79.32,14.9,29.93,18.76,39.54,46.8,35.67,80.3-1.19,10.25-4.45,20.47-8.12,30.18-6.72,17.77-20.75,26.59-39.2,28.91C289.56,263.73,280,264.85,274.47,265.51Z"/></g></g></svg>