<svg xmlns="http://www.w3.org/2000/svg" viewBox="0 0 484.29 486.09"><defs><style>.cls-1{fill:#fff;}</style></defs><g id="Layer_2" data-name="Layer 2"><g id="Layer_1-2" data-name="Layer 1"><path class="cls-1" d="M484.22,243.19q0,119,.07,237.94c0,4.09-1.41,5-5.22,5-118.14-.09-236.28.09-354.42-.18-36.48-.08-72.95-1.36-109.42-2.1-.5,0-1-.05-1.5-.09C2.89,482.8,2.09,481.84,2,471q-.47-110.72-1-221.42Q.52,126.84,0,4.12C0,1.07.72-.12,3.85,0c4.66.19,9.33.06,14,.06H476.74c7.46,0,7.48,0,7.48,7.68Q484.24,125.48,484.22,243.19ZM469.76,239H468c0-43.32.27-86.64-.1-129.95-.22-26-1.56-51.95-2.14-77.94-.12-5.1-2.17-7.2-7-7.48-7.31-.42-14.61-1.36-21.93-1.57-46.79-1.33-93.58-3-140.39-3.65-67.14-1-134.29-1.44-201.43-1.78a263.24,263.24,0,0,0-62.9,7.2c-5.65,1.35-8.79,4.47-9.73,9.93A82.32,82.32,0,0,0,21,45.61c-.68,26.31-1.56,52.62-1.73,78.93q-.66,98-.73,196c-.05,35.31-.05,70.64.75,105.94.26,11.7,2.85,23.37,4.92,34.95.32,1.78,3.43,4,5.51,4.35a162.12,162.12,0,0,0,20.87,1.85c51.64,1.14,103.27,2.8,154.91,3,82,.36,164,1.05,245.8-5.12,8-.6,11.18-2.39,12.94-10.42a116.31,116.31,0,0,0,2.67-22.7Q468.54,335.68,469.76,239Z"/><path class="cls-1" d="M286.34,242.37c1.71-6.88,2.89-14,5.2-20.62,8.82-25.41,18.56-50.71,38.11-69.91,12.73-12.51,27.64-22.83,41.86-33.76,3.5-2.69,8.13-6.19,12.72-2.88,4.34,3.14,2.36,8.42,1.46,12.62-1.78,8.29-4.41,16.39-6.37,24.63-6,25.09-1.92,49.11,9.22,71.85,9.57,19.54,20.91,38.22,30.41,57.79,12.25,25.23,14.58,51.43,3.29,77.78-5.93,13.83-13.38,26.86-25.43,36.44-2.91,2.31-6.56,3.8-10.06,5.19a5.21,5.21,0,0,1-4.43-.94c-.61-.52-.27-2.93.4-4,4.43-7.2,8.84-14.44,13.69-21.36,6.87-9.83,10.89-20.54,11.23-32.55.36-12.65.78-25.3.85-37.95,0-7.75-3.29-14.46-7.52-20.83-13.81-20.84-26.48-42.29-35.46-65.77-7.37-19.26-11.17-39-9.72-59.65.22-3.27-1-6.64-1.5-10-2.56,2.14-5.68,3.87-7.58,6.48-14.32,19.69-27.89,39.77-34.06,63.87-4.67,18.23-1,35.65,4,53.11,4.12,14.55,8.27,29.1,11.75,43.81,4.75,20-.57,38.6-9.82,56.32-2.54,4.85-5.23,9.64-8.12,14.3-6.65,10.71-15.94,18.47-28,22.12-12.23,3.71-24.58,7.57-37.17,9.38-19.79,2.85-38.61-2.81-56.82-10.13a55.22,55.22,0,0,1-25.72-20.67c-7.71-11.53-12-24.55-13.76-38.19-2.1-16.18-3.24-32.48-5.05-48.71s-5-32.26-12.48-47a63.63,63.63,0,0,0-29.63-29.26c-3.13-1.53-5.17-1.31-5.59,2.57-.73,6.76-1.72,13.51-2,20.29a182.67,182.67,0,0,1-8.4,46.56,256.67,256.67,0,0,0-11.64,60.65c-1,16.23,5,29.53,15.87,41.08,2.85,3,5.66,6.11,8.33,9.29.87,1,2.07,3.22,1.68,3.69-1,1.25-3.09,2.85-4.32,2.56-5.24-1.26-10.91-2.21-15.34-5-14.53-9.11-23.66-22-25.43-39.6-2-19.9-1.48-39.68,8.19-57.47,18.17-33.42,16.6-67.31,5.2-102-1-3.17-1.34-6.58-2-9.87,3.41.09,7.16-.72,10.15.44,13.28,5.2,26.64,10.35,39.37,16.72,8.39,4.2,15.71,10.51,23.61,15.72,1.56,1,4.22,2.39,5.23,1.76a7,7,0,0,0,2.61-5.36c-1.15-34.81,18.11-59.52,40.86-82.35,11.74-11.78,24-23,33.08-37.17a134.69,134.69,0,0,0,20-54.35c.93-6.4,2.6-12.7,4.07-19,.91-3.92,2.82-4.3,6-1.73,24.2,19.83,36.6,45.48,38.54,76.55,1.5,24.08-3.88,46.95-11,69.67-4.29,13.75-7.59,27.88-3.43,42.24,2.27,7.86,5.86,15.33,8.85,23ZM222.93,343.43c2.55-.88,4.33-1.51,6.11-2.11,4.22-1.41,8.68-2.34,12.59-4.35a10,10,0,0,0,5.57-9.91c-.24-4.2-3-6.47-6.47-8.18-13.25-6.57-30.75,2.14-34.32,16.7-4.78,19.47,13.52,34.19,29.33,33.73,19.1-.56,31.6-11.36,39.35-27.81,7.14-15.17,4.11-29.68-4.49-43.65-12.6-20.45-35.55-28.76-57.5-19-9.25,4.12-17.45,10.78-25.75,16.8-5.15,3.73-9.08,8.72-10.46,15.33-.31,1.49-1.71,2.73-2.54,4.12-1.46,2.46-3.87,4.86-4.1,7.44-.73,8.08-1.42,16.32-.67,24.36,1.49,15.77,8.12,29.34,21.64,38.25,24.87,16.37,51.88,16.55,79.12,7.78,15.36-4.94,25-17.28,31.94-31.37,13.53-27.52,15.69-54.54-4.93-80-9.42-11.64-19.11-23.07-28.31-34.88-8.65-11.11-16-23-17.2-37.56-1.19-13.78,3.56-26.27,9.48-38.3,14.83-30.12,15.92-61.06,6-92.72-1-3.14-2.83-6-4.27-9l-1.94.11c-1.92,4.5-3.67,9.08-5.77,13.48-8,16.8-19.58,31.26-31.1,45.67-13.59,17-27.72,33.57-41.32,50.57-7.65,9.57-14,20.11-15.21,32.6-2.06,21.36-3.72,42.77-5.1,64.19-.56,8.7.79,9.35,9.06,6.34,7.79-2.83,15.57-5.69,23.25-8.81,8.42-3.41,12-11.4,8.39-18.7-9.07-18.37-6.56-36.85.95-54.55,5-11.68,12.16-22.52,19.08-33.27,9.89-15.36,20.41-30.32,30.77-45.39,1.1-1.59,2.88-2.72,4.69-4.39.51,1.39.83,1.84.8,2.27a15.77,15.77,0,0,1-.61,4.44c-4.64,11.9-8.88,24-14.25,35.56C238,173.64,229.5,187.29,223.4,202s-6.11,30.19,1,45.15c4.08,8.6,10.08,13.55,20.06,13.82,4.3.11,9.3,1.21,12.66,3.67,8.14,6,15.58,12.86,23.14,19.56,7.39,6.56,10.84,15,10.9,24.84.07,9.33.2,18.66,0,28-.19,9.72-2.53,18.6-9.64,26-14,14.62-29.68,24.67-51.22,20.28a57.8,57.8,0,0,1-23.94-10.72c-11.6-8.87-18.6-20.27-17.72-35.45,1.66-28.49,36.93-42.8,58.83-32.63,14.54,6.75,18.28,17.53,11.39,31C250.92,351,237.35,355.6,222.93,343.43Z"/><path class="cls-1" d="M116.75,249.36c2.09,4.47,3.91,8.76,6.06,12.89,7,13.46,8.95,27.54,6.85,42.59q-3.69,26.45-5.87,53.09c-1.72,21.12,7.33,37.58,23.45,50.79,20,16.38,42.53,25.51,68.57,26.26,21.51.62,43,1.25,64.28-2.6,23.13-4.18,40.21-17.79,53.07-36.79,8.28-12.24,16.61-24.84,18.43-40a190.61,190.61,0,0,0-2.23-62.13c-1.37-6.54-5.82-12.4-7.4-18.93-5.74-23.57-8.84-47.45-5.85-71.76.31-2.48,1.37-4.87,2.08-7.3l1.88-.1c.89,3,2.26,6,2.6,9.06,2.48,22.76,7.49,45,14,66.88,4.39,14.82,9,29.57,13.4,44.38,7.43,24.87,4.05,48.28-9.34,70.44-10.89,18-23.91,33.94-41.88,45.41-19.4,12.39-40.89,18.24-63.5,20.64-6.46.68-13,1.06-19.43,1.45-27.55,1.66-53.82-4.23-78.43-15.93-17.33-8.25-30.68-22.2-42.37-37.31-6.78-8.76-8-19.61-8.62-30.32-1-17.41,1.34-34.59,4.66-51.62,4.26-21.8,7.82-43.61,4.47-65.91a6.65,6.65,0,0,1,0-2C115.69,250.33,116.05,250.13,116.75,249.36Z"/></g></g></svg>