<svg xmlns="http://www.w3.org/2000/svg" viewBox="0 0 498.21 495.7"><defs><style>.cls-1{fill:#fff;}</style></defs><g id="Layer_2" data-name="Layer 2"><g id="Layer_1-2" data-name="Layer 1"><path class="cls-1" d="M0,493.6V0C5.6,0,11,0,16.48,0Q127.71.48,238.94,1q123.22.57,246.45,1.24c10.45,0,10.42.14,10.46,10.57q.45,116,.93,232,.47,115,1,230c0,4.83-.06,9.68.39,14.48.37,3.95-.9,5.35-4.89,5.36-15.16,0-30.32.34-45.48.39q-87.24.31-174.48.51-107.24.22-214.47.26c-18.48,0-37-1-55.44-1.54A29.44,29.44,0,0,1,0,493.6Zm15.73-252h.09c0,1.17,0,2.33,0,3.5.65,51.81.92,103.64,2.16,155.44.51,21.28,3.15,42.5,4.79,63.75.36,4.69,2.53,7.19,7.48,7.48,8.65.5,17.26,1.63,25.91,2,37,1.66,73.9,3.31,110.87,4.6,14.13.5,28.3.08,42.46-.06,1.28,0,2.55-1,3.82-1.5-1-1.14-1.81-2.91-3.05-3.31-6.16-2-12.34-4.21-18.69-5.27-19.46-3.23-38.3-8.24-56.41-16.27-36.34-16.12-64.41-41.47-84.66-75.43-10.31-17.29-20.21-35-24.09-55.05-2.11-10.89-2.33-22.16-3.13-33.28-2-26.85-1.41-53.64,3.72-80.14,4.36-22.51,10.8-44.55,24.22-63.42,16.62-23.35,36.05-44.4,57-64a37.62,37.62,0,0,1,8.1-5.71c6.33-3.31,13.06-5.88,19.25-9.41,15.82-9,32.05-17,49.75-21.65,27.52-7.26,55.57-8.49,83.81-7.34,22.24.9,44.12,4.37,65.25,11.43,33.33,11.12,61.47,30.29,85.87,55.54,27,27.91,41.9,61.19,46.49,99.36A373.25,373.25,0,0,1,465,303.53c-4,26.2-11.53,51.33-24.77,74.41-21.57,37.63-54,62.74-93.66,78.86-12.11,4.92-25,7.83-37.53,11.85-2.2.71-4.09,2.38-6.13,3.6,2.08,1,4.11,2.85,6.24,3a208.91,208.91,0,0,0,23.47.32c44.58-2.54,89.14-5.34,133.71-8,3.09-.18,4.39-1.15,4.52-4.42,1.64-42.78,3.52-85.56,5.09-128.34q4.53-122.7.55-245.41c-.56-17.58-3.19-35.1-5-52.64-.26-2.55-.33-5.39-4.17-5.74C455.9,30,444.5,28,433.05,27.7c-38.64-1-77.29-1.77-115.95-1.93-55.65-.24-111.32-.35-167,.4-38.3.52-76.58,2.38-114.85,4.1C22.87,30.83,22.9,31.5,22.6,43.73c0,.17,0,.34,0,.5Q19.16,142.9,15.73,241.55Zm23.8,13,1.09.06c0,5.49-.58,11.07.15,16.46,1,7.53,1.66,15.55,4.83,22.25,9.11,19.24,26.22,30.2,45.82,34.77,33.05,7.71,65.75,4.35,97.32-9.11,24.31-10.36,44.72-26.11,63.45-44.27,21.78-21.13,44.66-40.72,70.7-56.61,22.15-13.52,45.48-22.64,71.52-24.3,14.63-.93,29.24-2.13,43.86-3.06,3.93-.25,4.87-2.17,4-5.59a25.94,25.94,0,0,0-1.26-4.3c-5.52-12.27-10.48-24.85-16.85-36.67C418.68,134,411.61,124.63,405.12,115c-.63-.94-2.11-1.31-3.19-1.94-.6,1.09-1.6,2.13-1.72,3.27-.47,4.63-.8,9.27-.95,13.92-.48,15.84-4,30.74-14.34,43.19-13.5,16.27-31.23,22.49-52,20.85-4.81-.39-9.62-.89-14.44-1.11a9,9,0,0,0-9.11,5.8c-6,14.9-17.09,25.65-28.51,36.12-12.31,11.29-26.48,18.24-43.67,18-7.48-.11-15,.51-22.47.73S202,257.64,198.15,264a234.5,234.5,0,0,1-14.3,21.59c-8.08,10.53-17.83,19.29-29.92,25.19-27.51,13.45-58.15,5-77.23-21.23-9.47-13-15-27.1-12-43.45,3.3-17.79,15-29.19,29.83-38,10-5.92,20.37-9.91,32.25-5.8,12.2,4.23,23.86,9.53,29.8,21.79,6.33,13.06,7,27,2.82,40.91a15.08,15.08,0,0,1-9.92,10.37c-8.06,2.92-16.3,3.14-24.65,2.48-10.56-.84-14.85-4.84-16.3-15.32a52,52,0,0,1-.51-10.93c.15-2.09,1.25-5.49,2.53-5.81,1.94-.47,4.79.74,6.59,2.1,5.44,4.13,7,10.16,7.57,16.71.43,5.08,3.22,6.24,6.79,2.68a63.12,63.12,0,0,0,8.94-11.27c5.07-8.15,9-16.71,6.61-26.82-1.12-4.69-3.84-8.21-8.44-8.83-13.74-1.85-27.5-1.71-39.69,6-12.59,7.93-18.37,20.11-17.61,34.75.8,15.64,10,26.12,23.57,32.73,19.3,9.41,42.87,4.79,59.12-12,21.8-22.53,26.65-49.53,16.79-78.56-8.46-24.89-27-39.08-53.23-42.17-19.34-2.27-37.51,2.1-54.11,12.15-17,10.26-28.2,24.75-30.55,45C41.51,230.3,40.64,242.42,39.53,254.51ZM451.12,242c-.19-2.76-.18-5.28-.59-7.73-.49-2.95-.79-6.13-2.16-8.67-1.54-2.84-3.74-6.27-6.47-7.31-4.52-1.73-9.68-1.9-14.6-2.5-42.37-5.1-80.7,5.22-114.36,31.32-20.23,15.67-39.27,32.87-59.4,48.69-16.71,13.13-33.71,26-51.51,37.59-22.45,14.61-48.22,18.39-74.5,19.11-15.34.43-30.66.66-45.49-4.42-8.18-2.81-16.44-5.35-24.73-7.79-1.4-.42-3.13.3-4.71.5.23,1.56.13,3.27.73,4.68C63.24,368.42,81.78,381.55,105,387c23.42,5.52,47.52,4,71-.63,24.91-4.87,47.57-15.88,68.72-29.78,24.27-16,45.38-35.78,66.95-55.08,19.08-17.07,38.24-34.23,64.16-40.77,21.44-5.41,42.54-12.52,65.24-9.33C447.9,252.4,451.15,248.79,451.12,242ZM104.86,411.85l-.36,2.52c3.57,2.23,7,4.72,10.75,6.65a159.68,159.68,0,0,0,44.78,15c24.57,4.53,49,4.25,73.3-2.1,21.71-5.67,39.41-18.39,56.12-32.44,22.27-18.73,43.14-39.12,67.41-55.41,14.12-9.48,28.65-18.17,44.67-24.13a102.81,102.81,0,0,1,35.66-6.54c7.32,0,9.38-2.07,10.63-9.24.84-4.76,1.48-9.55,2-14.35,1.67-15.58.64-16.89-14.86-19.42a45.66,45.66,0,0,0-5.94-.62c-39.24-1.18-72.25,13.6-101.18,39.18-19.31,17.07-38.38,34.47-58.54,50.47-36.55,29-78,46.09-125.19,47.26-9.49.23-19,.44-28.45,1C112,409.93,108.46,411.11,104.86,411.85ZM67.63,146.66,68.9,149c5.92-1.16,11.91-2.06,17.76-3.54,17.47-4.41,35.23-7.14,52.83-2.47,11.78,3.12,22.94,8.63,34.25,13.39,3.24,1.36,5.28,1.66,8.3-.94,14-12.06,29.89-19.41,48.85-17.37,26.13,2.81,41.62,16.48,43.39,43.91.57,8.92-.33,17.87-6.11,25.21-11.07,14-40.22,11.06-48.57-4.78-5.64-10.71-5-13,5.52-19.49,1.56-1,3.11-2,4.74-2.78,6.55-3.29,10.46-.82,10,6.43-.28,4.31-1.24,8.58-1.33,12.89-.1,5.15,2.44,6.7,7,4.21a65,65,0,0,0,11.55-7.75c4.59-4,7.91-9.1,5.56-15.44-6-16.19-26.42-33.57-49.62-23.08-7.88,3.56-14.64,9.62-21.72,14.8-.94.69-1.12,2.95-1,4.43a21.38,21.38,0,0,0,1.53,5.25c4.74,13.1,9.2,26.31,14.41,39.21,2.51,6.25,7.12,11.14,14.07,13.17,21.92,6.42,46.37-1.51,60.84-21.72,18.49-25.82,13.7-56.68-1.53-81.16C268,112.6,250.47,100.2,232,89a63.19,63.19,0,0,0-30.16-9.34c-22.55-1.1-44,3.69-64.68,12.42-21.75,9.17-39,24.53-55.83,40.45C76.55,137,72.18,141.93,67.63,146.66ZM209.21,59.22l-.45,2.14c2.26,1.1,4.48,2.3,6.8,3.26,11.35,4.69,23,8.7,34,14.1,14.18,7,25.57,17.93,36.6,29,3.75,3.78,6.5,4.11,11,1.35,8.93-5.44,18.21-10.33,27.53-15.09A17,17,0,0,1,342,94.7c11.12,6.79,20.52,15.47,26.61,27.1,10.28,19.66-.18,40.25-22.15,44.19-11.06,2-20.93-3.69-22.36-13.21-1.4-9.29,1.89-17,9-23.06a38.37,38.37,0,0,1,5.65-3.38c.56,2.13,1.14,4.25,1.68,6.38,1.4,5.59,2.2,11.42,4.33,16.71,2.06,5.11,4.71,5,7.61.16,4.26-7.08,5.83-14.5,1.68-22.27-6.78-12.7-23-24.34-42.77-15.12-10,4.64-12.7,8.94-10.26,19.68a232.7,232.7,0,0,0,7.34,25.93c4.24,12.05,13.41,19.55,25.53,22.3,5.49,1.25,11.69-.91,17.58-1a23.11,23.11,0,0,0,16.43-7.33A82.86,82.86,0,0,0,379,158.34c4.92-7.67,8.34-15.93,5.84-25.49-8.25-31.57-25.47-55.07-57.54-66.09C293.51,55.16,259,52.82,223.78,57,218.91,57.62,214.07,58.49,209.21,59.22Zm44.57,394.93.21,1.48c1.84.31,3.73,1,5.52.84,14.71-1.52,29.63-2.08,44-5.08,36.87-7.67,69.21-24.41,95.13-52.17,14.32-15.34,27.2-31.89,36.44-50.9,4-8.27,1.73-11.58-7.44-11.63-.66,0-1.33.06-2,.09-14,.79-26.66,6-38.63,12.55-25.3,13.79-46.43,33.18-67.79,52.23C299.7,419,281.16,437.81,258.11,451A46.91,46.91,0,0,0,253.78,454.15Z"/></g></g></svg>