<svg xmlns="http://www.w3.org/2000/svg" viewBox="0 0 145.35 144.92"><defs><style>.cls-1{fill:#ffead5;}.cls-2{fill:#5acfc9;}.cls-3{fill:#fff;}.cls-4{fill:#242b32;}.cls-5{fill:#f45b42;}.cls-6{fill:#f45a41;}.cls-7{fill:#f67b64;}.cls-8{fill:#f7836b;}.cls-9{fill:#f67b63;}</style></defs><title>Aang</title><g id="Layer_2" data-name="Layer 2"><g id="Layer_1-2" data-name="Layer 1"><path class="cls-1" d="M87.24,1.62c3.85.22,7.37,1.69,10.93,3a68,68,0,0,1,19.92,11.34,72.06,72.06,0,0,1,8.79,8.35,75,75,0,0,1,11.93,18.38,66.21,66.21,0,0,1,5.51,18.51,70,70,0,0,1,1,12.59,76.47,76.47,0,0,1-5.14,25.43,74,74,0,0,1-10.66,18.57,70.88,70.88,0,0,1-19.33,17,72.35,72.35,0,0,1-22.27,8.79,49.44,49.44,0,0,1-11,1.41c-2.08,0-4.16,0-6.23,0a66.7,66.7,0,0,1-25.4-5.11,71.36,71.36,0,0,1-17.64-10.22,69.41,69.41,0,0,1-13.74-14.32,73.55,73.55,0,0,1-10-19.18A68.08,68.08,0,0,1,.42,79.47,81.24,81.24,0,0,1,0,71.22,74.65,74.65,0,0,1,5.06,46,71.46,71.46,0,0,1,37,9.3,84.6,84.6,0,0,1,55.44,1.92a6.66,6.66,0,0,1,2.3-.24,3.33,3.33,0,0,1,1,2.57,156.41,156.41,0,0,0,1.42,17,2.82,2.82,0,0,1-2.33,3.45c-1.17.3-2.3.78-3.47,1.07-1.8.45-1.7,1.25-.71,2.53,5.66,7.32,11.63,14.38,17.62,21.43,1.19,1.4,1.93.54,2.68-.33,4.07-4.71,8.14-9.41,12-14.28L91.64,28c1-1.32.71-1.84-.77-2.24a41.69,41.69,0,0,1-4.22-1.26c-1.12-.44-2-1.06-1.83-2.47C85.72,15.56,86,9,86.7,2.47A1.4,1.4,0,0,1,87.24,1.62Z"/><path class="cls-2" d="M87.24,1.62c-.29,6.64-.89,13.25-1.65,19.85-.23,2-.21,2,1.77,2.6s4.11,1.25,6.55,2c-6.79,9.1-13.9,17.56-21.4,26.05C65.08,43.58,58,35.19,51.19,26.1c2.36-.74,4.39-1.39,6.43-2s2.25-.82,1.93-2.84A149.38,149.38,0,0,1,58.13,6.32a39.77,39.77,0,0,0-.39-4.64A43.85,43.85,0,0,1,67.18.22,71.25,71.25,0,0,1,86.51,1.35,4.93,4.93,0,0,1,87.24,1.62Z"/><path class="cls-3" d="M128.32,65.35c1.12,4.63-.15,8.86-2.25,12.9a22.23,22.23,0,0,1-16,11.89,16.77,16.77,0,0,1-5.91.09,30.37,30.37,0,0,1-6.94-2c-5-2-8.14-5.4-9.07-10.93-.51-3,.24-5.58,1.08-8.27a7.82,7.82,0,0,1,3.24-5.43c2.68-.64,5.34-1.07,7.24,1.65a6,6,0,0,1-.61,7.63c-2.14,2.32-4.4,2.56-7.38.78.79,8.24,11.57,12.58,18.77,7.56a15.89,15.89,0,0,0,3.89-21.84,11.83,11.83,0,0,0-2.93-2.89c-.71-.49-1.82-.84-1.32-2.13,1.86-1,3.69-.22,5.51.12,4.28.82,8.32,2.21,11.16,5.78C127.92,61.74,129.32,63.21,128.32,65.35Z"/><path class="cls-3" d="M56.07,69.08a21.31,21.31,0,0,1,.69,9.41c-.72,3.77-3,6.25-5.87,8.16a23.53,23.53,0,0,1-13,3.74c-5,.07-9.27-2-13-5A22.7,22.7,0,0,1,17,73.2c-.66-2.58-.19-5.16-.44-7.73-.76-2,.5-3.47,1.5-4.91,3-4.3,12.05-7.56,17.07-6.23.7,1.24-.51,1.48-1.1,1.9-8.11,5.85-7.37,16-2.42,22.32a11.76,11.76,0,0,0,12.2,4.58c5.11-1,8.53-4,9.7-9.16-.2-.43-.42-.22-.61-.12-3,1.64-5.27,1.3-7.1-1.08-2-2.63-2-5.82.11-8.07S50.42,63,52.85,64A9.27,9.27,0,0,1,56.07,69.08Z"/><path class="cls-3" d="M73.19,114.56c0-2.37,0-4.09,0-5.82,0-1.16.35-1.77,1.62-1.74a20.62,20.62,0,0,0,7.79-1.51c1-.36,1.6-.14,1.94.92a60.25,60.25,0,0,1,2.22,9.51,49.78,49.78,0,0,1,.44,7.71c0,2.14-.06,2.1-2.15,2.9a59.22,59.22,0,0,1-9,2.19c-1.87.41-2.43,0-2.33-1.92C74,122.48,72.79,118.23,73.19,114.56Z"/><path class="cls-3" d="M71.62,118c0,2.93,0,5.86,0,8.79,0,1.9-.35,2.28-2,2a57.47,57.47,0,0,1-10-2.33A2.3,2.3,0,0,1,58,124.67c-1-2.87,0-5.66.25-8.42a33.37,33.37,0,0,1,2.33-9.74c.37-.94.63-1.51,1.8-1.09a24.24,24.24,0,0,0,8,1.62c1.1,0,1.17.79,1.17,1.61V118Z"/><path class="cls-4" d="M16.83,45.06c0-1.21.82-1.67,1.39-2.24,4.71-4.75,10.61-7,17.06-7.91a29.82,29.82,0,0,1,13.82,1A16.54,16.54,0,0,1,58.62,43c.74,1.23,1.92,2.87.83,4s-2.73-.14-3.93-.84a40,40,0,0,0-24.3-5.62,32.57,32.57,0,0,0-12.09,3.49A5.54,5.54,0,0,1,16.83,45.06Z"/><path class="cls-4" d="M128,45.23c-6.75-4.18-14-5.32-21.72-4.64a39.59,39.59,0,0,0-15.65,5c-1.06.58-2.12,1.16-3.23,1.64-.61.26-1.35.5-1.93-.12s-.25-1.14-.08-1.72A11.53,11.53,0,0,1,88,40.93a19.12,19.12,0,0,1,11.76-6,34.7,34.7,0,0,1,20.66,3.17,24.18,24.18,0,0,1,7,5.25C127.79,43.77,128.39,44.14,128,45.23Z"/><path class="cls-4" d="M92.47,63.89l-3.25,5.18c-1.58-1-1.08-2.38-.6-3.67,2.51-6.78,7-11.77,14-13.79a32.89,32.89,0,0,1,24.8,2.65,11.56,11.56,0,0,1,3.47,2.67,2.86,2.86,0,0,1,1,2c-.24,2.64-1.11,5-3.56,6.38-.33-3.66-2.69-5.95-5.58-7.62a23.43,23.43,0,0,0-12.66-3.08,2.32,2.32,0,0,1-1.65.58A23.25,23.25,0,0,0,93.9,62.84,3.6,3.6,0,0,1,92.47,63.89Z"/><path class="cls-4" d="M35.21,54.66a23.82,23.82,0,0,0-11,2.11c-3.91,1.62-6.76,4.33-7.63,8.7-1.86-1.31-2.66-3.3-3.34-5.35-.47-1.42.28-2.5,1.2-3.46a15.56,15.56,0,0,1,5.38-3.51,34.51,34.51,0,0,1,20.76-2.08C48.3,52.75,53.41,57.72,56.33,65c.54,1.35,1.05,2.8-.26,4.08-1.38-1.36-2-3.22-3.16-4.73a3.2,3.2,0,0,1-.9-.55l-.48-.54a23.15,23.15,0,0,0-14.39-8A3.09,3.09,0,0,1,35.21,54.66Z"/><path class="cls-3" d="M89.4,124.32c-.37-2.88,0-5.63-.54-8.39A49.81,49.81,0,0,0,86.14,106c-.49-1.15-.32-1.76.8-2.23,3.46-1.43,6.91-2,10.51-.38s5.16,6.23,3.23,10.38c-1.57,3.39-4.31,5.81-7.08,8.15C92.45,122.88,91.32,124.05,89.4,124.32Z"/><path class="cls-3" d="M55.53,124.45a14.24,14.24,0,0,1-6-4.14,27.46,27.46,0,0,1-4.64-5.53c-1.35-2.45-1.94-5-.85-7.68,1.31-3.2,5.62-5.38,9.25-4.67,1.68.33,3.29,1,5,1.42,1.24.32,1.17.94.74,1.91a38.68,38.68,0,0,0-3,12.73A46.28,46.28,0,0,0,55.53,124.45Z"/><path class="cls-5" d="M83,89.37a6.74,6.74,0,0,1,.46.63c3,4.88,1,9-5,10.14C79.09,99,80.27,98.76,81,98a6,6,0,0,0,2.06-2.79A13.15,13.15,0,0,0,75.73,98c1-2.3,3.18-3.22,5-4.47.71-.47,2-.19,2.16-1.11A6.75,6.75,0,0,0,82.46,90C82.26,89.39,82.54,89.27,83,89.37Z"/><path class="cls-6" d="M62.87,89.43c-.33,1.06-.65,2.12-1,3.22a17.64,17.64,0,0,1,6.67,3.93c.12.53-.09.75-.63.62A12.28,12.28,0,0,0,62,95.09c.69,2.64,3.06,3.43,4.6,5a8,8,0,0,1-6.2-4.35A4.38,4.38,0,0,1,60.52,92a13.46,13.46,0,0,1,1.83-3.1C62.79,88.81,63,88.91,62.87,89.43Z"/><path class="cls-7" d="M83,89.37l-.57.59a10.39,10.39,0,0,1-1.84-3.19A4.89,4.89,0,0,1,83,89.37Z"/><path class="cls-8" d="M62.87,89.43l-.53-.54c.28-.88,1-1.37,1.83-2.22A3.25,3.25,0,0,1,62.87,89.43Z"/><path class="cls-9" d="M67.92,97.2l.63-.62c.52.28,1.18.88.83,1.25C68.78,98.46,68.31,97.69,67.92,97.2Z"/><path class="cls-2" d="M92.47,63.89c3-4.71,7.58-7.25,12.8-8.76a10.6,10.6,0,0,1,4.81-.48,1.92,1.92,0,0,0,.9.88c4.82,2.79,6.84,7.2,6.82,12.53a16.48,16.48,0,0,1-5.9,13,13.42,13.42,0,0,1-19.39-2.72,9.08,9.08,0,0,1-1.58-6.11c.29-.08.44.12.62.29,2.41,2.36,4.81,2.41,7,.15s2.27-5.93,0-7.89a4.18,4.18,0,0,0-3.86-1C93.94,64,93.2,64.59,92.47,63.89Z"/><path class="cls-2" d="M52.61,63.94c.27,0,.37.16.3.42a3.23,3.23,0,0,1-1.76-.28c-2.39-1.12-5.54.13-6.21,3.93-.61,3.47,2.89,7,6.07,6.22,1.31-.34,2.1-1.41,3.31-2.43a11.22,11.22,0,0,1-4.48,9.44A13.41,13.41,0,0,1,31.91,80c-4.43-4.57-6.46-13.36-2.64-19.7a17.54,17.54,0,0,1,5.94-5.62,21,21,0,0,1,17.07,8.78C52.08,63.81,52.48,63.79,52.61,63.94Z"/><path class="cls-3" d="M52.61,63.94c-.08-.18-.69,0-.33-.5Z"/></g></g></svg>