<svg xmlns="http://www.w3.org/2000/svg" viewBox="0 0 145.37 145.27"><defs><style>.cls-1{fill:#fff2e2;}.cls-2{fill:#a6958e;}.cls-3{fill:#f3533a;}.cls-4{fill:#fff;}.cls-5{fill:#f3543b;}.cls-6{fill:#232b32;}</style></defs><title>Appa</title><g id="Layer_2" data-name="Layer 2"><g id="Layer_1-2" data-name="Layer 1"><path class="cls-1" d="M5.1,99.59a80.76,80.76,0,0,1-4.7-20,82.47,82.47,0,0,1-.39-9,71.82,71.82,0,0,1,2.27-16A88,88,0,0,1,6.73,42c3.06-1.33,6.36-2,9.12-4.11,6.47-5,9-11.9,10.39-19.53.1-.59.15-1.19.22-1.79A78.14,78.14,0,0,1,55.05,2c.41,1.88.08,3.79.09,5.68a144.7,144.7,0,0,0,1,14.72c.45,4.18-.07,5.15-3.84,6.84A31.79,31.79,0,0,1,44,31.55c-.56.09-1.32.09-1.45.84-.1.58.48.86.85,1.21,8.87,8.22,17.78,16.41,27,24.21,1.52,1.29,2.61,1.16,4,0,4.23-3.44,8.3-7.06,12.37-10.67,4.84-4.31,9.56-8.75,14.32-13.15A4.22,4.22,0,0,0,102.74,32c-3.22-.93-6.58-1.28-9.67-2.62-3.95-1.72-4.46-2.33-4-6.61.62-5.84.36-11.74,1.07-17.58.11-.93-.1-1.92.66-2.69a49.56,49.56,0,0,1,10,3.2,79.24,79.24,0,0,1,18,10.76A28.69,28.69,0,0,0,127,35.91a21,21,0,0,0,9,5.25,4.88,4.88,0,0,1,2.5,1.23,64.53,64.53,0,0,1,5.8,19.12c.61,4.51,1.29,9,1,13.57-.4,5.54-.9,11.1-2.55,16.46a83.45,83.45,0,0,1-2.56,8c-1.5-2.17-2.77-4.49-5.13-6-1.11-.72-.72-2.19-.52-3.39a48.85,48.85,0,0,0,.84-12.08,32.93,32.93,0,0,0-5.75-15.87c-1.62-2.38-2-2.46-4.59-.88-1.46.89-3.21,1.34-4.28,2.82a.89.89,0,0,1-.69.25c-3.33-.27-3.79,0-4.74,3a2.81,2.81,0,0,0-2,1c-3.57,4.31-8,7-13.78,7a10.1,10.1,0,0,0-4.2.25,7,7,0,0,0-6.12,2.71,6,6,0,0,1-2.73,1.93c-5.9,1.89-11.77,4-18.15,2.52-1.68-.38-3.4-.6-5.1-.88a13.78,13.78,0,0,1-8.18-4.14c-1.62-1.77-3.31-2.33-5.52-1.51-1.47-1.45-3-.81-4.51-.09a3.87,3.87,0,0,0-1.54-.89c-6-.78-10-4.48-13.65-8.88-1-2.27-3.22-2.34-5.15-2.93a37.51,37.51,0,0,1-5.53-2.85c-1.41-.95-2.33-.6-3.25.67a32.87,32.87,0,0,0-6.28,23,26.68,26.68,0,0,0,.47,3.33c.73,3.09,1.08,5.92-2.42,7.78C6.24,96.3,6.23,98.38,5.1,99.59Z"/><path class="cls-2" d="M5.1,99.59a6.5,6.5,0,0,1,3.65-5.81A2.17,2.17,0,0,0,10,91.12c-.51-3.39-1.27-6.76-1.2-10.22a34.65,34.65,0,0,1,7.43-21c.71-.92,1.24-1.11,2.31-.39,2,1.38,4.27,2.53,6.41,3.77.46,1.29,0,2.55-.15,3.82-.6,5.8.73,10.93,5.14,15a12.47,12.47,0,0,0,15.71.55,8.39,8.39,0,0,0,2.51-3.83c.32-.88.36-1.89,1.18-2.53.43-.66.85-1.31,1.82-1.12s2.23-.42,2.93.56c3.22,4.56,8.17,5.09,13.06,6.37,5.65,1.47,10.73-.35,16-1.14a9.21,9.21,0,0,0,6-3.34,6,6,0,0,1,6.31-2.41,4.18,4.18,0,0,1,1.06,2.31,10.26,10.26,0,0,0,11.66,7.56c7.09-1,11.74-6.38,12.08-13.9.1-2.31-.51-4.62.1-6.9a1.68,1.68,0,0,1,1.19-2A14.26,14.26,0,0,0,125.86,60c1.84-1.43,2.22-1,3.52.7a33.52,33.52,0,0,1,5,9.58,33.17,33.17,0,0,1,1.24,17,14.56,14.56,0,0,1-.25,1.79c-.72,2.34-.72,4.16,1.94,5.52a5.88,5.88,0,0,1,2.83,5,77.51,77.51,0,0,1-8.37,15.16,71.2,71.2,0,0,1-19.73,18.87,4.61,4.61,0,0,1-2.54,1.18,4.73,4.73,0,0,1-2.77-.45c-1.28-.53-2.59-1-3.9-1.42-4.78-1.6-9.38-2.09-14.3.22-10,4.67-20.39,5.12-30.42.6-6.44-2.91-12.31-2.55-18.45,0a9.81,9.81,0,0,1-4.48,1,71.34,71.34,0,0,1-24.47-24.16A85.34,85.34,0,0,1,5.1,99.59Z"/><path class="cls-3" d="M90.8,2.53c-.4,7.51-.42,15-1.4,22.5-.23,1.75,1,2.43,2.27,3.06A36.11,36.11,0,0,0,101.58,31c.82.14,2-.19,2.3.78s-.85,1.4-1.45,2C93.18,42.34,83.93,51,74.17,59c-1.66,1.36-1.66,1.38-3.2.12C61,50.86,51.6,42.07,42.12,33.34a8.48,8.48,0,0,1-.74-.73c-.57-.66-.28-1.17.43-1.35a33.26,33.26,0,0,1,3.56-.66,26.79,26.79,0,0,0,7.88-2.47c2.21-1,2.46-1.39,2.25-3.78-.58-6.54-1-13.09-1.08-19.67,0-.92-.26-1.93.63-2.65C59.21,1.34,63.35.58,67.56.21A73.78,73.78,0,0,1,90.12,2.15,3.08,3.08,0,0,1,90.8,2.53Z"/><path class="cls-1" d="M35.21,134.82c4.63-1.86,9.22-3.82,14.3-4.23a7.48,7.48,0,0,1,3.73.58,62.48,62.48,0,0,0,13.24,4.3,35.21,35.21,0,0,0,16.35-1,47,47,0,0,0,7.75-2.86,11.27,11.27,0,0,1,7.49-.69,49.72,49.72,0,0,1,11.46,3.85c-2.71,2.54-6.21,3.62-9.49,5.06a65.59,65.59,0,0,1-17.84,4.81,69.51,69.51,0,0,1-16.69.21,78.26,78.26,0,0,1-21.13-5.33A50.31,50.31,0,0,1,35.21,134.82Z"/><path class="cls-3" d="M138.52,42.39c-8.3-1.43-14-6.22-17.36-13.79a29,29,0,0,1-2.89-9.83c0-.78-.47-1.75.59-2.28,5.94,5.32,11.41,11,15.51,18,1.27,2.15,2.49,4.33,3.73,6.5a1.26,1.26,0,0,1,.39.71Z"/><path class="cls-3" d="M26.46,16.54c.85.67.53,1.61.38,2.38C25.71,25,23.76,30.73,19.52,35.4A20.92,20.92,0,0,1,7.9,42.1c-.4.08-.82.31-1.17-.13A75.86,75.86,0,0,1,26.46,16.54Z"/><path class="cls-1" d="M138.49,41.65a.75.75,0,0,1-.39-.71A.75.75,0,0,1,138.49,41.65Z"/><path class="cls-4" d="M49.33,76.29c-.26,4.59-2.67,7.48-7,8.88A13.17,13.17,0,0,1,26,78.3a19.15,19.15,0,0,1-1.09-15,8.46,8.46,0,0,1,3.67.83,2.11,2.11,0,0,1,1.51,2.34c.68.74.44,1.6.31,2.45a23.19,23.19,0,0,0-.08,6.17c.64,5.11,4.53,7.63,9.44,6.16,0-.93-.95-1.55-.87-2.57A2.89,2.89,0,0,1,42.77,76c.82.27,1.55.78,2.41.19a2.43,2.43,0,0,1,2.74-1.59C49.08,74.76,49.31,75.36,49.33,76.29Z"/><path class="cls-4" d="M120.36,64.28c1.38,5.8.76,11.3-2.72,16.28-4,5.72-12,6.86-17.78,3.27-3.15-2-4.14-5.13-4.4-8.62,1.43-.65,2.86-1,4.26.08.85.48,1.49,1.12,2.77.83,2.43-.56,4,1.08,3.19,3.43-.7,2.08.28,2.2,1.78,2.21,4.87,0,8.17-4.52,7.49-10.32-.15-1.33-.83-2.7.23-4,0-.49-.05-1-.13-1.49a1.31,1.31,0,0,1,.83-1.62c.93-.37,1.9-.67,2.85-1S119.84,63.93,120.36,64.28Z"/><path class="cls-5" d="M115.18,67.47c.06,2.82.75,5.59.13,8.45-1.2,5.53-6.26,8.06-11.6,5.41.81-.83,2-1.48,1.77-2.84a2.25,2.25,0,0,0-.58-1.39c-1.08-1.11-2.16-.94-4.35.79-.64-.75-.38-1.82-.83-2.6a1.65,1.65,0,0,1,1.12-.53c5.08-.23,8.79-3,12-6.58.46-.5.89-1,1.34-1.55,0-.06.13-.08.27-.16Z"/><path class="cls-5" d="M45.18,76.23c-.19.57-.39,1.13-.7,2-.84-1-1.58-2-2.84-1.87a2.36,2.36,0,0,0-1.58.8c-1.06,1.18-.71,2.37,1.21,4.06a7.38,7.38,0,0,1-11.1-3.83c-1-2.84-.72-5.77-.38-8.69.09-.76.22-1.53.33-2.29,1-.09,1.22.83,1.69,1.37a21.83,21.83,0,0,0,7,5.59,10.49,10.49,0,0,0,4.91,1.32C44.83,74.68,45.21,75.22,45.18,76.23Z"/><path class="cls-6" d="M72.07,90.82c4,0,7.59-.28,11.22,0a40.78,40.78,0,0,1,12.39,2.5A24.94,24.94,0,0,1,104,98.92,6.79,6.79,0,0,1,101.62,110a10.53,10.53,0,0,1-5.58.73c-2.57-.35-5.14-.62-7.72-.88a6.89,6.89,0,0,0-5.47,1.85A31.88,31.88,0,0,1,78,115.66c-4.12,2.41-8.08,2.1-11.92-.6a13.06,13.06,0,0,1-2.59-2.14c-2.56-3-5.83-3.43-9.44-2.86-1.79.29-3.58.6-5.38.76-2.86.25-5.52-.24-7.63-2.42-2.57-2.67-2.81-5.67-.68-8.69a16.63,16.63,0,0,1,5.06-4.39,30.35,30.35,0,0,1,12.19-4.1A92.59,92.59,0,0,1,72.07,90.82Z"/></g></g></svg>