<svg xmlns="http://www.w3.org/2000/svg" viewBox="0 0 145.13 145.12"><defs><style>.cls-1{fill:#f0c4af;}.cls-2{fill:#232b32;}.cls-3{fill:#706362;}.cls-4{fill:#fff;}.cls-5{fill:#f3533a;}.cls-6{fill:#f2533a;}.cls-7{fill:#f2533b;}.cls-8{fill:#f3563d;}.cls-9{fill:#f28770;}.cls-10{fill:#f2755d;}.cls-11{fill:#f28871;}.cls-12{fill:#f2725b;}.cls-13{fill:#f2735c;}.cls-14{fill:#bad879;}.cls-15{fill:#e0f2d3;}.cls-16{fill:#fdfdfd;}.cls-17{fill:#d6ecdc;}</style></defs><title>Asami</title><g id="Layer_2" data-name="Layer 2"><g id="Layer_1-2" data-name="Layer 1"><path class="cls-1" d="M125.72,122.19a74.12,74.12,0,0,1-20.85,15.48,71.47,71.47,0,0,1-22.66,6.87,85.94,85.94,0,0,1-17,.3A66,66,0,0,1,44,139.35a72.84,72.84,0,0,1-21.83-14.57A73.87,73.87,0,0,1,7.48,104.86c-1.6-3.13-2.72-6.51-4.06-9.77a68.77,68.77,0,0,1,4-18.36c.61-1.66.78-4.12,2.74-4.34s2,2.46,3.05,3.7c3.4,4,4.1,8.11,1.17,12.63a.71.71,0,0,0,.12.86c1.37-.47,2.34-1.61,3.51-2.42s2.4-2.34,4.09-1c1.47,1.19.78,2.65.25,4a5.66,5.66,0,0,0-.53,2,10.84,10.84,0,0,0,3.39-2.33,4.83,4.83,0,0,1,4.34-1c3,.66,6.09,1.48,9.15.08a28,28,0,0,0,12.16-1.53,13.6,13.6,0,0,0,5-3.08,6.05,6.05,0,0,0,1.83-6.78,8.27,8.27,0,0,1-.78-3.49c1.13-2.2.59-4.15-.86-6a14.68,14.68,0,0,1-2-3c-2.94-8.47-11.2-12.85-21.79-10.62-4.71,1-9.12,2.7-12.59,6.23-1,.72-2.18,2.25-3.28,1.08-.85-.91.57-2.15,1.3-3a90.4,90.4,0,0,1,6.57-7.67,5.89,5.89,0,0,1,4.15-1.78c9.83-.37,19.32.83,28.14,5.55.3.17-.1,0,.23.11,1.49.48,3.19,1.92,4.45.12s.08-3.54-1.2-4.88a19.52,19.52,0,0,0-7.6-4.81,50.39,50.39,0,0,0-14-2.52c-.77,0-1.56,0-2.33,0s-1.91.1-2.24-.89c-.27-.79.49-1.41,1-2,2.4-2.6,5-5,7.32-7.7A128.07,128.07,0,0,0,53.67,16.55c1.67-2.73,2.23-2.87,4.93-1.28C62.4,17.5,66.18,19.76,70,22a4.13,4.13,0,0,0,4.79.08c7.39-4.47,15-8.63,22-13.62a18.38,18.38,0,0,1,4.47-2.56A71.32,71.32,0,0,1,115.41,14a5.65,5.65,0,0,0,.92,1.4c1.41,1.91,1.66,4.18,1.81,6.4a55.44,55.44,0,0,1-1.63,18c-.88,3.29-1.41,3.51-5,3.27-8-.52-15.72.39-22.89,4.25a11.13,11.13,0,0,0-5,4.71c-.5,1-.91,2.16,0,3.17s1.92.55,2.89.21a50.35,50.35,0,0,0,5.26-2.2c5.73-2.73,11.86-3.72,18.12-4,3.54-.14,4.15.92,2.81,4.21-1,1-2.21.55-3.39.49-5.84-.33-11.08,1-15.11,5.57a12.86,12.86,0,0,0-3,5.31c-.48,1.43-1.61,2.42-2.48,3.58-1.35,1.82-1.87,3.63-.51,5.66a9.31,9.31,0,0,1-.71,2.74c-1.19,4.16-.26,6.72,3.46,9a22.65,22.65,0,0,0,13.85,3.2,6.8,6.8,0,0,1,1.8,0c1.1.24,2.17,1,3.27.7,3-.77,4.74.77,6.52,2.91,2.1,2.52,4.61,4.68,6.91,7,6.69,6.79,7.54,13,2.92,21.34A3.5,3.5,0,0,0,125.72,122.19Z"/><path class="cls-2" d="M54.63,65.2a23.79,23.79,0,0,1,3.4,5c.55,1.35.74,2.63-.69,3.59l-.37,0a2.48,2.48,0,0,1-.63-.37c-1.54-1.71-2.67-3.75-4.25-5.42a5.49,5.49,0,0,0-.82-.78c-6.62-4.63-14-5.25-21.76-4.36a29,29,0,0,0-9.68,4.23C16,70,15.35,73,17.94,77.15c3.56,5.66,9,8.64,15.15,10.61,1.78.57,3.79.45,5.33,1.75-.69.86-1.7.73-2.62.76a22.22,22.22,0,0,1-7.16-.9,2.26,2.26,0,0,0-2.53.6,33.73,33.73,0,0,1-3.39,2.79c-.51.38-1.12,1-1.82.44s0-1.13.19-1.63c.37-1.06.91-2,1.31-3.1.25-.63.51-1.31-.32-1.81s-1.4-.86-2.28-.06c-1.14,1.05-2.43,1.93-3.66,2.87a4.82,4.82,0,0,1-2.6,1.28c-.49-1.07.09-2,.42-2.89.6-1.61,1.28-3.2,2-4.76a1.57,1.57,0,0,0-.2-1.89c-2.26-2.64-3.73-5.77-5.36-9a3.92,3.92,0,0,0-1.34,2.15A68.56,68.56,0,0,0,4.31,92.57c-.12.88.25,2-.89,2.51A77.15,77.15,0,0,1,0,75.48c-.6-19.26,5.36-36.25,18-50.75A70.55,70.55,0,0,1,58.13,1.5a71.33,71.33,0,0,1,42.42,4.15c.24.1.49.17.73.26-2.18,2.24-4.91,3.75-7.49,5.42-6.45,4.19-13.08,8.08-19.71,12a2.79,2.79,0,0,1-3.29,0c-4.41-2.71-8.89-5.33-13.34-8-1.62-1-1.67-1-2.57.54A119.25,119.25,0,0,1,35.36,40.59c-.37.36-.69.76-1,1.16,0,0,0,.15.08.41a93.15,93.15,0,0,1,9.41.5,35.24,35.24,0,0,1,12.33,3.67,15,15,0,0,1,5.18,4.22,5.86,5.86,0,0,1,1.32,3.58c0,1.94-1.16,2.95-3,2.49a19.41,19.41,0,0,1-4.11-1.55,45.83,45.83,0,0,0-17.06-4.86A98.63,98.63,0,0,0,27.32,50a2.42,2.42,0,0,0-1.84.75,101.66,101.66,0,0,0-9.14,11.1,6.45,6.45,0,0,0,2.79-1.45c5.59-3,11.65-3.12,17.79-3a26.09,26.09,0,0,1,12.14,3C51.25,61.59,53.46,62.8,54.63,65.2Z"/><path class="cls-2" d="M125.72,122.19c-.72-.71,0-1.29.26-1.83a31.09,31.09,0,0,0,2.13-6.89,12.45,12.45,0,0,0-1.67-8.68,26.11,26.11,0,0,0-5-5.92A53.4,53.4,0,0,1,114,91a2.16,2.16,0,0,0-2.2-.86c-1.72.07-3.57.73-5.11-.69a3,3,0,0,1,2.31-1c2.33-.22,2.24-1.33,1.2-2.89-.13-.22-.23-.45-.34-.68a5.74,5.74,0,0,1-.3-.72c-1.82-5.92-1.38-12-.75-18,.37-3.57.12-4-3.49-3.5a28.52,28.52,0,0,0-11.5,4.48A13.45,13.45,0,0,0,91.89,69c-1.3,1.31-2,3.05-3.1,4.47a2.27,2.27,0,0,1-.64.37h-.37c-1.47-.7-1.6-1.78-1-3.19a22.24,22.24,0,0,1,3.68-5.5c1.68-2.93,4.5-4.36,7.43-5.61a17.81,17.81,0,0,1,6.94-1.77c3.35,0,6.06-.56,7.27-4.11.29-1.14.9-2.23.67-3.69-6.72.07-13.27.77-19.49,3.42-2.31,1-4.59,2-6.9,3-1.14.47-2.35.84-3.37-.22s-.87-2.53-.31-3.87a11.55,11.55,0,0,1,5.11-5.32,32.07,32.07,0,0,1,12.71-4.15,45,45,0,0,1,12.65-.21c1.24.18,2,0,2.39-1.53a65.07,65.07,0,0,0,2.08-16.66,25.53,25.53,0,0,0-1.73-9.1.44.44,0,0,1,.1-.69,64.47,64.47,0,0,1,14.28,14A39.38,39.38,0,0,1,135.63,37c0,2.8-1.32,5.15-2.53,7.53-.76,1.48-1.15,2.66.18,4.18,1.48,1.69.59,3.38-1.75,3.91a7.43,7.43,0,0,0-5.07,6.48,1.82,1.82,0,0,0,1.08,1.63c2.49,1.42,5,2.78,8,2.62a17.19,17.19,0,0,1,4.62.6c1.55.33,1.5,1.15.62,2.19a1.59,1.59,0,0,1-.36.37c-4,2.57-5.46,7-7.94,10.66s-3.33,7-.8,10.76a1.77,1.77,0,0,1,.32,1.49c-1,2.22.47,3.7,1.43,5.34,2,3.36,3.64,6.83,3.72,10.84a65.28,65.28,0,0,1-9.31,14.16c-.55.66-1.11,1.31-1.66,2a1.64,1.64,0,0,1-.3.29A.18.18,0,0,0,125.72,122.19Z"/><path class="cls-1" d="M137.16,105.59a19,19,0,0,1-1.3-4.16c-1-3.28-2.81-6.09-4.53-9-.38-.64-1.14-1.23.08-2,.48-.31.05-1.46-.26-2.18-.71-1.67-1.39-3.35-2.13-5a1.92,1.92,0,0,1,.33-2.33,25.24,25.24,0,0,0,4.38-7.29A17,17,0,0,1,138.85,67l2.69-2.35a51.47,51.47,0,0,0-6-.57c-3.58.08-6.44-1.63-9.38-3.26-.87-.48-.94-1.08-.56-1.93.61-1.34,1.18-2.69,1.69-4.06.66-1.79,1.35-3.35,3.81-2.64a1.82,1.82,0,0,0,2.1-1.17,1.78,1.78,0,0,0-.59-2.32c-1.83-1.2-1.27-2.45-.41-3.88,1.45-2.45,2.24-5.21,3.4-7.79,2.11,2.88,3.35,6.2,4.66,9.47a63.48,63.48,0,0,1,4.57,19,77.51,77.51,0,0,1-.74,19.35A69.88,69.88,0,0,1,137.16,105.59Z"/><path class="cls-3" d="M116,14.56c0,.23-.07.46-.1.69a1.06,1.06,0,0,1-.46-1.22C115.68,14.12,115.93,14.23,116,14.56Z"/><path class="cls-1" d="M125.89,122c0-.25.07-.32.3-.29C126.2,121.93,126.1,122,125.89,122Z"/><path class="cls-4" d="M52.46,67.64c2.07,1.51,3,3.89,4.37,5.9a1.7,1.7,0,0,1,.45.26l.06,0a14.06,14.06,0,0,0,1.09,3.7,6.45,6.45,0,0,1-1.54,6.89c-3,3.16-6.81,4.17-10.81,5a19.56,19.56,0,0,1-7.66.06,32.55,32.55,0,0,1-16.29-6.59,20.43,20.43,0,0,1-5.39-6.52c-2-3.7-1.29-6.71,2-9.32a25.46,25.46,0,0,1,10.75-4.74c2.43-.35,1.37,1.14.88,1.92-2,3.19-2.19,6.68-1.95,10.26.38,5.63,4.52,9.84,10.72,10.93S50.35,84,52.58,78.81c-.48-.54-.95,0-1.37.06a4.37,4.37,0,0,1-5-1.73,5.08,5.08,0,0,1-.59-5.62,4.73,4.73,0,0,1,4.67-2.65c.91,0,1.7.34,1.61-1A.43.43,0,0,1,52.46,67.64Z"/><path class="cls-5" d="M66,123.14a34.38,34.38,0,0,0-7.3,1.61,13.22,13.22,0,0,1-4.25,1c-.78,0-1.42-.19-1.51-1a1.26,1.26,0,0,1,1.12-1.5c2.84.08,4.19-2.08,5.92-3.67.45-.41.9-.82,1.33-1.25,2.33-2.33,5-3,8-1.5a6.67,6.67,0,0,0,6.19,0,6.55,6.55,0,0,1,8,1.38c.48.49,1,.92,1.52,1.4s1.09,1.11,1.65,1.65c1.06,1,2,2.11,3.76,1.87A1.3,1.3,0,0,1,92,124.58c0,1-.81,1.15-1.66,1.19a7.75,7.75,0,0,1-3-.64c-1.63-.6-3.31-1-5-1.45a11.77,11.77,0,0,0-6.88,0,9.7,9.7,0,0,1-5.6.09A10.91,10.91,0,0,0,66,123.14Z"/><path class="cls-4" d="M88.28,73.37c1-1.62,1.76-3.42,3.21-4.74a1,1,0,0,1,1,.16,2.46,2.46,0,0,0,1.75.11,4.68,4.68,0,0,1,5.09,2.73,4.79,4.79,0,0,1-.91,5.72c-1.58,1.64-3.41,2.28-5.59,1.19-.2-.1-.38-.32-.65-.16,1,5,7.53,8.45,14.58,6.94,1.15-.25,2.21-1,3.48-.63h0a.86.86,0,0,0,.39.43l1.42,3.07a16.26,16.26,0,0,1-5.39,1.28c-3.69,1-7.31.29-10.86-.66a15.92,15.92,0,0,1-7.92-4.5c-2-2.16-2.13-4.54-1.35-7.13.35-1.15.81-2.26,1.22-3.38l.09-.09A.5.5,0,0,0,88.28,73.37Z"/><path class="cls-6" d="M54.63,65.2A25.14,25.14,0,0,0,41,58.45a44.27,44.27,0,0,0-18.87,1.27c-1,.3-1.89.9-3,.67,2.37-2.81,5.6-4.23,8.94-5.41,5.13-1.83,10.38-2.53,15.68-.85C49.28,55.89,53.07,59.48,54.63,65.2Z"/><path class="cls-7" d="M112.06,53.61c-1.17,5-.2,4.22-5.36,4.57a24.67,24.67,0,0,0-15.06,6c-.39.34-.82.63-1.22.94,1.23-6.06,7.32-10.6,12.91-11.51A27.78,27.78,0,0,1,112.06,53.61Z"/><path class="cls-8" d="M64.52,108.15a15.06,15.06,0,0,1-3.83-3.05,3.42,3.42,0,0,1-.76-4.25,16.25,16.25,0,0,1,5-6.25c-.52,2.72-2.71,4.48-2.66,7.2A6.34,6.34,0,0,1,68.19,106c.15.57-.11.72-.62.62-1.6-.83-2.92-2.25-5.15-2.54a8.89,8.89,0,0,0,2.6,3.54C65.17,108.1,65.05,108.33,64.52,108.15Z"/><path class="cls-8" d="M81.18,95.63a13.44,13.44,0,0,1,3.41,4.44c1.31,2.2,1.07,3.75-.78,5.51a29.12,29.12,0,0,1-2.62,2c-.56.16-.7-.08-.59-.59.58-.92,1.6-1.55,1.84-2.92-2.2.4-3.81,1.69-5.45,2.94-.49.14-.72,0-.57-.54,1.06-2.38,2.53-4.3,5.37-4.61,1.06-.11,1-.77.7-1.47-.61-1.41-1.28-2.79-1.93-4.19C80.41,95.68,80.66,95.52,81.18,95.63Z"/><path class="cls-9" d="M64.52,108.15l.5-.52a2.31,2.31,0,0,1,1.35,1.27C65.5,109.14,65,108.63,64.52,108.15Z"/><path class="cls-10" d="M80.6,107l.59.59a2.6,2.6,0,0,1-2.11,1A3.2,3.2,0,0,1,80.6,107Z"/><path class="cls-11" d="M76.42,106.51l.57.54a2.18,2.18,0,0,1-1.29,1.27C75.44,107.48,76,107,76.42,106.51Z"/><path class="cls-12" d="M67.57,106.63l.62-.62a2.32,2.32,0,0,1,.88,1.89A2.84,2.84,0,0,1,67.57,106.63Z"/><path class="cls-13" d="M81.18,95.63l-.62.61c-.07,0-.16-.09-.2-.16-.2-.42-.86-.93-.29-1.28S80.93,95.16,81.18,95.63Z"/><path class="cls-10" d="M79,108.84l-.17,0c0-.05,0-.13,0-.15a.56.56,0,0,1,.21-.09Z"/><path class="cls-14" d="M52.29,67.68c-.25.94.63,1.57.66,2.61-1.22-.15-2.23-1.2-3.53-.85a4.57,4.57,0,0,0-3.15,2A4.91,4.91,0,0,0,47,77.23c1.61,1.63,3.29,1.63,6.77-.19a9.22,9.22,0,0,1-3.17,6.11c-3.27,2.94-7.23,3.63-11.4,3C31,85,27.46,79,27.55,72.6a15.38,15.38,0,0,1,2.54-9.07c.77-1.1,0-1-.63-1.19a27.72,27.72,0,0,1,13.78.38A22.3,22.3,0,0,1,52,67.08C51.88,67.38,52.24,67.45,52.29,67.68Z"/><path class="cls-15" d="M52.29,67.68c-.34-.07-.69-.14-.33-.6.16.19.33.37.5.56Z"/><path class="cls-1" d="M57.28,73.8c-.26.09-.41,0-.45-.26C57,73.54,57.23,73.54,57.28,73.8Z"/><path class="cls-14" d="M110.28,84.69A14.48,14.48,0,0,1,96,84.33c-2.79-1.57-4.28-4.12-4.92-7.67.75.51,1.23.88,1.75,1.19A4,4,0,0,0,98,77.12a4.46,4.46,0,0,0,.77-5.46,4,4,0,0,0-4.8-2,6.36,6.36,0,0,1-1.47.41c-.42,0-.33-.51-.33-.84a5.39,5.39,0,0,1,1-2.23,25,25,0,0,1,17-5.15C108.85,69.64,108.26,77.18,110.28,84.69Z"/><path class="cls-16" d="M124.22,65.66c1,.74,1.6,1.12,2.13,1.54a6.67,6.67,0,0,1,2.09,8.71,19,19,0,0,1-2.94,4.36C123.84,75.42,123.87,70.81,124.22,65.66Z"/><path class="cls-17" d="M93.12,67a3.36,3.36,0,0,1-1,2.23l-.65-.58A3.82,3.82,0,0,1,93.12,67Z"/><path class="cls-14" d="M110.66,85.11c-.23,0-.42-.14-.39-.43C110.6,84.65,110.71,84.8,110.66,85.11Z"/><path class="cls-1" d="M88.28,73.37c0,.26-.15.38-.41.33C87.87,73.43,88,73.34,88.28,73.37Z"/></g></g></svg>