<svg xmlns="http://www.w3.org/2000/svg" viewBox="0 0 145.28 145.12"><defs><style>.cls-1{fill:#ffdfbf;}.cls-2{fill:#232b32;}.cls-3{fill:#444d50;}.cls-4{fill:#fff;}.cls-5{fill:#f3533a;}.cls-6{fill:#f3543b;}.cls-7{fill:#f45c43;}.cls-8{fill:#f4583f;}.cls-9{fill:#f67359;}.cls-10{fill:#f56e53;}.cls-11{fill:#f67358;}.cls-12{fill:#797b76;}.cls-13{fill:#f9977b;}.cls-14{fill:#f89276;}.cls-15{fill:#5a6160;}.cls-16{fill:#888683;}.cls-17{fill:#c0b59e;}.cls-18{fill:#fa9f43;}</style></defs><title>Azula</title><g id="Layer_2" data-name="Layer 2"><g id="Layer_1-2" data-name="Layer 1"><path class="cls-1" d="M119.53,128a70.2,70.2,0,0,1-14.62,9.61,71.58,71.58,0,0,1-22.59,6.87,84.39,84.39,0,0,1-17.25.3,69.14,69.14,0,0,1-21.37-5.57c-6.15-2.6-11.62-6.28-17-10.16-3.41-11.76-6.59-23.58-8.3-35.74a155.62,155.62,0,0,1-1.83-25.23c0-1.32-.37-3.25,1.33-3.5,1.44-.22,1.68,1.71,2.13,2.83,1.07,2.65,2.67,5,3.85,7.61a6.07,6.07,0,0,0,1.69,2.14,31,31,0,0,0,7.1,10.35,16.82,16.82,0,0,0,27-4.73,35.68,35.68,0,0,0,1.87-5.09,2.66,2.66,0,0,0,.36-2.54c-1.43-6.41-4.25-11.89-10.31-15.12-2.8-1.5-4.09-.52-4,2.74.06,1.49,1.28,2.94.22,4.48a6.79,6.79,0,0,1-5.29-1.71c-.52-1.57.59-2.82.85-4.23.62-3.28-.13-4.2-3.42-3.87a34.63,34.63,0,0,0-14.91,4.85,21.26,21.26,0,0,1-5.16.3c-2.41.06-3-.46-2.68-2.84.32-2.57.51-5.15,1-7.71A116.5,116.5,0,0,1,25,28.19c1.51-3.7,2.11-3.94,5.84-2.59,8,2.92,15.9,6.29,23.72,9.75A139.88,139.88,0,0,0,71.4,41.23,8.18,8.18,0,0,0,76,41c7.81-2,15.16-5.3,22.52-8.52,5.69-2.5,11.45-4.86,17.3-7,3.3-1.2,4.35-.84,5.63,2.38a107.4,107.4,0,0,1,7.78,32.37c.14,1.89-.25,2.82-2.35,2.47-1.87-.31-3.8.15-5.66-.41a33,33,0,0,0-15.07-4.84c-3.23-.28-3.83.49-3.18,3.68.31,1.5,1.41,2.79,1.18,4.43a7,7,0,0,1-5.66,1.76c-.93-1.17.13-2.28.12-3.42,0-1.59.67-3.53-1-4.49-1.43-.82-2.78.48-3.95,1.27a20,20,0,0,0-8.74,14c-.11,1-.87,2,.22,3a18.38,18.38,0,0,0,9.4,12.93c5.36,3.07,14.42,2.19,19.43-2.89a31.2,31.2,0,0,0,6.93-10.5c.34-.32,1.06-.19,1.1-.89.27-.48.6-.92.84-1.41,1.75-2.8,2.91-5.91,4.52-8.79a4.7,4.7,0,0,1,1-1.15.78.78,0,0,1,.77.18,2.44,2.44,0,0,1,.37.78,119.7,119.7,0,0,1-.92,24.23,218.24,218.24,0,0,1-7.91,35.54C120.22,126.41,119.91,127.24,119.53,128Z"/><path class="cls-2" d="M84.69,77.59c-1.07,0-1.59-.32-1-1.43.2-.36.39-.72.59-1.07.85-1.74,2.5-2.62,4.05-3.51,3.19-1.85,6.27-4,10.09-4.45l5.43-1.74a2,2,0,0,1,1-.83c5.39-1.49,10.74-3.22,16.46-2.64,2.4,0,4.8-.25,7.34.26A105.4,105.4,0,0,0,123.93,37a74.36,74.36,0,0,0-3.59-9.71c-1.06-2.23-1.12-2.21-3.51-1.36C108.29,29,100,32.55,91.7,36.25a141.69,141.69,0,0,1-16.86,5.83,5.5,5.5,0,0,1-3.31,0,147,147,0,0,1-18.05-6.36C45.7,32.18,37.84,28.83,29.78,26c-2.6-.92-2.61-1-3.8,1.64a91.4,91.4,0,0,0-4.84,14.2,107.29,107.29,0,0,0-3.27,18.85c0,.42,0,.85,0,1.53A33.07,33.07,0,0,1,25,61.93c5.61-.53,10.88,1.12,16.2,2.47a3.4,3.4,0,0,1,1.46,1l5.19,1.69c3.68.49,6.85,2.24,9.86,4.24,1.68,1.11,3.79,1.81,4.58,4,.21.81,1.7,1.79-.3,2.31-2.35.3-4.1-1.31-6.14-2a21.47,21.47,0,0,1-2.51-1.22,64.51,64.51,0,0,0-8.54-3.69c-6-2-12.06-3.69-18.41-4-2.55-.12-2.86.29-2.52,2.82a42.35,42.35,0,0,1,.73,5.12c-.15.53-.16,1.18-1,1.11A74.63,74.63,0,0,1,18,64.59a5.77,5.77,0,0,0-.6,3.42c-.34,15.59,2.16,30.82,5.92,45.88,1.09,4.35,2.4,8.65,3.55,13,.19.7,1.08,1.57-.15,2.21A77.29,77.29,0,0,1,9.71,109,72.67,72.67,0,0,1,56.35,1.87c38.05-8.65,74.74,13.5,85.37,49.05,8.61,28.81,1.52,54.06-20,75.15a9.77,9.77,0,0,1-1,.79c-1,0-1-.47-.65-1.15,1.41-5.78,3.16-11.47,4.44-17.28,2.91-13.27,4.93-26.64,4.51-40.28,0-1-.12-2.07-.17-3.1a1.8,1.8,0,0,1-.22-.64.65.65,0,0,1-.23.61h0c-.31.28-.2.76-.49,1a74.33,74.33,0,0,1-4.78,9.26c-.81.06-.86-.59-1-1.11-.25-1.75.35-3.43.43-5.15s-.46-2.48-2.34-2.33A80.34,80.34,0,0,0,103,70.36c-.49.16-1,.34-1.48.49-3,.88-5.69,2.52-8.58,3.68C90.12,75.45,87.8,77.57,84.69,77.59Z"/><path class="cls-3" d="M120.05,125.71c.1.45.15.93.65,1.15a2.89,2.89,0,0,1-1.17,1.18A2.71,2.71,0,0,1,120.05,125.71Z"/><path class="cls-4" d="M53.72,74,62,77.66c-1.2,6.91-5,11.85-11.57,14.26-6.79,2.49-13,1.31-18.23-3.9a37.45,37.45,0,0,1-4.95-5.92c-1-1.45-1.32-3.12-2.14-4.6a2.81,2.81,0,0,1-.43-.75,8.16,8.16,0,0,1-.36-.8,1.87,1.87,0,0,0-.24-1.11c-.34-2.38-1.05-4.71-1-7.16,0-1.86,0-1.93,1.84-1.82a67.29,67.29,0,0,1,20.62,4.55,16.89,16.89,0,0,1,1,6.3,13.51,13.51,0,0,0,.8,5.05c.4,1,.77,2.3,2.07,2.38s2-1.2,2.47-2.28a12.74,12.74,0,0,0,1.06-5C53,75.87,52.77,74.77,53.72,74Z"/><path class="cls-4" d="M100.8,70.49c4.52-2,9.34-3,14.16-3.9a39.16,39.16,0,0,1,8.09-.75c.74,2.85-.18,5.61-.47,8.4-.29.54,0,1.17-.26,1.72-.39.24-.3.9-.86,1-1.33,4.49-4,8.08-7.26,11.36-4.83,4.89-14.08,6.11-19.59,3-4.6-2.58-7.91-5.91-9.48-11a16.85,16.85,0,0,1-.44-2.79l8-3.55c1,1.69.73,3.67,1.23,5.47S94.65,84,97,84s2.25-2.64,2.67-4.41a23.87,23.87,0,0,0,.57-6.14A4.29,4.29,0,0,1,100.8,70.49Z"/><path class="cls-2" d="M33.24,41.82c3.26-1.13,6.6-.54,9.85,0a43.06,43.06,0,0,1,21,9.48,14.39,14.39,0,0,1,4,4.41c.73,1.39,1,2.78,0,4.14a3.81,3.81,0,0,1-4.15,1.44,15.39,15.39,0,0,1-6.08-2.75q-5.52-4.08-11.06-8.13a76.86,76.86,0,0,0-13-7.91A.65.65,0,0,1,33.24,41.82Z"/><path class="cls-2" d="M113.17,41.84c-.1.21-.14.43-.25.48-8.15,3.93-15.23,9.48-22.42,14.85a22,22,0,0,1-5.74,3.46,9.83,9.83,0,0,1-3,.73,3.53,3.53,0,0,1-3.56-5.08,9.46,9.46,0,0,1,2.38-3.36,42.85,42.85,0,0,1,24.49-11.33C107.75,41.27,110.48,40.84,113.17,41.84Z"/><path class="cls-5" d="M73.26,125.77a7.83,7.83,0,0,1-3.79-.69c-4.48-1.6-8.78-3.61-13.09-5.6-.64-.3-1.37-.61-1-1.49s1.12-.64,1.81-.55a1.16,1.16,0,0,1,.5.14c2.45,1.85,5.17,2,8.11,1.58a8.46,8.46,0,0,1,5,1.23,4.87,4.87,0,0,0,4.91,0,10.4,10.4,0,0,1,7-1.11,6.57,6.57,0,0,0,4.92-1.1,3.69,3.69,0,0,1,2.65-.83,1.06,1.06,0,0,1,.94.76.87.87,0,0,1-.43.89,12.21,12.21,0,0,1-1.13.6c-4.11,2-8.32,3.82-12.6,5.44A7.56,7.56,0,0,1,73.26,125.77Z"/><path class="cls-5" d="M98.46,67.13a5.6,5.6,0,0,1-.86.54,53.29,53.29,0,0,0-13.28,7.42,5.16,5.16,0,0,1-.08-.77c.31-6.06,6.57-14.11,12.36-15.91,1.36-.42,1.76-.24,2.31,1.19a8.87,8.87,0,0,1,.22,5.32C99,65.67,98.68,66.39,98.46,67.13Z"/><path class="cls-5" d="M62.31,75.35a45.43,45.43,0,0,0-12.14-7.16,6.08,6.08,0,0,1-2.3-1.08c-.23-1-.43-2-.71-3a6,6,0,0,1-.18-2.3c.44-3.83,1.35-4.37,4.73-2.51C58,62.78,61.47,68.23,62.31,75.35Z"/><path class="cls-6" d="M121.32,61.92c-1.51.82-3.2.46-4.81.72-4.26.68-8.43,1.75-12.62,2.75A13.28,13.28,0,0,1,102,58.5c0-1,.46-1.63,1.55-1.64C110,56.81,116.06,57.89,121.32,61.92Z"/><path class="cls-6" d="M42.68,65.43c-5.5-1.36-11-2.83-16.69-3.16a3.31,3.31,0,0,1-1-.34c5.21-3.9,11.21-5.08,17.55-5.09,1.32,0,1.74.61,1.83,1.9C44.57,61.19,43.55,63.28,42.68,65.43Z"/><path class="cls-7" d="M84.24,102.93c1.79,3.14,1.46,4.9-1.53,8.29-.49.13-.69,0-.55-.55.55-.86,1.12-1.72,1.66-2.6a1.47,1.47,0,0,0,.12-1.52c-2.74.54-4.72,2.68-7.58,4.13,1.6-3.23,3.68-5.11,6.73-5.71,1.21-.23.73-.85.61-1.47S83.78,102.85,84.24,102.93Z"/><path class="cls-8" d="M62.62,104.92c3.54.27,5.63,2.48,7.2,5.4-2.54-1.08-4.51-3.24-7.32-3.76-.5.18-.06,1.33-1,1a3.4,3.4,0,0,1,0-3.09C62,104.14,62.22,104.8,62.62,104.92Z"/><path class="cls-9" d="M61.45,107.57l1-1c-.25,1.33.57,2.27,1.26,3.23a30,30,0,0,1,1.87,2.69C63.62,111.38,62,110,61.45,107.57Z"/><path class="cls-10" d="M62.62,104.92l-1.17-.44c.31-1.72,1.69-2.79,2.56-4.18.49-.1.75,0,.59.59C64.11,102.31,62.52,103.2,62.62,104.92Z"/><path class="cls-11" d="M84.24,102.93l-.54.57a10.8,10.8,0,0,1-2.35-3.85C82.83,100.3,83.45,101.7,84.24,102.93Z"/><path class="cls-12" d="M24.09,74.84,24.71,76a1.91,1.91,0,0,1,.23.6l.18.94a2.22,2.22,0,0,1-1.48-1.68C24,75.6,23.91,75.15,24.09,74.84Z"/><path class="cls-13" d="M64.6,100.89,64,100.3a2.28,2.28,0,0,1,1.31-1.23C65.59,99.92,65.05,100.39,64.6,100.89Z"/><path class="cls-14" d="M82.16,110.67l.55.55a1.84,1.84,0,0,1-1.49,1.12l-.17-.17A2,2,0,0,1,82.16,110.67Z"/><path class="cls-15" d="M122,75.76c.09-.54.07-1.12.55-1.52.18.36.11.84.53,1.09a2.23,2.23,0,0,1-.9,1.34A.78.78,0,0,1,122,75.76Z"/><path class="cls-16" d="M122,75.76l.18.91c-.07.57-.26.83-.75.29Z"/><path class="cls-17" d="M128.38,65c0-.28-.12-.66.36-.64a3.53,3.53,0,0,1,.09.67h-.23Z"/><path class="cls-17" d="M127.89,66.07a.89.89,0,0,1,.49-1A.93.93,0,0,1,127.89,66.07Z"/><path class="cls-14" d="M81.22,112.34l-.35.19.18-.36Z"/><path class="cls-18" d="M53.72,74a23.07,23.07,0,0,1-.62,6.67,8.61,8.61,0,0,1-1.87,3.64c-1.3,1.37-2.57,1.27-3.64-.29A9.64,9.64,0,0,1,46,79.42c-.29-3-.34-6-.49-9A40.76,40.76,0,0,1,53.72,74Z"/><path class="cls-18" d="M100.8,70.49a41.19,41.19,0,0,1-.51,9.73,9.43,9.43,0,0,1-1.43,3.83c-1.06,1.52-2.37,1.61-3.63.25a8.36,8.36,0,0,1-2-4.38A22.35,22.35,0,0,1,92.65,74,40.41,40.41,0,0,1,100.8,70.49Z"/><path class="cls-1" d="M24.94,76.56a.53.53,0,0,1-.24-.6A.5.5,0,0,1,24.94,76.56Z"/></g></g></svg>