<svg xmlns="http://www.w3.org/2000/svg" viewBox="0 0 145.16 145.18"><defs><style>.cls-1{fill:#f0c4af;}.cls-2{fill:#232b32;}.cls-3{fill:#57585c;}.cls-4{fill:#707070;}.cls-5{fill:#8f8b87;}.cls-6{fill:#fff;}.cls-7{fill:#242b32;}.cls-8{fill:#f3543b;}.cls-9{fill:#f3573e;}.cls-10{fill:#f3563d;}.cls-11{fill:#f26a52;}.cls-12{fill:#f27159;}.cls-13{fill:#f1957e;}.cls-14{fill:#f27962;}.cls-15{fill:#6e6d68;}.cls-16{fill:#f17961;}.cls-17{fill:#bad879;}.cls-18{fill:#d8e7d2;}.cls-19{fill:#c9eedd;}.cls-20{fill:#d6e8d0;}.cls-21{fill:#c4f5ed;}</style></defs><title>Bolin</title><g id="Layer_2" data-name="Layer 2"><g id="Layer_1-2" data-name="Layer 1"><path class="cls-1" d="M142.89,54.88a27.28,27.28,0,0,1,1.48,6.73,74.29,74.29,0,0,1,.53,17.31,68.59,68.59,0,0,1-5,20.79,72.26,72.26,0,0,1-42,40.86,77.62,77.62,0,0,1-18.32,4.21A71.18,71.18,0,0,1,43.31,139a70.28,70.28,0,0,1-24.26-17.32A71.74,71.74,0,0,1,4.55,98a67,67,0,0,1-4.24-18A78.54,78.54,0,0,1,.54,63.65,86.64,86.64,0,0,1,2.6,52.79c.89-.27.6-1.3,1.15-1.79,4.41-7,10.09-12.91,16.19-18.43A96.62,96.62,0,0,1,29.16,25a2.75,2.75,0,0,0,1.14-2.68c-.24-6.07,1.55-8.66,7.37-10.52a23.94,23.94,0,0,1,14.27-.26C57.49,13.15,63,15.15,68.7,16c2,.31,4,.17,6,.3,1.25.07,2.43.44,1.86,2-2.73,7.55-5.23,15.2-9.81,21.91-.12.23-.54.28-.4.68a6.64,6.64,0,0,1,.55-.73C73.43,35.92,79,30.54,84.46,25a29,29,0,0,0,7-10.78A4.32,4.32,0,0,1,95.15,11c5.93-1,11.52-.29,16.64,3.13a5.87,5.87,0,0,1,2.66,5.82c-.3,3,.85,4.85,3.28,6.67a120.24,120.24,0,0,1,21,20.71,27.32,27.32,0,0,1,2.34,3.43,11.18,11.18,0,0,1,1,2.28C142.4,53.63,142.59,54.27,142.89,54.88Z"/><path class="cls-2" d="M140.8,51.26a114.72,114.72,0,0,0-25.86-25.9A2.29,2.29,0,0,1,113.81,23c.11-.94,0-1.9.07-2.85.15-3.12-1.27-5.18-4-6.57a22.9,22.9,0,0,0-15.35-1.78,2.67,2.67,0,0,0-2.26,2.11,22.58,22.58,0,0,1-4.67,8.57C81.43,29.59,74.72,36,66.68,40.94a.48.48,0,0,1-.69-.08,142.52,142.52,0,0,0,9.28-20.78A7.83,7.83,0,0,0,76.14,17c-2.57-.17-5.14.19-7.7-.29-5.88-1.09-11.5-3.1-17.25-4.66A23.25,23.25,0,0,0,36,13.12c-3.73,1.5-5.54,4.25-5,8.09.41,2.73-.82,3.9-2.73,5.35A110.69,110.69,0,0,0,3.82,51.77c-.49.11-.76,0-.57-.56A70.5,70.5,0,0,1,28.39,15,70.16,70.16,0,0,1,72.72,0c20.58.18,38.19,7.78,52.52,22.68a70.59,70.59,0,0,1,15.9,26.13,10.37,10.37,0,0,1,.31,1.25C141.57,50.64,141.85,51.31,140.8,51.26Z"/><path class="cls-3" d="M140.8,51.26c.55-.22.5-.76.65-1.2a7.37,7.37,0,0,1,1.08,3.25.42.42,0,0,1-.67,0Z"/><path class="cls-4" d="M3.25,51.21l.57.56c-.32.45-.12,1.52-1.22,1A2.65,2.65,0,0,1,3.25,51.21Z"/><path class="cls-5" d="M141.86,53.33l.67,0c.55.42.38,1,.36,1.57A3.09,3.09,0,0,1,141.86,53.33Z"/><path class="cls-2" d="M13.65,51.6A56.62,56.62,0,0,1,24.36,37.82a8.8,8.8,0,0,1,5.39-2.24,38.49,38.49,0,0,1,9.29.36A69.9,69.9,0,0,0,54.25,37a3,3,0,0,1,3,1.43A44.66,44.66,0,0,1,62.71,49,4.59,4.59,0,0,1,63,51c-.78.54-1.51.1-2.23-.09a101.4,101.4,0,0,0-19.87-3.28c-7.87-.45-15.45,1.2-23,3.33-1.31.37-2.64.69-4,1Z"/><path class="cls-2" d="M81.79,51.53a9.27,9.27,0,0,1,.9-3.93c.78-2.11,2-4,2.91-6.06,1.6-3.4,3.78-5,7.83-4.54s8.43-.45,12.61-1.09a37.11,37.11,0,0,1,9.3-.31,8.51,8.51,0,0,1,4.94,2,51.92,51.92,0,0,1,10.66,13.59c.06.11,0,.31-.1.74-8-2-15.94-4.49-24.32-4.36S90.1,49.36,81.79,51.53Z"/><path class="cls-6" d="M58.35,73.09q.65,3.16,1.28,6.31a17.7,17.7,0,0,1,.12,5.94c-.42,3.2-2.59,5-6.33,5.34a54.72,54.72,0,0,1-25.76-4,31.79,31.79,0,0,1-4.52-2.51,3.89,3.89,0,0,1-1.8-2.7,25.81,25.81,0,0,0-1.59-6c-1.16-2.29-.14-4.26,1.17-5.94,3.52-4.53,8.34-6.64,14-7,.55.13,1,.31,1.22.94-.12.93-.85,1.47-1.41,2.11C31,69.92,31.14,74.77,33.3,79.48s5.91,7.57,11.44,7.42a11.12,11.12,0,0,0,8.61-4.46A5.13,5.13,0,0,1,48.7,80.6a5.83,5.83,0,0,1-1.59-4.76,5.51,5.51,0,0,1,6.72-4.79c.66.12,1.29.6,2,.11a1.61,1.61,0,0,1,1-.44C58,71.08,58.25,72,58.35,73.09Z"/><path class="cls-6" d="M124.84,73.07a51.83,51.83,0,0,1-1.07,7.64A5.8,5.8,0,0,1,120.52,85a45.71,45.71,0,0,1-12.84,4.63,83.3,83.3,0,0,1-9.45,1.2,30.64,30.64,0,0,1-7.91-.49c-4.8-.69-5.42-3.78-5.38-7.73A37.77,37.77,0,0,1,86.75,73a2.39,2.39,0,0,1,1.67-2.82,1,1,0,0,1,.85.68c.13.61.36.76,1.07.56,3.69-1,6.51.34,7.34,3.5a6.24,6.24,0,0,1-4.6,7.5c-.32.09-.69.08-.87.45,2,3,6.64,4.77,10.73,3.8a12.25,12.25,0,0,0,9.33-8.81c1.46-4.7,1-9-2.58-12.72-.58-.59-1.44-1.08-1-2.15a2.56,2.56,0,0,1,1.51-.5c5.6.6,10.49,2.62,14,7.26C124.87,70.73,125.66,71.77,124.84,73.07Z"/><path class="cls-7" d="M124.84,73.07a9.35,9.35,0,0,0-3.93-5.77,21.4,21.4,0,0,0-10.57-4.16c-.92-.51-1.8-.08-2.69.14a25,25,0,0,0-17,5.66,6.24,6.24,0,0,1-2.18,1.51A9.55,9.55,0,0,0,86.75,73c-1.92-1.12-2.38-2.13-1.67-3.93a12.34,12.34,0,0,1,2.55-3.87,22.12,22.12,0,0,1,15.74-7.37,32.2,32.2,0,0,1,22.34,7.34,18.11,18.11,0,0,1,4,4.36c1,1.51.83,2.45-.44,3.69a10.17,10.17,0,0,1-3.67,2.27C124.89,74.78,125.58,73.71,124.84,73.07Z"/><path class="cls-2" d="M34.75,63.1a21.94,21.94,0,0,0-10,3.67c-3.1,2.08-5.08,4.84-5,8.75a7.41,7.41,0,0,1-4.2-2.35,2.48,2.48,0,0,1-.44-3.49A7.89,7.89,0,0,1,16.33,68c8.24-8.57,18.27-11.8,29.87-9.43A19.64,19.64,0,0,1,59.27,68c1.36,2.24,1.08,3.44-.92,5.08l-1.56-2.16c-1.23-.46-1.69-1.77-2.75-2.42a24.75,24.75,0,0,0-16.52-5.16C36.58,63.43,35.73,62.62,34.75,63.1Z"/><path class="cls-8" d="M90.73,125a20.64,20.64,0,0,1-5.37-.8,51.83,51.83,0,0,0-25.86,0,20.25,20.25,0,0,1-6.66.79c-2-.17-3.69-.87-4.58-2.84a2.16,2.16,0,0,1,.68-3,1.88,1.88,0,0,1,2.87.74c1.06,2.38,3,2.56,5.15,2.6a107.34,107.34,0,0,0,11.62-.84,66.88,66.88,0,0,1,12.66.43c2.5.24,5,.35,7.49.37,1.81,0,3.35-.36,4.2-2.32A1.92,1.92,0,0,1,95.71,119a2.26,2.26,0,0,1,.9,3.12,4.08,4.08,0,0,1-2.81,2.46A13.39,13.39,0,0,1,90.73,125Z"/><path class="cls-9" d="M62,99.05c-.33,1.14-.73,2.28-1,3.44a1.78,1.78,0,0,0,1.32,2.37,9,9,0,0,1,5.34,4.52c.21.54,0,.62-.48.45a10.51,10.51,0,0,0-4.55-3.17c-1.63-.57-2.4.06-2.32,1.8a4.94,4.94,0,0,0,.63,1.92c.19.55,0,.67-.54.54-2.93-2.81-2.59-6-1.13-9.36a7.77,7.77,0,0,1,2.1-3.13C61.88,98.32,62.13,98.48,62,99.05Z"/><path class="cls-10" d="M84.75,108.82c-.41-2.47-.92-2.84-3-2a21.12,21.12,0,0,0-2.59,1.52c-.53.12-.74-.08-.62-.62a7.12,7.12,0,0,1,4.12-2.92c1.2-.37,1.29-1,1.24-2.08-.07-1.84-1.09-3.34-1.69-5.23,4.32,2.9,5.71,8.74,3.13,12.37C84.39,109.9,84.45,109.42,84.75,108.82Z"/><path class="cls-11" d="M84.75,108.82a1.21,1.21,0,0,0,.54,1.08A4.92,4.92,0,0,1,83.21,112a.4.4,0,0,1-.18-.4c0-.14.08-.21.13-.21Z"/><path class="cls-12" d="M78.49,107.76l.62.62a5.86,5.86,0,0,1-2,1.88A2.87,2.87,0,0,1,78.49,107.76Z"/><path class="cls-12" d="M62,99.05l-.62-.62a3.66,3.66,0,0,1,1.9-1.6A4.17,4.17,0,0,1,62,99.05Z"/><path class="cls-13" d="M67.17,109.83l.48-.45a2,2,0,0,1,.85,1.81A2.11,2.11,0,0,1,67.17,109.83Z"/><path class="cls-13" d="M83.16,111.42c0,.2,0,.41,0,.61-.2.5-.58.75-1.37,1A2.82,2.82,0,0,1,83.16,111.42Z"/><path class="cls-14" d="M60.39,110.92l.54-.54A3,3,0,0,1,62,112l0,0A1.55,1.55,0,0,1,60.39,110.92Z"/><path class="cls-15" d="M66,40.86l.69.08c-.13.32-.38.5-.7.38S65.74,41,66,40.86Z"/><path class="cls-16" d="M62,112l.24.26c-.06,0-.14,0-.17,0a.5.5,0,0,1-.09-.21Z"/><path class="cls-17" d="M37.55,62.68c6.49-.53,12.09,1.67,17.1,5.64a7.25,7.25,0,0,1,1.51,3.19c0,.34.05.69.09,1.37-2.66-1.63-5.22-2.21-7.39.36a5,5,0,0,0-.57,5.8c1.13,2.27,2.79,3,6.35,2.7a11.63,11.63,0,0,1-9.5,5.85C38,88.2,31.88,82.09,31.31,75c-.38-4.6.7-8.58,4.69-11.36C36.25,62.91,37.06,63.05,37.55,62.68Z"/><path class="cls-18" d="M56.16,71.51a7.2,7.2,0,0,1-1.51-3.19,5.69,5.69,0,0,1,2.14,2.61Z"/><path class="cls-19" d="M37.55,62.68a3.22,3.22,0,0,1-1.55,1c-.3-.45-.82-.39-1.24-.56A4.16,4.16,0,0,1,37.55,62.68Z"/><path class="cls-17" d="M90,68.6c1.45-2,3.74-2.75,5.83-3.68,3.72-1.66,7.58-3,11.78-2.24.25.29.75.13.93.53a11.4,11.4,0,0,1,5.11,8.61c.43,5.5-1.22,10.31-5.91,13.54-4.47,3.08-9.2,3.08-13.87.24a7.31,7.31,0,0,1-3.27-3.51c4.41-.54,5.93-1.57,6.58-4.36a5.17,5.17,0,0,0-2.09-5.46c-2.35-1.51-4.42-.76-6.33,1-.55-.89.27-1.54.24-2.28C89.08,70.09,89.72,69.43,90,68.6Z"/><path class="cls-20" d="M90,68.6A3.07,3.07,0,0,1,89,71l-.53-.52A3.9,3.9,0,0,1,90,68.6Z"/><path class="cls-21" d="M108.5,63.21a1,1,0,0,1-.93-.53,4.37,4.37,0,0,1,2.77.46Z"/></g></g></svg>