<svg xmlns="http://www.w3.org/2000/svg" viewBox="0 0 145.34 145.27"><defs><style>.cls-1{fill:#c68b71;}.cls-2{fill:#fff2e2;}.cls-3{fill:#fff;}.cls-4{fill:#f0563d;}.cls-5{fill:#f1563d;}.cls-6{fill:#e2af98;}.cls-7{fill:#bad879;}</style></defs><title>Bumi</title><g id="Layer_2" data-name="Layer 2"><g id="Layer_1-2" data-name="Layer 1"><path class="cls-1" d="M55.45,143.12a70.24,70.24,0,0,1-31.26-16.44,97.15,97.15,0,0,1-8.61-9c-.68-1.19.09-2.15.52-3.15a62,62,0,0,0,3-8.81,5.94,5.94,0,0,0-1.78-6.3c-5.24-5.16-9-11.14-9.79-18.69-.75-6.72.2-13.26,1.58-19.78,1.8-8.6,5.27-16.64,8.24-24.85C18.94,31.85,21,27.7,21.18,23c0-1,.82-1.87,1.16-2.83A77.81,77.81,0,0,1,38.25,8.67,73,73,0,0,1,61.45.91a71.71,71.71,0,0,1,41.43,5.72,70.81,70.81,0,0,1,18,11.67l1.56,1.36c1,1.6.72,3.49,1.09,5.24,1.27,6,3.72,11.69,6,17.39A117.93,117.93,0,0,1,137,70.75c1.41,11.33-2,21-10,29a5.77,5.77,0,0,0-1.71,6,58.7,58.7,0,0,0,3.34,9.25c.44,1,1.16,2,.54,3.16A76.21,76.21,0,0,1,105,137.66a84.09,84.09,0,0,1-15.24,5.6.49.49,0,0,1-.51,0h0c-2.18-.9-2.81-3.2-4.17-4.83a4.32,4.32,0,0,0-4.73-1.72,33.38,33.38,0,0,1-15.68,0c-2.4-.63-3.93.2-5.38,2C58,140.15,57.42,142.22,55.45,143.12Z"/><path class="cls-2" d="M129.24,118.25c-1.16-3.25-2.87-6.27-3.82-9.61-.38-1.32-.59-2.7-1-4-.67-2.2.26-3.48,1.7-5,3.94-4,7.36-8.47,9.07-14a37.48,37.48,0,0,0,1.06-15.12c-1.14-11.29-5-21.79-9.07-32.27-1.71-4.42-3.59-8.78-4.45-13.49-.32-1.72-.13-3.45-.34-5.16a88.14,88.14,0,0,1,10.89,13,74,74,0,0,1,10.25,24.11,62.39,62.39,0,0,1,1.37,9.41,57.65,57.65,0,0,1,.38,8.5,79.6,79.6,0,0,1-2.58,17,78.09,78.09,0,0,1-5.15,13.5A90.28,90.28,0,0,1,129.24,118.25Z"/><path class="cls-2" d="M22.34,20.16c-.65,9.49-5.09,17.83-8.17,26.57-3,8.48-5.42,17.05-6,26.1-.4,6.16.15,12.06,3.14,17.53a33.89,33.89,0,0,0,7.26,9.38c1.79,1.56,1.93,3.29,1.49,5.34a49.44,49.44,0,0,1-3.54,10.24,7.49,7.49,0,0,0-.93,2.4A78.09,78.09,0,0,1,3.32,94.25,74.64,74.64,0,0,1,.41,79.62,81.38,81.38,0,0,1,0,71.37,69.66,69.66,0,0,1,2.21,54.8,66.73,66.73,0,0,1,7.48,40.52a70.26,70.26,0,0,1,13-18.27C21.12,21.59,21.71,20.86,22.34,20.16Z"/><path class="cls-2" d="M55.45,143.12a33.23,33.23,0,0,1,4.91-6.65,2.6,2.6,0,0,1,2.75-.75,39,39,0,0,0,18.2.05,3.09,3.09,0,0,1,3.37,1.14,58.45,58.45,0,0,1,4.55,6.29c-2.34.93-4.85,1-7.28,1.46a56.45,56.45,0,0,1-11,.59A74.08,74.08,0,0,1,55.45,143.12Z"/><path class="cls-2" d="M89.26,143.21l.51,0C89.58,143.51,89.41,143.47,89.26,143.21Z"/><path class="cls-3" d="M86.19,71.22a20.48,20.48,0,0,1,20.51-20.4c9.59,0,20.11,7.14,20.24,20.37a19.92,19.92,0,0,1-20.21,20.36C93.65,91.57,86.26,81.17,86.19,71.22Z"/><path class="cls-3" d="M58.24,71.33a20.08,20.08,0,0,1-20.3,20.23,20.15,20.15,0,0,1-20.33-20.5,20.32,20.32,0,1,1,40.63.27Z"/><path class="cls-3" d="M52.52,104.65a4.62,4.62,0,0,1,2.76.19,56.38,56.38,0,0,0,13.88,1.47c2.79,0,2.49,0,2.43,2.58-.14,6.74-.25,13.48-.4,20.22,0,1.8-.06,1.79-1.9,1.72A29.08,29.08,0,0,1,59,128.31a2.83,2.83,0,0,1-1.81-2C55.41,119.19,53.69,112.06,52.52,104.65Z"/><path class="cls-3" d="M91.72,104.69c.53,1.51-.2,3-.48,4.47-1,5.6-2.42,11.13-3.8,16.65a3.48,3.48,0,0,1-2.39,2.7,28.2,28.2,0,0,1-9.77,2.31c-2,0-2,0-2-2-.07-5.62-.08-11.24-.13-16.86a31.48,31.48,0,0,0-.22-4.13c-.18-1.2.23-1.55,1.34-1.54a76.08,76.08,0,0,0,8.8-.36c2.6-.27,5.09-1,7.64-1.37A1.15,1.15,0,0,1,91.72,104.69Z"/><path class="cls-2" d="M114.57,31.06c1.33,1.22,2.73,2.39,4,3.69.86.9,1.74,1.92,1.24,3.35a3,3,0,0,1-2.08-.48,29.77,29.77,0,0,0-11.26-2.71,30.11,30.11,0,0,0-13.1,2.62,30.43,30.43,0,0,0-8.09,5.07c-.44.39-.84,1-1.51.75s-.62-1-.67-1.58c-.32-4,1.55-7.18,3.87-10.16a16.74,16.74,0,0,1,10.89-6.4c4.58-.75,9.1-.87,13.55.65a10.48,10.48,0,0,1,5.19,3.28c.76,1,.63,1.22-.8,1.86C115.37,30.88,115,30.45,114.57,31.06Z"/><path class="cls-2" d="M30.28,30.77c-.88-.51-2.06.95-2.6-.26s.74-1.8,1.46-2.45a13.84,13.84,0,0,1,8.06-3.19,32.08,32.08,0,0,1,12.32,1c6.62,1.87,12.55,10.38,11.81,15.48-.06.43,0,.87-.09,1.3-.12.84-.61,1-1.27.54a12.89,12.89,0,0,1-1.22-1,30.91,30.91,0,0,0-17.2-7.11c-5.23-.58-10.09.65-14.88,2.55-.64.26-1.42,1.15-2.06.27-.54-.72.14-1.49.57-2.1A22.93,22.93,0,0,1,29,32C29.44,31.58,30.08,31.41,30.28,30.77Z"/><path class="cls-3" d="M54.92,126a26.16,26.16,0,0,1-6.73-4.58,23.28,23.28,0,0,1-4.86-5.33,9.05,9.05,0,0,1-1.39-5.14c0-3.75,3-7.28,8.33-6.68.59.07,1,.33,1,.94C51.62,112.17,53.44,118.9,54.92,126Z"/><path class="cls-3" d="M89.89,125.82c-.28-1.45.3-2.67.59-3.89a122.15,122.15,0,0,0,2.81-16c.15-1.34.59-1.74,1.88-1.73,2.67,0,5,.74,6.39,3.14a7.51,7.51,0,0,1,.12,7.87,26.12,26.12,0,0,1-7.2,7.68A15.63,15.63,0,0,1,89.89,125.82Z"/><path class="cls-4" d="M63,99.16c-2.63-.69-4.76-2-4.8-4.91A8.7,8.7,0,0,1,61.31,87c.15,1.55-.52,2.58-.8,3.67-.57,2.24-.48,2.68,1.68,3.07a7.44,7.44,0,0,1,5.51,4.1c-1.22.08-2-.76-2.92-1.15A11.21,11.21,0,0,0,62,95.44c-.42-.06-.87-.06-1.09.43a.92.92,0,0,0,.15,1C61.66,97.64,62.36,98.39,63,99.16Z"/><path class="cls-5" d="M76.82,98a6.39,6.39,0,0,1,4.55-4.15c1-.28,2-.51,3.09-.79-.43-1.93-.85-3.74-1.27-5.6,1.44.48,2.68,2.51,3,4.51.51,3.54-.75,6.05-4.44,7.52.66-1.53,2-2.46,2.38-4.06-1.73-.43-3,.39-4.31,1.11-1,.54-1.79,1.37-3,1.43Z"/><path class="cls-6" d="M114.57,31.06c-.25-.07-.8-.14-.29-.45a1.19,1.19,0,0,1,1.5.39Z"/><path class="cls-5" d="M76.8,98c0,.07-.08.21-.1.2s-.12-.1.12-.17Z"/><path class="cls-7" d="M93.13,70.24c1.12,1.63,2.55,2.35,4.41,1.62A2.83,2.83,0,0,0,99.43,69c-.15-2.17-1.8-3.19-3.76-3.77,2.48-3.07,6.34-3.38,10-1.17,4.07,2.46,5.24,8.38,3.52,11.57-2,3.73-7.29,5.58-11.48,4A7.73,7.73,0,0,1,93.13,70.24Z"/><path class="cls-7" d="M49.34,65.47c-2.34.1-3.71,1.1-4.16,3.12a3,3,0,0,0,1.67,3.23c1.9.85,3.32,0,4.51-1.52a7.28,7.28,0,0,1-3.87,9c-3.89,2-9.26.64-11.58-2.82s-1.38-8.67,2.3-11.84C40.75,62.42,46.16,61.52,49.34,65.47Z"/></g></g></svg>