<svg xmlns="http://www.w3.org/2000/svg" viewBox="0 0 145.35 145.03"><defs><style>.cls-1{fill:#ffead5;}.cls-2{fill:#5acfc9;}.cls-3{fill:#fff;}.cls-4{fill:#242c32;}.cls-5{fill:#252c33;}.cls-6{fill:#f56148;}.cls-7{fill:#f56048;}.cls-8{fill:#f45d44;}.cls-9{fill:#f45d45;}.cls-10{fill:#f45b42;}.cls-11{fill:#f6725a;}.cls-12{fill:#f56249;}.cls-13{fill:#f5664e;}.cls-14{fill:#f67f67;}.cls-15{fill:#f78169;}.cls-16{fill:#f67058;}.cls-17{fill:#f67b63;}.cls-18{fill:#f7856d;}.cls-19{fill:#fbb9a3;}.cls-20{fill:#f78a73;}.cls-21{fill:#f77d64;}.cls-22{fill:#fcc7b1;}.cls-23{fill:#fbb8a2;}.cls-24{fill:#f99d86;}.cls-25{fill:#f88a73;}.cls-26{fill:#f9977f;}.cls-27{fill:#faa58e;}.cls-28{fill:#626060;}.cls-29{fill:#f9a28b;}.cls-30{fill:#f88e77;}.cls-31{fill:#fbbba4;}.cls-32{fill:#606463;}.cls-33{fill:#f99e86;}.cls-34{fill:#f78c74;}.cls-35{fill:#989d93;}.cls-36{fill:#918983;}.cls-37{fill:#5c4e4f;}.cls-38{fill:#8b7b76;}.cls-39{fill:#fa9882;}.cls-40{fill:#f9927b;}.cls-41{fill:#fba992;}.cls-42{fill:#faaa93;}.cls-43{fill:#fa9f42;}</style></defs><title>Gyatso</title><g id="Layer_2" data-name="Layer 2"><g id="Layer_1-2" data-name="Layer 1"><path class="cls-1" d="M43.07,126.19c-2.41,2.33-4.86,4.62-7.23,7a1.9,1.9,0,0,1-2.76.19c-2-1.37-4-2.65-5.89-4.2-2.24-1.88-4.46-3.79-6.52-5.89A76.29,76.29,0,0,1,9.78,108.9,73.73,73.73,0,0,1,1.91,89a78.5,78.5,0,0,1-1.47-9.4,57.83,57.83,0,0,1-.43-8A73.88,73.88,0,0,1,5,46.2a71.55,71.55,0,0,1,10.88-19A72.62,72.62,0,0,1,37,9.26,82.29,82.29,0,0,1,55.47,1.93c1.23-.35,2.52-.52,3.78-.78a3.61,3.61,0,0,1,.66,1.93c.93,5.2,2.19,10.33,3.59,15.42.8,2.93.35,3.71-2.53,4.52-3.54,1-3.55,1-1.47,4.1,3.91,5.81,7.83,11.62,11.55,17.55,1.36,2.16,1.52,2.14,2.91,0C78,38.42,82,32.14,86.33,26.08c1.51-2.12,1.44-2.17-1.24-2.77-.76-.17-1.51-.36-2.25-.59-1.38-.44-2-1.32-1.64-2.75,1.63-5.84,2.92-11.75,4.16-17.68A2.69,2.69,0,0,1,86,1.18a71.75,71.75,0,0,1,30.85,13.76,71,71,0,0,1,22.27,28.37,66.42,66.42,0,0,1,5.21,18,71.85,71.85,0,0,1,1,12.33,76,76,0,0,1-5.12,25.42,73.83,73.83,0,0,1-10.65,18.57,67.39,67.39,0,0,1-17.79,16c-.51.32-.93.83-1.57.21a89.91,89.91,0,0,0-7.69-7.28c1.87-.33,3.19,1.11,5.15,1.09a6.92,6.92,0,0,0-1.91-2.92,42.52,42.52,0,0,0-9-6.5,46.07,46.07,0,0,0-17-6,49.33,49.33,0,0,0-12.33-.23,48.12,48.12,0,0,0-15.57,4.33c-5.2,2.56-10.23,5.43-14,10-.27.33-.7.55-.66,1.2,2.14.32,3.75-1.6,5.82-1.43Z"/><path class="cls-2" d="M86,1.18A108.21,108.21,0,0,1,82.7,16.82c-.07.25-.14.5-.2.76-1.15,4.84-2.07,3.72,3.2,5.19.9.26,1.89,0,2.77.42C88.1,24.57,75.57,44,72.69,47.62c-.66.06-.83-.49-1.09-.9-4.54-7.14-9.17-14.22-14-21.17a9.9,9.9,0,0,1-.56-.87c-.74-1.33-.64-1.51.9-1.75,5.75-.89,5.78-.9,4.34-6.37C61.18,12.4,60.19,8.21,59.38,4a6.88,6.88,0,0,1-.13-2.82A97.4,97.4,0,0,1,74.71,0C78.51.13,82.25.75,86,1.18Z"/><path class="cls-1" d="M50.51,141.76A12.85,12.85,0,0,1,54,137a70.16,70.16,0,0,1,7.1-6c4.34-3.28,9.37-3.49,14.54-3.05,4.72.41,8.32,2.78,11.76,5.84a41.34,41.34,0,0,1,7.45,7.89A75.64,75.64,0,0,1,50.51,141.76Z"/><path class="cls-1" d="M43.08,126.2c0-.07.09-.21.11-.2.17,0,.13.11-.12.19Z"/><path class="cls-3" d="M126.16,59.78a15,15,0,0,0,.23,1.52c1.93,8.12-.22,15-5.92,21.06A22.1,22.1,0,0,1,82.94,69.92c-.5-3.2.07-6.12.62-9.14.18-1,.45-1.86,1.54-2.17a3.37,3.37,0,0,1,3.46-.23,1.91,1.91,0,0,1,.74,2.08c-.64,3.33-.08,6.72-.58,10.06.13-.32-.12.17,0,0,2.46-4,5.42-3.71,8-.48,2.22,2.76.87,6.84-2.61,8.42-2.07,1-1.87,1.83-.62,3.18,6.86,7.39,17.59,7.48,22.16-2.82A32.13,32.13,0,0,0,118,62.37c-.11-1.09-.51-2.26.73-3C121.23,58.94,123.76,58.34,126.16,59.78Z"/><path class="cls-3" d="M60.18,58.57C61.89,60,62,62.1,62.2,64c.71,7.35-1.34,13.91-6.84,19A21.3,21.3,0,0,1,36,88.43c-9.8-2-15.53-8.19-17.61-17.68a18.55,18.55,0,0,1,.77-11c2.36-1.47,4.87-.82,7.35-.52,1.35.74.81,2,.68,3A33.37,33.37,0,0,0,29,77.82c1.84,5.22,5.22,8.63,10.83,9.07,5.23.41,9.26-2.2,12.54-6.1.91-1.08.56-1.57-.71-1.93a5.33,5.33,0,0,1-3.74-3.65,5.65,5.65,0,0,1,1.62-6.36c1.73-1.34,3.84-1.24,6.67.4a19.05,19.05,0,0,0,0-6.35c-.18-1.35-.7-2.69-.21-4.09A3.52,3.52,0,0,1,60.18,58.57Z"/><path class="cls-4" d="M60.18,58.57c-1.4.19-2.87-.12-4.19.63a2.33,2.33,0,0,1-1.83.79c-8.39.42-16.78.84-25.19.55a3.06,3.06,0,0,1-1.92-.64,76.89,76.89,0,0,0-7.89-.1c-.84-.35-2-.42-1.85-1.74s1.13-1.65,2.26-1.72,2.41-.17,3.62-.19l33.68-.56c1,0,1.9,0,2.84.09a1.73,1.73,0,0,1,1.78,1.24C61.72,57.93,60.79,58.16,60.18,58.57Z"/><path class="cls-4" d="M126.16,59.78l-8.09.11a4.45,4.45,0,0,1-2.95.67c-7.84.23-15.67-.2-23.5-.55A3.42,3.42,0,0,1,89,59.15c-1.23-.64-2.59-.41-3.9-.54-.65-.46-1.82-.55-1.49-1.75.27-1,1.19-1.15,2.07-1.22q1-.07,2.07-.06,17.32.27,34.67.58c1.11,0,2.23.12,3.35.22a1.89,1.89,0,0,1,2,1.69C127.88,59.27,126.92,59.43,126.16,59.78Z"/><path class="cls-5" d="M116.88,32.23c-2.53-1.46-5-3-7.68-4.26a11.9,11.9,0,0,0-9.29-.41,29,29,0,0,0-8.52,4.81l-2.64,2.06A.43.43,0,0,1,88.6,34c.05-.15.09-.22.14-.22A34,34,0,0,1,98.85,22.16a5,5,0,0,1,5.07-.76,27.21,27.21,0,0,1,13.45,10.84C117.2,32.45,117,32.45,116.88,32.23Z"/><path class="cls-5" d="M55,33.33a36,36,0,0,0-9.2-5.58,12,12,0,0,0-10.2.38c-2.2,1.16-4.36,2.38-6.54,3.58-.54.13-.69-.11-.59-.61a28.11,28.11,0,0,1,12-9.43,5.67,5.67,0,0,1,6.2.79,33.33,33.33,0,0,1,9,10.2C55.74,33.21,55.51,33.42,55,33.33Z"/><path class="cls-6" d="M25.17,44.18a22.36,22.36,0,0,1,13.21-8.52,13.91,13.91,0,0,1,10.68,1.9,25.52,25.52,0,0,1,9.12,8.64c.23.57,0,.65-.52.56a28.05,28.05,0,0,0-10.44-9,12.65,12.65,0,0,0-9.29-.86,22,22,0,0,0-9.6,5.35c-.74.72-1.56,1.34-2.35,2A.6.6,0,0,1,25.17,44.18Z"/><path class="cls-7" d="M119.38,44.42a21.11,21.11,0,0,1-3.17-2.65,20.35,20.35,0,0,0-10.49-5.25,12.17,12.17,0,0,0-8.93,1.79c-1.46.91-2.89,1.86-4.34,2.8-.53.17-.67-.07-.57-.55a21.08,21.08,0,0,1,5.79-3.86,13.15,13.15,0,0,1,9.31-1,22.34,22.34,0,0,1,12.46,7.86A.64.64,0,0,1,119.38,44.42Z"/><path class="cls-8" d="M27.11,94.43c1.8.83,3.55,1.79,5.41,2.46,6.33,2.32,12.36,2.08,17.8-2.38.51-.16.65.06.53.53-4.17,4-9.19,5.17-14.74,4.09a22.27,22.27,0,0,1-9.64-4.08C26.4,94.55,26.57,94.29,27.11,94.43Z"/><path class="cls-9" d="M97.64,96.57c5.94,2.87,11.74,1.92,17.44-.73,1.48-.69,2.86-1.58,4.29-2.38.54-.15.67.09.56.57a23.24,23.24,0,0,1-14.37,5.49,13.11,13.11,0,0,1-8.5-2.38C97,96.64,97.07,96.38,97.64,96.57Z"/><path class="cls-8" d="M84.19,100.41c-1,2.85-3.56,3.71-5.77,5l-.4-.36c.76-.78,1.55-1.53,2.29-2.34s1.45-1.68,2.18-2.52a4.09,4.09,0,0,0,.05-3.11,13.48,13.48,0,0,1-1.16-3.54c-.19-.54.05-.65.53-.54l2.8,5.49a1.26,1.26,0,0,1,0,1.27v0A.74.74,0,0,0,84.19,100.41Z"/><path class="cls-10" d="M63.36,94.58a15.76,15.76,0,0,1-1,3.51,1,1,0,0,1,0,1.2,14.83,14.83,0,0,0,4.09,5.14c.13.48,0,.72-.54.55-2.26-1.17-4.49-2.37-5.22-5.1-.26-.35-.75-.61-.42-1.17q1.32-2.58,2.66-5.14C63.8,93.55,63.61,94.05,63.36,94.58Z"/><path class="cls-11" d="M91.88,40.56l.57.55a35,35,0,0,0-7.36,9.8.4.4,0,0,1-.63,0A21.23,21.23,0,0,1,91.88,40.56Z"/><path class="cls-12" d="M82.54,97.13a2.32,2.32,0,0,1-.05,3.11c.06-.76-.18-1.2-1-.88a30.58,30.58,0,0,0-6.14,2.86,2.86,2.86,0,0,1,2-2.61,12.08,12.08,0,0,1,4-1C82.31,98.59,82.63,98.07,82.54,97.13Z"/><path class="cls-13" d="M62.32,99.29v-1.2c1.55.82,3.39.51,5,1.27,1.08.53,2.28.92,2.27,2.45h0c-1.77-.72-3.54-1.43-5.31-2.16A3,3,0,0,0,62.32,99.29Z"/><path class="cls-14" d="M84.66,99.81c0-.42,0-.84,0-1.27A95.34,95.34,0,0,1,89.84,107c.16.53-.07.65-.55.51Z"/><path class="cls-15" d="M60.23,98.71l.42,1.17c-1.25.79-1.49,2.27-2.25,3.39s-1.57,2.47-2.35,3.72a.48.48,0,0,1-.72,0A66.35,66.35,0,0,1,60.23,98.71Z"/><path class="cls-16" d="M97.64,96.57l-.58.57a14.33,14.33,0,0,1-5.22-4.68.32.32,0,0,1,.56,0Z"/><path class="cls-17" d="M57.66,46.76l.52-.56a11.24,11.24,0,0,1,2.61,5.25.31.31,0,0,1-.55,0Z"/><path class="cls-18" d="M63.36,94.58c-.09-.37-.06-.79-.47-1a5.26,5.26,0,0,1,1.66-2.3A7.68,7.68,0,0,1,63.36,94.58Z"/><path class="cls-19" d="M119.93,94a.77.77,0,0,0-.56-.57c1-.7,1.76-1.87,3.14-2l0,0A8.21,8.21,0,0,1,119.93,94Z"/><path class="cls-20" d="M50.85,95c-.17-.18-.35-.35-.53-.53a8.19,8.19,0,0,1,2.56-2.12l.16.16A4.58,4.58,0,0,1,50.85,95Z"/><path class="cls-21" d="M27.11,94.43l-.64.62a4,4,0,0,1-2-2.08l0,0A4.48,4.48,0,0,1,27.11,94.43Z"/><path class="cls-22" d="M61.32,52.45c.74.79.38,1.85,1.17,3.17C61,54.75,61.21,53.68,60.78,53,61,52.78,61,52.46,61.32,52.45Z"/><path class="cls-23" d="M89.29,107.49l.55-.51c.72.59.54,1.47,1.11,2.42C89.74,108.93,89.62,108.13,89.29,107.49Z"/><path class="cls-24" d="M84.46,50.94l.63,0a6.72,6.72,0,0,1-1.43,2.5A3.07,3.07,0,0,1,84.46,50.94Z"/><path class="cls-25" d="M81.91,93.05l-.53.54a3,3,0,0,1-.88-2.41A3.31,3.31,0,0,1,81.91,93.05Z"/><path class="cls-26" d="M65.87,105l.54-.55a2.49,2.49,0,0,1,1.36,1.29C66.89,106,66.39,105.45,65.87,105Z"/><path class="cls-27" d="M92.4,92.45h-.56c-.61-.19-.88-.71-1.49-1.42A2.43,2.43,0,0,1,92.4,92.45Z"/><path class="cls-28" d="M55,33.33l.67-.67a2.91,2.91,0,0,1,1,1.67.49.49,0,0,1-.72.07A2.41,2.41,0,0,1,55,33.33Z"/><path class="cls-29" d="M55.33,107h.72a4.3,4.3,0,0,1-1.35,1.93A2.31,2.31,0,0,1,55.33,107Z"/><path class="cls-30" d="M119.38,44.42l.06-.82a2.84,2.84,0,0,1,1.48,2.14l0,0A3.2,3.2,0,0,1,119.38,44.42Z"/><path class="cls-31" d="M24.93,45.25a2.76,2.76,0,0,1-1.35,1.3c-.17-.73.22-1,.7-1.33A.37.37,0,0,1,24.93,45.25Z"/><path class="cls-32" d="M28.44,31.1l.59.61a3.24,3.24,0,0,1-1.52,1.11.39.39,0,0,1-.06-.65A2,2,0,0,1,28.44,31.1Z"/><path class="cls-33" d="M61.32,52.45l-.54.5-.54-1.52.55,0A1.25,1.25,0,0,1,61.32,52.45Z"/><path class="cls-34" d="M24.93,45.25l-.65,0a2.31,2.31,0,0,1,.89-1l.81,0A2.69,2.69,0,0,1,24.93,45.25Z"/><path class="cls-35" d="M56,34.4l.72-.07c.32.18.51.54.13.69S56.14,34.77,56,34.4Z"/><path class="cls-36" d="M27.45,32.17l.06.65c-.13.34-.44.57-.62.2S27.09,32.35,27.45,32.17Z"/><path class="cls-37" d="M116.88,32.23a.56.56,0,0,1,.49,0c.27,0,.53.22.25.41S117.05,32.52,116.88,32.23Z"/><path class="cls-38" d="M88.74,33.78v.65c-.08.29-.29.45-.44.13S88.41,33.94,88.74,33.78Z"/><path class="cls-14" d="M84.19,100.41a.6.6,0,0,1,.48-.64Z"/><path class="cls-39" d="M23.87,92.48a.57.57,0,0,1,.52.52l0,0a.59.59,0,0,1-.53-.52Z"/><path class="cls-20" d="M52.88,92.39a.63.63,0,0,1,.58-.45h0a.62.62,0,0,1-.41.61Z"/><path class="cls-27" d="M23.89,92.45l-.25-.22c.05,0,.12,0,.15,0a1.31,1.31,0,0,1,.08.21Z"/><path class="cls-40" d="M54,91.42a.53.53,0,0,1-.5.52h0a.58.58,0,0,1,.52-.5Z"/><path class="cls-19" d="M122.51,91.43c0-.07.08-.21.1-.2s.12.1-.12.18Z"/><path class="cls-41" d="M54,91.44l.23-.25c0,.06,0,.13,0,.16a1.29,1.29,0,0,1-.21.07Z"/><path class="cls-42" d="M120.92,45.74l.25.23s-.12,0-.15,0a1.31,1.31,0,0,1-.08-.21Z"/><path class="cls-13" d="M69.55,101.81c.22,0,.31.06.25.23a.27.27,0,0,1-.17,0,.81.81,0,0,1-.07-.22Z"/><path class="cls-43" d="M89,59.15c9.69.35,19.38.79,29.07.73a30.24,30.24,0,0,1-2.4,20.65A12.6,12.6,0,0,1,98.5,86.28a16.65,16.65,0,0,1-6.82-5.78c-.37-.56-.9-1.08-.74-1.86,3.85-.57,5.73-2.08,6-4.88a4.91,4.91,0,0,0-2.46-5c-2.1-.94-4-.2-6.22,2.54A33.92,33.92,0,0,1,89,59.15Z"/><path class="cls-43" d="M27.05,59.9c5.78-.08,11.56-.06,17.33-.28,3.87-.15,7.74-.47,11.61-.42a28,28,0,0,1,.86,11.74c-1-.18-1.11-1-1.56-1.42a4,4,0,0,0-4.08-1,3.86,3.86,0,0,0-2.92,3c-.92,3.62,1.21,6.52,5,6.87a1.37,1.37,0,0,1,1.1.38,16.43,16.43,0,0,1-10.48,8.44c-4.88,1.44-11.5-.83-14.14-6a30,30,0,0,1-3.32-11.08C26.13,66.7,25.93,63.26,27.05,59.9Z"/></g></g></svg>