<svg xmlns="http://www.w3.org/2000/svg" viewBox="0 0 145.45 145.34"><defs><style>.cls-1{fill:#daa087;}.cls-2{fill:#232b32;}.cls-3{fill:#3a4146;}.cls-4{fill:#fff;}.cls-5{fill:#f3533a;}.cls-6{fill:#5acec8;}.cls-7{fill:#f2553c;}.cls-8{fill:#f2563d;}.cls-9{fill:#ea7057;}.cls-10{fill:#e96e55;}.cls-11{fill:#5acfc9;}.cls-12{fill:#fefefe;}.cls-13{fill:#f6fcfc;}.cls-14{fill:#f1f8f8;}.cls-15{fill:#7c706b;}</style></defs><title>Katara</title><g id="Layer_2" data-name="Layer 2"><g id="Layer_1-2" data-name="Layer 1"><path class="cls-1" d="M128.1,119.68c-10.71,12.64-24.31,20.49-40.38,24.08a63.55,63.55,0,0,1-15.42,1.56,73.77,73.77,0,0,1-27.91-5.9A69.49,69.49,0,0,1,22.92,125.2c-2-1.94-3.82-4-5.73-6,1.89-2.75,4.29-5.08,5.81-8.16a58.64,58.64,0,0,0,5.33-17c.18-1.1.15-2.29,1.39-2.87,3.62.06,7.08,1.47,10.78,1.17a26.27,26.27,0,0,0,10.91-3c3.67-2,5.3-5.3,5.45-9.39A22.7,22.7,0,0,0,56,71.54a3.2,3.2,0,0,1-.16-2.28c1.62-1.35,1.28-2.82.25-4.33A24.72,24.72,0,0,0,36.53,53.82c-1.72-.12-3.46,0-5.18-.06s-2.22-.85-2.1-2.52a71.21,71.21,0,0,1,1.11-9c.6-3,1.47-3.52,4.52-3.17a67.24,67.24,0,0,1,22.89,7.08c1.31.66,3,2.27,4.19.92s-.34-3.08-1.27-4.31c-5.62-7.51-13-11.64-22.53-11.81H37.9c-4.31,0-4.61-.54-2.64-4.39,2.12-2.65,3.33-5.84,5.21-8.63.76-1.14,1.43-2.39,2.85-2.9a10.06,10.06,0,0,1,4.07-.57c4.4,0,8.8-.11,13.19,0a9.91,9.91,0,0,0,7.5-2.85c.75-.71,1.52-1.41,2.23-2.16C71.74,8,73.11,8,74.5,9.54c.29.31.64.57.94.88a12.4,12.4,0,0,0,10.64,4.12c3.85-.33,7.76-.08,11.64-.07a9.54,9.54,0,0,1,3.82.48c2.76,1.52,3.69,4.44,5.2,6.9a30.7,30.7,0,0,0,2.89,4.58,5.16,5.16,0,0,1,.64,1.12c1.08,2.59.67,3.36-2.1,3.37a36.45,36.45,0,0,0-8.2,1c-7.12,1.66-12.36,5.89-16.4,11.82a5.7,5.7,0,0,0-.84,1.6c-.45,1.53.27,2.34,1.86,2.08a5.18,5.18,0,0,0,1.67-.69,64.32,64.32,0,0,1,23.23-7.6c3.66-.5,4.46,0,5.15,3.58.5,2.55.75,5.13,1.09,7.69s-.31,3.35-2.92,3.34c-4.08,0-8.08.14-12,1.64A24.85,24.85,0,0,0,89,64.72c-1,1.43-1.55,2.93-.07,4.44.49,1,.07,2-.2,3a21.48,21.48,0,0,0-.68,8.95C89,87.22,93.18,90.06,98.6,91.5a26.17,26.17,0,0,0,13.3.11,7.31,7.31,0,0,0,3.16-1.67c1.78.11,1.2,1.55,1.35,2.51,1.31,8.49,3.32,16.71,8.76,23.68C126.11,117.35,127.52,118.18,128.1,119.68Z"/><path class="cls-2" d="M101.77,15.58a89.12,89.12,0,0,0-12.65-.53c-2.25,0-4.49,0-6.73.08a6.35,6.35,0,0,1-4.69-1.79c-1.68-1.6-3.46-3.1-5.28-4.71-1.39,1.29-2.79,2.44-4,3.74a9,9,0,0,1-7.46,2.79,132.28,132.28,0,0,0-14.22.07c-1.2.07-2.4.23-3.6.35-2.17-2-3.56-2-5.8.06-.86.79-1.48,1.87-2.71,2.22a13.8,13.8,0,0,0-7.93,4.52,77.73,77.73,0,0,0-8.9,11.1,23.77,23.77,0,0,0-3.84,10.37c-.6,6-2.95,11.35-5.8,16.51a99.15,99.15,0,0,0-5.8,13,4.27,4.27,0,0,1-2,2.88,48.57,48.57,0,0,1,0-7.45C2.6,41.27,15.8,20.83,40.17,7.91A67.4,67.4,0,0,1,80.85.57c25.72,3.22,44.7,16.47,56.78,39.32a67.34,67.34,0,0,1,7.66,36.56c-.61.25-1-.08-1.43-.45-3.11-8.53-7.81-16.34-11.27-24.72a15.86,15.86,0,0,1-1.12-4.78c-.77-9.27-5.81-16.25-11.94-22.67-2.64-2.76-5.23-5.57-9.31-6.12-1.2-.56-1.93-1.67-3-2.45C105,13.48,103.91,13.54,101.77,15.58Z"/><path class="cls-2" d="M88.71,69.2c-1,.12-1.65-.21-1.61-1.4A6.78,6.78,0,0,1,88.61,64a25.92,25.92,0,0,1,20.2-11,40.22,40.22,0,0,1,4.91,0c1.2.06,1.54-.45,1.42-1.52-.38-3.6-.85-7.19-1.54-10.75-.19-1-.88-1.15-1.71-1.11a42.49,42.49,0,0,0-8.69,1.27,69.36,69.36,0,0,0-16.61,6.39A7.29,7.29,0,0,1,84,48.43a1.86,1.86,0,0,1-2.23-2.5,10.49,10.49,0,0,1,2.08-3.84c6.1-8.1,14.25-12,24.36-11.83.52,0,1,0,1.56,0a3,3,0,0,0,.6-.15A8.62,8.62,0,0,0,109,26.6c-.58-2,.6-2.62,2.27-2.56a5.5,5.5,0,0,1,3.58,1.7,16.53,16.53,0,0,0,8.05,9.6,5,5,0,0,1,1.48,1.44c1.35,1.89.64,3.9-1.63,3.85-2.55-.06-2.32,1-1.89,2.79a71,71,0,0,1,1.58,8.4,4.07,4.07,0,0,0,2.66,3.45A32.66,32.66,0,0,1,137.8,65.2c2.31,3.09,2.28,4.17-.4,6.88-1.76,1.78-3.52,3.57-5.32,5.3-.73.71-1.4,1.59-2.62,1.39a.68.68,0,0,1-.45-.6,2.9,2.9,0,0,1,.27-1.16c2.68-5.74,1.29-9.26-5.57-13.36a144.25,144.25,0,0,0,1.46,20.93c1.25,8,4,15.29,9.67,21.24.7.72,1.56,1.41,1.22,2.64a60.44,60.44,0,0,1-7.95,11.22,19.46,19.46,0,0,1-6.42-7.58,53.52,53.52,0,0,1-6-20.87,6.94,6.94,0,0,0-.36-1.21c-1.56-2.25-.84-4.92-1.35-7.37a17,17,0,0,1-.06-2c-.09-5.05.83-10.07.51-15.13,0-.51.07-1,.08-1.53.08-4.9-.17-5.17-5.09-5.48-4.53-.28-8.34,1.7-12.07,3.89a43.08,43.08,0,0,0-5.64,4.06l-.49.5c-.14.19-.29.36-.43.54C90.19,68.17,89.73,69,88.71,69.2Z"/><path class="cls-2" d="M35.91,26.63a12.91,12.91,0,0,0-1.39,3.44,5.79,5.79,0,0,0,2.59.18C47.05,30.16,55,34.11,61.05,42a10.93,10.93,0,0,1,2.12,3.83c.51,1.94-.66,3.09-2.58,2.52A12.84,12.84,0,0,1,58,47.12a67.82,67.82,0,0,0-18.45-6.66c-2-.43-4.1-.52-6.15-.8-1.41-.2-2,.44-2.23,1.79a82.13,82.13,0,0,0-1.33,11.41A28.27,28.27,0,0,0,35,53,26,26,0,0,1,55,62.3a10.94,10.94,0,0,1,2.83,4.88c.31,1.53.16,1.71-1.67,2-1.5-.49-2-2.12-3.22-2.91C48,62.1,42.73,58.63,36,58.48c-5.69.18-5.86.38-5.6,6.93,0,5.06.89,10.09.52,15.16a45,45,0,0,1-.46,8.52,4.37,4.37,0,0,1-.84,2.39c-.85,3.24-1.16,6.59-2.06,9.82a49.82,49.82,0,0,1-5.15,12.33,14.39,14.39,0,0,1-5.17,5.61,69.06,69.06,0,0,1-7.36-10.59,2.18,2.18,0,0,1-.47-1.43,2.31,2.31,0,0,1,.79-1.59c5.57-5.45,8-12.42,9.43-19.81A12.65,12.65,0,0,0,20,83.53a162.72,162.72,0,0,0,1.22-20.08,18.85,18.85,0,0,0-6.9,7.24,4.05,4.05,0,0,0,.13,3.5c.41,1,1.1,2,1,3.18a1.06,1.06,0,0,1-.76.83c-1.82-.2-2.75-1.68-3.92-2.79-1.33-1.24-2.61-2.53-3.86-3.85-2-2.09-2.16-3.08-.4-5.43A32.5,32.5,0,0,1,19.57,55.4a4.67,4.67,0,0,0,3.14-4.27,51.28,51.28,0,0,1,1.52-8.42c.37-1.41.2-2.15-1.5-2A2.3,2.3,0,0,1,20,39.19a3,3,0,0,1,1-3,1.57,1.57,0,0,1,.38-.35,19.87,19.87,0,0,0,9-10.23A4.65,4.65,0,0,1,33.61,24C35.3,24,36.54,24.53,35.91,26.63Z"/><path class="cls-1" d="M129.09,78.58a2.4,2.4,0,0,0,1.75-1c2.42-2.34,4.86-4.67,7.23-7.07,1.39-1.41,1.41-1.61.29-3.34a30.08,30.08,0,0,0-13.79-11.38,3.92,3.92,0,0,1-2.85-3.67,67.71,67.71,0,0,0-2.23-11.43,2.91,2.91,0,0,1,.08-.86l2.82.29c.82.09,1.59,0,2-.85a1.87,1.87,0,0,0-.5-2.15,12.92,12.92,0,0,0-3.18-2.62c-3.25-1.52-4.87-4.15-5.74-7.44a8.77,8.77,0,0,0-.39-1c-1.6-2.31-2.63-4.94-4.2-7.27-.32-.47-.7-1-.24-1.63a11.33,11.33,0,0,1,7.49,3.59c4.06,4.27,8,8.55,11,13.71a32.47,32.47,0,0,1,3.6,12.08,27.94,27.94,0,0,0,3,9c3.36,6.62,6.83,13.19,9.1,20.3.68.92.65,2,.92,3.08a70.75,70.75,0,0,1-6.49,24.2c-.84,1.77-1.77,3.49-2.66,5.24-.26-1-1.13-1.5-1.76-2.19a37.64,37.64,0,0,1-9.69-21.58A15,15,0,0,1,129.09,78.58Z"/><path class="cls-1" d="M30.51,26.07c-1.11,4.06-3.26,7.26-7.19,9.14a5.76,5.76,0,0,0-2.47,2.23,1.83,1.83,0,0,0-.19,2,1.56,1.56,0,0,0,1.76.76l2.72-.28c.13.25.29.41.27.54a118.72,118.72,0,0,0-2.32,12.68c-.15,1.46-1,2-2.19,2.48A32,32,0,0,0,8.3,64.8c-.28.33-.55.67-.8,1-2.26,3.06-2.26,3.06.31,5.74C10,73.78,12.17,76,14.53,78c.59.35,1.3.38,1.87.78,1.59,1.53,2.42,3.7,4.23,5-1,6.26-2.68,12.27-6.21,17.63-1.42,2.15-2.85,4.31-5.06,5.77-2.4-2.92-3.43-6.5-4.73-9.94A72.84,72.84,0,0,1,.43,78,58.14,58.14,0,0,1,0,70.5a2.43,2.43,0,0,1,.37-1.72C.69,71,.14,73.19.7,75.7c1-2.59,1.77-4.94,2.78-7.18,1.56-3.46,3.15-6.93,5-10.26a40.39,40.39,0,0,0,4.89-14.9c.58-5.06,3-9.35,5.94-13.34a89,89,0,0,1,7.82-9,11.59,11.59,0,0,1,7.69-3.79,1,1,0,0,1,0,1.39C33.06,20.93,32.16,23.72,30.51,26.07Z"/><path class="cls-3" d="M145.21,79a6.09,6.09,0,0,1-.92-3.08l1,.51A7.92,7.92,0,0,1,145.21,79Z"/><path class="cls-4" d="M29.57,91.48l.6-10.9c1.29-.14,1.72,1,2.41,1.69,6.14,6.21,16.15,4.71,19.79-3-.48-.51-1.14-.27-1.71-.39a5.92,5.92,0,0,1-5-6.26C46,69,48,67,51.71,67.11a1.9,1.9,0,0,0,1.82-1,10.17,10.17,0,0,1,2.62,3.07,35.65,35.65,0,0,1,1.53,10.39c-.2,5.65-2.85,9.55-8.16,11.64a28.3,28.3,0,0,1-18.46.71Z"/><path class="cls-4" d="M88.71,69.2,90.36,67a2,2,0,0,0,.4-.42l.07-.07c.78.07,1.24.79,2.26.65a5.14,5.14,0,0,1,6,4.27,6.1,6.1,0,0,1-4,7.24c-2.72,1-2.77,1.17-.88,3.47,4.25,5.15,13.11,5.18,18.06.08.67-.7,1-1.89,2.38-1.69.2,3.15.41,6.3.61,9.45a1.82,1.82,0,0,1-1.43,1.86c-6.82,1.89-13.5,1.78-19.94-1.39-4.36-2.14-6.47-5.8-6.72-10.59A24.84,24.84,0,0,1,88.37,71,3.67,3.67,0,0,0,88.71,69.2Z"/><path class="cls-5" d="M51.53,122.55c.92-.34,1.19.26,1.61.48a5.7,5.7,0,0,0,5.65,0c2.73-1.43,5.28-3.57,8.5-3.59,3.39,0,6.75.42,10.16-.12,1.35-.22,2.84.59,4.13,1.33.9.52,1.87.92,2.76,1.44,2.62,1.55,5.27,2.67,8.33.49a6.62,6.62,0,0,1-5.9,4.82,16.54,16.54,0,0,1-6-1.22c-.65-.22-1.27-.53-1.9-.81a15.06,15.06,0,0,0-13,.13c-2.33,1.06-4.77,2.07-7.46,1.9C55.12,127.14,53.2,125.17,51.53,122.55Z"/><path class="cls-6" d="M110.1,17.22c1.31,2.41,3,4.62,4,7.2.21.55.65,1,.44,1.7a19.83,19.83,0,0,0-2-1.16c-2-.91-2.72-.55-3.58,1.64-1.93-2.1-2.79-4.84-4.31-7.18-.89-1.34-1.57-2.83-2.9-3.84.65-2.25,1.52-2.72,3.64-2.11S108.63,15.85,110.1,17.22Z"/><path class="cls-6" d="M30.51,26.07c.4-2.68,1.92-4.85,3.33-7,.37-.57.93-1,.95-1.78.65-.67,1.29-1.35,2-2a6.58,6.58,0,0,1,3-1.82c2.07-.53,2.78-.1,3.36,2.15A21.82,21.82,0,0,0,39.39,21c-1.08,1.92-1.94,4-3.48,5.61-.68-2.16-1.48-2.58-3.45-1.71A18.43,18.43,0,0,0,30.51,26.07Z"/><path class="cls-7" d="M77.26,108.65a4.7,4.7,0,0,1,.12-.51,3.3,3.3,0,0,1,.47-.52c1.64-2,3.3-4.05,6.33-3.76.88.08,1-.54.91-1.19a15.41,15.41,0,0,0-1.67-4.86A7.9,7.9,0,0,1,82,94.24a8.82,8.82,0,0,1,3.39,4.11,16.36,16.36,0,0,1,1.82,8.25,6.44,6.44,0,0,1-3.34,5.76L81,114a11.72,11.72,0,0,1,2.46-2.89,6.3,6.3,0,0,0,2-4.6c-1.76-1-3.33-.08-4.88.55a18.25,18.25,0,0,0-2.64,1.63A.39.39,0,0,1,77.26,108.65Z"/><path class="cls-8" d="M66.39,108.16a11.26,11.26,0,0,0-5-2c-1.55-.15-2.11.47-1.66,2a7.55,7.55,0,0,0,1.78,3.13A5.66,5.66,0,0,1,63.05,113c-3-.6-5.07-2.49-5.33-5.63a15.57,15.57,0,0,1,4.72-12.82,2.81,2.81,0,0,1-.63,2.56,23.92,23.92,0,0,0-2,5.59c-.14.52-.14,1.24.57,1.14,3.18-.42,4.89,1.64,6.61,3.73C67.11,108.09,66.9,108.28,66.39,108.16Z"/><path class="cls-9" d="M66.39,108.16l.6-.59a3.71,3.71,0,0,1,1.5,2.39A4.09,4.09,0,0,1,66.39,108.16Z"/><path class="cls-10" d="M77.26,108.65l.62,0a1.75,1.75,0,0,1-1.08,1h0A1,1,0,0,1,77.26,108.65Z"/><path class="cls-10" d="M76.8,109.68c0,.07-.1.22-.12.21-.18,0-.13-.12.13-.2Z"/><path class="cls-10" d="M77.85,107.62l-.47.52Z"/><path class="cls-11" d="M114.71,80.57c-.51.22-.74.71-1,1.12-5.8,7.79-19.16,6.49-22.2-3.18.37-.71.89-.17,1.34-.13a5.28,5.28,0,0,0,5.61-3.64,5.94,5.94,0,0,0-2.25-6.66c-1.67-1-3.31-.51-4.88.26-.76-.5.5-1.4-.45-1.79A31.37,31.37,0,0,1,106.19,58a7.68,7.68,0,0,1,2.83-.16A9.88,9.88,0,0,1,115.18,65a65.22,65.22,0,0,1-.07,7.91C115.07,75.48,114.85,78,114.71,80.57Z"/><path class="cls-12" d="M129.09,78.58a30.88,30.88,0,0,1-4.48,6.11,22.09,22.09,0,0,1-.91-6.13c-.41-5.16-.56-10.34-.81-15.51,0-.26,0-.51.46-.76a23.07,23.07,0,0,1,7.72,7.57,4.1,4.1,0,0,1,.18,4.4c-.58,1.06-1.08,2.16-1.62,3.24-.1.18-.21.36-.32.54Z"/><path class="cls-13" d="M115.18,65c-1.42-2.93-3.75-5.09-6.16-7.19a20.13,20.13,0,0,1,4.83.45c1,.13,1.54.55,1.49,1.63A41.49,41.49,0,0,1,115.18,65Z"/><path class="cls-1" d="M129.31,78a.39.39,0,0,1,.32-.54A.39.39,0,0,1,129.31,78Z"/><path class="cls-11" d="M90.76,66.62a.38.38,0,0,1-.4.42C90.34,66.76,90.49,66.63,90.76,66.62Z"/><path class="cls-11" d="M53.53,66.09,54,68.31c-2.48-.92-4.86-1.47-6.54,1a5.77,5.77,0,0,0-.36,6.59c1.47,2.36,3.76,2.8,6.35,2.15a11,11,0,0,1-8.29,8.22c-5.68,1.31-10.37-.26-14-4.84a11.23,11.23,0,0,0-.94-.88c0-5.19-.69-10.36-.47-15.56a9.86,9.86,0,0,1,6.5-7.16A15,15,0,0,1,43,59.24,30.42,30.42,0,0,1,53.53,66.09Z"/><path class="cls-12" d="M20.63,83.81c-.64.48-1.09.15-1.46-.38l-3-4.36a2.19,2.19,0,0,1-1-1.7,29.87,29.87,0,0,0-1.32-2.8,4.44,4.44,0,0,1,.24-5.07A23.47,23.47,0,0,1,22.16,62C21.77,69.48,21.66,76.67,20.63,83.81Z"/><path class="cls-14" d="M36.2,57.86A21.75,21.75,0,0,0,29.7,65c-.05-1.71-.07-3.43-.15-5.14a1.32,1.32,0,0,1,1.29-1.56A18.25,18.25,0,0,1,36.2,57.86Z"/><path class="cls-15" d="M15.16,77.37a2.73,2.73,0,0,1,1,1.7A1.58,1.58,0,0,1,14.53,78Z"/></g></g></svg>