<svg xmlns="http://www.w3.org/2000/svg" viewBox="0 0 145.4 145.62"><defs><style>.cls-1{fill:#fff;}.cls-2{fill:#fa9f42;}.cls-3{fill:#f3533a;}.cls-4{fill:#232b32;}.cls-5{fill:#f35a41;}.cls-6{fill:#f3583f;}.cls-7{fill:#3f494f;}.cls-8{fill:#473637;}.cls-9{fill:#674c4b;}.cls-10{fill:#505a60;}.cls-11{fill:#f67662;}.cls-12{fill:#897676;}.cls-13{fill:#6f787c;}.cls-14{fill:#cad0d2;}.cls-15{fill:#6e777b;}.cls-16{fill:#f77b67;}.cls-17{fill:#faa99c;}.cls-18{fill:#f9b1a6;}.cls-19{fill:#242b32;}.cls-20{fill:#fffffe;}.cls-21{fill:#d9ebcc;}.cls-22{fill:#efbeb5;}.cls-23{fill:#e5d9c2;}.cls-24{fill:#f0b3a8;}.cls-25{fill:#bad879;}</style></defs><title>Kyoshi</title><g id="Layer_2" data-name="Layer 2"><g id="Layer_1-2" data-name="Layer 1"><path class="cls-1" d="M140.62,47a64.49,64.49,0,0,0-9.84-17.5h0a3.8,3.8,0,0,0-1.08-1.73A75.07,75.07,0,0,0,105.15,7.84,76.92,76.92,0,0,0,80.46.76,72.33,72.33,0,0,0,39.9,8.25h0A59.13,59.13,0,0,0,29,15,67.05,67.05,0,0,0,13.56,31.12a52,52,0,0,0-4.31,6.77A71.93,71.93,0,0,0,1.12,84h0c.37,2,.61,4.09,1.12,6.09a72.65,72.65,0,0,0,20.14,35C36.5,138.68,53.5,145.2,72.91,145.61a63.07,63.07,0,0,0,15.39-1.72,72.92,72.92,0,0,0,55.19-54.23,57.2,57.2,0,0,0,1.69-10.45A72.88,72.88,0,0,0,140.62,47Z"/><path class="cls-2" d="M11.92,33A36.06,36.06,0,0,1,17,25.83C28.92,12,43.77,3.35,61.91.81c14-2,27.55-.44,40.5,5.48a72.51,72.51,0,0,1,30.34,25.5c1.11,6.11,1,12.32,1.42,18.48a4.21,4.21,0,0,0,.08,1.29c1.93,4.6-.17,9.36.58,14a1.63,1.63,0,0,1-.46,1.43c0,13.64,0,27.28.07,40.91a8.05,8.05,0,0,1-1.64,5.28c-1.53,2-3,4-4.5,6a27.88,27.88,0,0,1-2,2.11c0-2.19-.08-3.89,0-5.57.62-12.34.4-24.68.4-37,0-.58.14-1.23-.51-1.63-.51-1.34-.14-2.78-.42-4.16.24-4,0-7.93.14-11.9,0-1.59-.11-3.19,0-4.78-.12-5.08-.06-10.17-.06-15.25.08-3.71-.07-7.41,0-11.12.07-2.17-.9-3-3-2.77-3.85.48-7.74.39-11.6.73-1.1.09-2.23.41-3.19-.47a67.69,67.69,0,0,0-8.78,0c-8.87.12-17.75.15-26.62.2-11.29.06-22.58-.16-33.87-.32-.75,0-1.56-.25-2.2.4-4,.58-7.88-.2-11.82-.34-2-.07-3.94-.65-5.85.27-.87.85-.61,1.94-.61,2.94,0,8.6.21,17.2,0,25.79.08,1.57,0,3.14,0,4.7.13,4-.13,7.92.23,11.87-.32,1.35-.08,2.78-.48,4.13-.66.84-.37,1.83-.39,2.75-.26,11.84.23,23.67.42,35.5,0,1.53,0,3.06,0,5a15.24,15.24,0,0,1-3.12-3.45c-4.8-6.27-4.68-6.28-4.87-14.12Q9.9,91.53,10,80.39c0-3.54.23-7.08.32-10.62A5.15,5.15,0,0,0,10,67a14.21,14.21,0,0,1-.37-4.86c0-1.59.64-3.21-.54-4.72-.42-.53-.05-1.33.16-2a38.65,38.65,0,0,0,1.42-10.7C10.78,40.77,10.83,36.81,11.92,33Z"/><path class="cls-3" d="M17.77,56.45c0-4.66.06-9.31.09-14,0-4.37-.08-8.78-.17-13.17,0-1-.31-2.08.33-3,1,.74.77,1.86.79,2.85.05,3.11,0,6.22,0,9.79a35.72,35.72,0,0,0,3.24-3.44,3,3,0,0,1,3.66-1.08c17.44,5.14,29.89,15.73,36.26,33a12.34,12.34,0,0,0,.6,2.24c.42.94.27,2,.71,3a60.91,60.91,0,0,1-1.6,22.81c-.23.91-.56,1.8-.87,2.69,0,.12-.24.18-.54.38a50.9,50.9,0,0,0-1.43-12.31c-8.9,1.6-17.49-.37-26.11-2C31.5,84,30.26,83.53,29,83.4a14.94,14.94,0,0,1-9.39-5c-.48-.5-1-1-1.46-1.47-.53-1.17-.84-2.33,0-3.49,1-.21,1.38.59,1.82,1.15,4,4.91,9.26,7.14,15.38,7.77,1.13.39,2.34.21,3.48.49a7,7,0,0,0,2.32.3c3.17.42,6.31,1,9.48,1.33a22,22,0,0,0,3.62.2c3.06-.13,3.45-.75,2.65-3.66-.7-2.57-2.37-4.8-2.53-7.55,1.35-.91,1.32-2,.57-3.32a22.69,22.69,0,0,0-6.31-6.77c-7.94-5.9-16.82-8.51-26.74-7.06A10.53,10.53,0,0,1,17.77,56.45Z"/><path class="cls-3" d="M126.32,73.5a3.87,3.87,0,0,1-.15,3.58,17.48,17.48,0,0,1-10.85,6.41c-6.54,1.18-13,2.64-19.66,3.18a29.76,29.76,0,0,1-9.88-.58c-1.28,4-1.35,8.18-1.74,12.34-2.07-3.51-3.89-14.34-3-25,.3-.65,0-1.39.28-2A6.23,6.23,0,0,0,82,69c3.9-11.29,10.35-20.69,20.51-27.21a60.37,60.37,0,0,1,16-7.21,3.41,3.41,0,0,1,4,1,26.73,26.73,0,0,1,4.08,5.33l0,15.43c-1.44.65-2.88.14-4.31,0-11.71-1.33-21.71,2.29-30.16,10.4A14.87,14.87,0,0,0,89.74,70,2.7,2.7,0,0,0,90,73.55c.12,2.6-1.52,4.68-2.16,7.07C86.92,84,87.33,84.8,91,84.7a106.34,106.34,0,0,0,12.55-1.5,6.7,6.7,0,0,0,1.94-.29,33.92,33.92,0,0,0,3.48-.51c4.13-.58,8.21-1.22,11.65-3.89a19,19,0,0,0,3.52-3.41C124.68,74.36,125.22,73.53,126.32,73.5Z"/><path class="cls-4" d="M126.61,40.87c-2-1.39-3.19-3.59-4.9-5.28a1.91,1.91,0,0,0-2.21-.69c-10.31,3-19.42,8-26.65,16.07a45.33,45.33,0,0,0-7.72,12.17l-2.71,6.15c-1.22-.23-.51-1.05-.49-1.65A50.29,50.29,0,0,1,89,47.06,60.7,60.7,0,0,1,107.32,28c.29-.19.53-.43.8-.64,5.41-.39,10.82-.79,16.24-1.14,2.2-.15,2.21-.1,2.22,2.25C126.6,32.6,126.6,36.73,126.61,40.87Z"/><path class="cls-4" d="M62.3,69.88c-2.19-5.07-4.1-10.28-7.36-14.81a51.47,51.47,0,0,0-25.73-18.8c-1.78-.61-3.72-2-5.38-1.39-1.5.53-2.51,2.48-3.73,3.82A6.37,6.37,0,0,1,18,40.42V26.29a11.72,11.72,0,0,1,3.83,0c4.27.25,8.54.58,12.81.84a5.8,5.8,0,0,1,2,.47A62.41,62.41,0,0,1,51.29,41,55.49,55.49,0,0,1,62.72,67.2c.11.67.11,1.37.17,2S62.81,70,62.3,69.88Z"/><path class="cls-4" d="M134.37,67c-.57-2.72-.32-5.49-.5-8.23,0-.25-.06-.66.07-.75,1.69-1.12.5-2.33.14-3.52a9.85,9.85,0,0,1-.59-2.22q-.59-9.27-1.08-18.53c0-.66-.26-1.38.34-2A72.25,72.25,0,0,1,144,59.38a70.71,70.71,0,0,1-4.45,41.1c-1,0-.71-.57-.56-1.11a96.48,96.48,0,0,0,1.23-15.65,93.86,93.86,0,0,0-2.38-17.59,3.68,3.68,0,0,0-.41-.77C136.27,65.6,135.49,66.63,134.37,67Z"/><path class="cls-4" d="M11.92,33c.29,3.79-.38,7.53-.49,11.31-.08,2.66-.33,5.31-.45,8a14.32,14.32,0,0,1-1.3,4.15c-.23.63-.46,1.15.56,1.17.42,0,.59.36.52.73-.53,2.86.08,5.83-.76,8.66L7,65.18A89.23,89.23,0,0,0,4.64,77.93c-.77,5.59-.33,11.16.08,16.74.06.64.71,1.48-.57,1.67A56.69,56.69,0,0,1,.58,81.56,72,72,0,0,1,6.26,43.11,51.06,51.06,0,0,1,11.92,33Z"/><path class="cls-3" d="M65.89,118.75c1.43.32,3,.59,4.61,1.06a5,5,0,0,0,3.53,0c.15-.06.35,0,.5-.1,3.9-1.65,7.19-.59,10.19,2.15,1.84,1.69,3.79,3.26,5.68,4.89a3.64,3.64,0,0,1,.7.77,1,1,0,0,1-.84,1.64,4.16,4.16,0,0,1-2.45-.73,23.32,23.32,0,0,0-4.07-1.62,7.93,7.93,0,0,0-5.79,0c-3.39,1.27-6.92,1.72-10.36.25-3.63-1.55-6.9-.57-10.17,1a8.64,8.64,0,0,1-2.62,1.06c-.52.05-1.07.09-1.4-.42a1.2,1.2,0,0,1,.35-1.62C55,126,56.27,125,57.5,123.88a35.62,35.62,0,0,1,5.08-4A6.51,6.51,0,0,1,65.89,118.75Z"/><path class="cls-5" d="M83,113.44c.52-.69,1-1.37,1.53-2.07.07-.11,0-.33,0-.62-3.47-.94-5.82,1.1-8.33,3.48,1.35-4.23,2.68-5.07,8.38-5.62,0-2.19-1.59-3.93-1.92-6.11,1.13,0,1.62.67,2.14,1.32a11.13,11.13,0,0,1,1.59,3c1.5,3.79,1,5.23-2.71,7.32C83.06,114.31,82.92,114,83,113.44Z"/><path class="cls-6" d="M62.26,114.69c-6-2.22-5.49-4.8-3.8-8.65,1-2.2,1.41-2.65,3.31-3.47-.31,2.16-1.67,3.86-2,6,1.72.61,3.65-.26,5.23.85a8.88,8.88,0,0,1,3.24,4.35c-2.54-1.77-4.88-4.07-8.45-3,.37,1.47,1.47,2.31,2.44,3.26A.39.39,0,0,1,62.26,114.69Z"/><path class="cls-7" d="M4.15,96.34c.63-.41.37-1.11.57-1.67.61,1,.45,2.07.55,3.13.21.55,0,.66-.52.58C4.57,97.7,4,97.11,4.15,96.34Z"/><path class="cls-8" d="M81.93,67.64c.16.55-.05,1.22.49,1.65a4.26,4.26,0,0,1-.83,2.17.38.38,0,0,1-.21-.63C81.47,69.75,81.3,68.63,81.93,67.64Z"/><path class="cls-9" d="M62.3,69.88l.59-.63c.66,1.06.44,2.23.43,3.37A5.52,5.52,0,0,1,62.3,69.88Z"/><path class="cls-10" d="M139,99.37c.16.38.09.88.56,1.11.09.62-.34,1-.54,1.56-.48.07-.79,0-.56-.62C138.57,100.71,138.46,100,139,99.37Z"/><path class="cls-11" d="M83,113.44l.69.66a4.7,4.7,0,0,1-2.18,1,.41.41,0,0,1-.62,0A7.16,7.16,0,0,1,83,113.44Z"/><path class="cls-12" d="M81.38,70.83l.21.63c-.13.66,0,1.4-.5,2A3.12,3.12,0,0,1,81.38,70.83Z"/><path class="cls-13" d="M4.75,98.38l.52-.58c.47.46.41,1.08.5,1.65s-.09.66-.57.5Z"/><path class="cls-14" d="M5.2,100c.33,0,.44-.27.57-.5.5.44.47,1,.37,1.81A1.75,1.75,0,0,1,5.2,100Z"/><path class="cls-15" d="M138.49,101.42l.56.62a1.88,1.88,0,0,1-.83,1.41A2,2,0,0,1,138.49,101.42Z"/><path class="cls-16" d="M62.26,114.69V114l1,.53q.24.17.18.36c-.05.13-.09.19-.14.19C62.92,115.08,62.51,115.09,62.26,114.69Z"/><path class="cls-17" d="M63.32,115.12l0-.55c.38.15,1,.31.79.75S63.51,115.47,63.32,115.12Z"/><path class="cls-18" d="M80.9,115l.62,0a3.46,3.46,0,0,1-.62.43c-.22.08-.58.08-.59-.19S80.64,115,80.9,115Z"/><path class="cls-1" d="M35.28,82.91c-6.4-.35-11.8-2.71-15.81-7.87-.41-.54-.89-1-1.33-1.55-.71-4.15-.26-8.32-.31-12.48a3.24,3.24,0,0,1,2.44-1.26,26.59,26.59,0,0,1,10-.15c1.43,1.14.22,2.18-.19,3.18-2.29,5.61-1.95,10.87,1.83,15.79,1.12,1.47,3,2.05,4,3.61C36,82.65,35.87,83,35.28,82.91Z"/><path class="cls-1" d="M126.32,73.5c-.22.26-.47.5-.67.78-4.07,5.68-9.74,8.29-16.58,8.68-.55.13-.71-.17-.71-.65a4.28,4.28,0,0,1,1.3-1.24c6.49-4.94,8-10.78,4.75-18.3-.42-1-1.74-2-.3-3.19a27.94,27.94,0,0,1,10,.13A4.17,4.17,0,0,1,126.62,61c0,3.5,0,7,0,10.51A5.28,5.28,0,0,1,126.32,73.5Z"/><path class="cls-19" d="M30.72,60.08A35,35,0,0,0,17.83,61l-.06-4.56c1.64-1,3.54-.76,5.29-.93,11.88-1.09,22,2.75,30.32,11.3a12.22,12.22,0,0,1,2.92,4.82c.53,1.62.18,1.92-1.8,1.72-1.93-.69-2.51-2.85-4.18-3.82a39.93,39.93,0,0,0-17.54-8.47A3.57,3.57,0,0,1,30.72,60.08Z"/><path class="cls-19" d="M126.62,61c-4.28-.93-8.57-1.58-13-.87a2.57,2.57,0,0,1-1.58.82c-6.77,1.34-12.65,4.53-18.08,8.66-1.7.87-2,3.2-4,3.8-1.81.08-2.17-.2-1.79-1.64a12.37,12.37,0,0,1,3.36-5.46,36.88,36.88,0,0,1,19.62-10.42,38.75,38.75,0,0,1,15.43.43Z"/><path class="cls-20" d="M50.82,69.3c1.68.94,2.53,2.64,3.68,4.06A72.22,72.22,0,0,1,58,82.21c.69,2.3.53,2.56-1.87,3a15.29,15.29,0,0,1-5.14,0L41,83.83a.48.48,0,0,1,0-.65c2-1.14,4.77-.91,6.61-3.27A4.39,4.39,0,0,1,44,75.7,5,5,0,0,1,48.35,70,7.22,7.22,0,0,0,50.82,69.3Z"/><path class="cls-21" d="M35.28,82.91l.5-.55A2.45,2.45,0,0,1,39,83c0,.13,0,.27,0,.4C37.7,83.32,36.42,83.59,35.28,82.91Z"/><path class="cls-22" d="M41,83.41a1.5,1.5,0,0,0,0,.42c-.74.06-1.5.22-2.1-.43l0-.06A1.43,1.43,0,0,1,41,83.41Z"/><path class="cls-20" d="M90,73.39c1.09-1.44,2-3,3.55-4.06.64.13,1,.65,1.83.66a5.12,5.12,0,0,1,5.23,4q.77,3.54-3.11,5.56a1.11,1.11,0,0,0-.65.51c1.7,2.27,4.53,2.09,6.83,3.08a.41.41,0,0,1,.15.42c0,.14-.08.22-.12.22-3.42.48-6.83,1-10.25,1.44A14.09,14.09,0,0,1,87.33,85c-1.09-.33-1.32-.91-1-1.93A70.43,70.43,0,0,1,90,73.39Z"/><path class="cls-23" d="M108.51,82.41l.56.55c-1.17.72-2.5.3-3.74.54l-.09-.39A2.57,2.57,0,0,1,108.51,82.41Z"/><path class="cls-24" d="M103.74,83.81a2.43,2.43,0,0,0,0-.38,1.11,1.11,0,0,1,1.62-.08l-.06.15C104.88,84,104.31,83.91,103.74,83.81Z"/><path class="cls-25" d="M41,83.41l-2.11-.07c-.9-.74-2.07-.66-3.1-1-8-3.84-9.91-13.61-5.77-20.91.25-.45.47-.92.7-1.37A37.26,37.26,0,0,1,50.82,69.3c-.15.61.45,1.63-1.07,1.42-2.85-.4-4.86,1.1-5.17,3.63-.38,3,.85,4.5,4.09,4.92a3.62,3.62,0,0,1,.49.19C47.16,82.46,44.14,83.06,41,83.41Z"/><path class="cls-25" d="M105.39,83.35l-1.62.08c-3.26-.2-6.25-1-8.67-4,2-.2,3.71-.48,4.59-2.3a4.5,4.5,0,0,0,.35-3c-.59-2.67-2.84-3.86-6.17-3.31-.26-.46.16-1-.29-1.46a37.93,37.93,0,0,1,20.08-9.22,20.06,20.06,0,0,1,2.73,6.6c1.55,6-2.21,13.44-7.88,15.7C107.57,83,106.26,82.47,105.39,83.35Z"/></g></g></svg>