<svg xmlns="http://www.w3.org/2000/svg" viewBox="0 0 145.13 145.25"><defs><style>.cls-1{fill:#daa087;}.cls-2{fill:#232b32;}.cls-3{fill:#a6958e;}.cls-4{fill:#fff;}.cls-5{fill:#f3543b;}.cls-6{fill:#f1573e;}.cls-7{fill:#e7785f;}.cls-8{fill:#5acfc9;}.cls-9{fill:#c2e4e3;}.cls-10{fill:#b5dfdd;}</style></defs><title>Sokka</title><g id="Layer_2" data-name="Layer 2"><g id="Layer_1-2" data-name="Layer 1"><path class="cls-1" d="M104.88,7.46a75.23,75.23,0,0,1,24.55,19.88,3.8,3.8,0,0,1,1.08,1.73,7.41,7.41,0,0,1,.68,3.53c-.29,8.41,2.15,16.17,5.6,23.7,2.92,6.37,5.57,12.82,6.6,19.83.65,4.41-.07,8.77-.17,13.15A73,73,0,0,1,88,143.52a63.07,63.07,0,0,1-15.39,1.72c-19.41-.41-36.41-6.93-50.53-20.55A72.65,72.65,0,0,1,2,89.69c-.51-2-.76-4.06-1.12-6.09C0,73.74,3.55,65,7.53,56.27,10.9,48.9,13.47,41.33,13,33.05c-.05-.79.33-1.52.33-2.3A67.05,67.05,0,0,1,28.73,14.66a59.13,59.13,0,0,1,10.9-6.78c3.62.6,6.87,2.29,10.23,3.6,6.61,2.58,13.34,4.8,20,7.07a7.58,7.58,0,0,0,4.8-.08C85,15.38,94.84,11.18,104.88,7.46Z"/><path class="cls-2" d="M104.88,7.46c.12.67-.29.85-.83,1-8.31,3.08-16.58,6.28-24.91,9.33A19.31,19.31,0,0,1,65,17.78c-8.1-2.93-16.12-6.05-24.19-9-.45-.17-1-.26-1.21-.85A72.33,72.33,0,0,1,80.19.39,77.23,77.23,0,0,1,104.88,7.46Z"/><path class="cls-3" d="M143.22,89.28c-.67-1.94-.35-4-.25-5.9.39-8.06-1.95-15.48-5.07-22.75-2-4.67-4.26-9.25-5.72-14.14a52.71,52.71,0,0,1-1.67-17.42,64.7,64.7,0,0,1,9.84,17.51,72.88,72.88,0,0,1,4.56,32.26A57,57,0,0,1,143.22,89.28Z"/><path class="cls-3" d="M13.29,30.75c.81,3,.51,6,.2,8.93-.73,6.84-3.63,13-6.35,19.2C4.59,64.7,2.3,70.58,1.58,77c-.24,2.18.11,4.46-.73,6.58A71.93,71.93,0,0,1,9,37.52,51,51,0,0,1,13.29,30.75Z"/><path class="cls-4" d="M58.38,71.23c.16,1.44.36,2.89.49,4.34.5,5.58-2.18,9.75-6.42,12.78-8.13,5.8-16.75,5.46-25.39,1.08a20.41,20.41,0,0,1-9-9.34C17,78,15.87,76,15,73.84a15.13,15.13,0,0,1-1.44-5.71,2.09,2.09,0,0,1,.16-2.43c4-6.15,8.74-11.36,16.25-13,3.16-.68,6.45-1.13,9.64.13.48,1.29-.6,1.72-1.35,2.13-7.82,4.26-6.78,17.5-2.61,22.36,3.78,4.39,13.14,6.75,17.16-1-2.23.14-4.21-.29-5.46-2.21a6.05,6.05,0,0,1-.76-5.2,5.17,5.17,0,0,1,5-4c.77,0,1.57,0,2.13-.66a1.48,1.48,0,0,1,1-.51C57.13,65.62,58.05,68.28,58.38,71.23Z"/><path class="cls-4" d="M131,68.59c-1,4.34-3,8.24-5.1,12.13a21.4,21.4,0,0,1-14.11,10.91c-7.46,2-14.68,1.3-20.76-3.87-4.27-3.63-6.8-8.24-5.44-14.19a16.11,16.11,0,0,0,.18-2.31c.61-3.1,1.59-6,4.17-8.08a1,1,0,0,1,.86.68c.12.83.56,1,1.42,1.06,3.71.19,5.43,1.88,5.62,5.33s-1.5,5.38-5,6.08c-.33.07-.7,0-.91.38,1.57,4.89,9,5.87,13.09,3.5a15.18,15.18,0,0,0,7-14.87c-.62-4.56-2.16-8.56-6.61-10.79-.61-.3-1.19-.76-.93-1.63,6.15-1.52,11.94-.69,17.11,3a29,29,0,0,1,9.34,10.47,12.59,12.59,0,0,1,.32,1.48A1.15,1.15,0,0,1,131,68.59Z"/><path class="cls-2" d="M46.74,25.09c6,.26,11.13,2.18,14.48,7.55a7.76,7.76,0,0,1,1.19,4.93c-.12,1.32-.72,1.87-2,1.75a20.81,20.81,0,0,1-3.31-.56c-6.47-1.63-13-1.21-19.54-.55-5.63.57-11,2.26-16.27,4.06a14.11,14.11,0,0,0-1.47.5c-1.21.55-2.46.71-3.27-.47s.11-2.14.75-3a24.08,24.08,0,0,1,6.12-5.92A47.21,47.21,0,0,1,45.7,25.1,9,9,0,0,1,46.74,25.09Z"/><path class="cls-2" d="M81.76,37.42a10.53,10.53,0,0,1,3-7.07A16.73,16.73,0,0,1,98.9,25.16,45.75,45.75,0,0,1,120.37,33a28.76,28.76,0,0,1,6,5.38,9.94,9.94,0,0,1,.78,1c.66.94,1.36,2,.55,3.07s-1.93.77-3.07.39a99.07,99.07,0,0,0-11.39-3.49c-8.79-1.77-17.61-2.61-26.47-.45a22,22,0,0,1-2.3.36C82.51,39.49,81.73,38.76,81.76,37.42Z"/><path class="cls-2" d="M130.59,67.18c-6.84-11.87-15.41-15.8-26-14-.8.91-2,.9-3,1.33a26.44,26.44,0,0,0-9.44,6.58c-.69.83-1.11,1.92-2.22,2.34A22.45,22.45,0,0,0,87,68.76a9.12,9.12,0,0,1-1.24,2.5,2.81,2.81,0,0,1-.72-2.84c1.51-9.24,10.12-18.3,19.29-19.86,7.16-1.22,13.9.41,20.2,3.95a36.6,36.6,0,0,1,9.66,7.75A14.94,14.94,0,0,1,136.17,63c1.15,2.19.41,4.11-1.85,5.06a6.52,6.52,0,0,1-3.29.53l-.23-.6A2.55,2.55,0,0,0,130.59,67.18Z"/><path class="cls-2" d="M58.38,71.23c-1.31-2.4-1.93-5.14-3.68-7.31-1.1-.44-1.51-1.52-2.2-2.35a24,24,0,0,0-10.69-7.32,4.66,4.66,0,0,1-2.26-1.13A27.34,27.34,0,0,0,32.32,53a18.79,18.79,0,0,0-9.73,3.86,39.16,39.16,0,0,0-7.5,7.82,6.56,6.56,0,0,0-1.57,3.49A4.86,4.86,0,0,1,8.38,67a3,3,0,0,1-.62-3.13,8.06,8.06,0,0,1,1.4-2.47c6.89-8.05,15.39-12.89,26.21-13.14,8-.19,14.16,3.15,18.77,9.56A31.55,31.55,0,0,1,59,67.48C59.37,68.77,59.85,70.19,58.38,71.23Z"/><path class="cls-5" d="M93.52,122.31a105.28,105.28,0,0,1-15.19,1.9c-5,.25-9.93,1-14.9,1.34a30.25,30.25,0,0,1-14-1.85c-2.64-1.07-4.91-5.46-4-9,.12-.49.24-1.1.82-1.21.76-.15,1,.5,1.23,1.06.25.73.41,1.49.62,2.24.65,2.32,2,4,4.47,4.48a27,27,0,0,0,5.6.82q9.6-.06,19.18,0a32.39,32.39,0,0,1,7.22.39,7.82,7.82,0,0,0,3.08-.1A19.33,19.33,0,0,1,93.52,122.31Z"/><path class="cls-6" d="M69.22,109.59a26.85,26.85,0,0,0-4.67-2.18c-1.25-.36-2.51-.44-4-.73-.1,2.31,1.4,3.65,2.72,5.17-2.76-.71-3.74-1.79-4.35-4.68a9.78,9.78,0,0,1,3.44-8.72c-.55,1.52-1.08,2.85-1.51,4.22-.66,2.09-.63,2.08,1.51,2.29,3.12.3,5.62,1.52,6.79,4.66Z"/><path class="cls-6" d="M75.91,108a7.82,7.82,0,0,1,6.23-3.09c1.63-.06,1.85-.35,1.39-1.89s-1.09-3-1.68-4.59c3.27,2.38,4.54,7.86,2.7,11.12a4.89,4.89,0,0,1-3.61,2.29c.63-.73,1.31-1.42,1.88-2.19a3.28,3.28,0,0,0,.84-2.65c-2.64-.46-4.85.74-7.14,1.63C76,108.74,75.81,108.53,75.91,108Z"/><path class="cls-7" d="M75.91,108l.61.63a4.82,4.82,0,0,1-2.08,1.77A3.31,3.31,0,0,1,75.91,108Z"/><path class="cls-6" d="M69.19,109.62c.08,0,.22.07.22.09,0,.18-.11.13-.19-.12Z"/><path class="cls-8" d="M39.55,53.12A22,22,0,0,1,53,61.27c-.07,1.21,1.14,2,1,3.24.39,1.68-.42,1.31-1.52,1-3.27-.81-5,1.59-5.52,4a5,5,0,0,0,3.57,6c1.08.29,2-.46,3-.16-.6,3.55-4,6.38-8,6.67-6.22.46-12.34-3.34-13.71-11.68a20.3,20.3,0,0,1,.36-8.73,11.8,11.8,0,0,1,6.15-7.6A2,2,0,0,0,39.55,53.12Z"/><path class="cls-9" d="M54,64.51c-.45-1-1.64-1.85-1-3.23a9.26,9.26,0,0,1,1.68,2.64Z"/><path class="cls-8" d="M91.64,60.79c3.56-3.85,7.64-6.82,13-7.65.16.2.28.5.49.59,4.85,2,7,6,7.48,10.93C113.17,70,112.1,75,108,78.89A11.37,11.37,0,0,1,97.79,82a9,9,0,0,1-7.34-6.35c1.4-.46,2.75.42,4-.28a4.77,4.77,0,0,0,2.61-3,5.75,5.75,0,0,0-1.54-6c-1.6-1.47-3.46-1.17-5.37-.22-.41-.86.29-1.5.32-2.22C90.45,62.73,91.55,61.94,91.64,60.79Z"/><path class="cls-10" d="M91.64,60.79c.56,1.38-.77,2.09-1.12,3.15l-.59-.55A8.51,8.51,0,0,1,91.64,60.79Z"/><path class="cls-1" d="M130.59,67.18c.4.19.34.49.21.82C130.4,67.81,130.43,67.51,130.59,67.18Z"/></g></g></svg>