<svg xmlns="http://www.w3.org/2000/svg" viewBox="0 0 145.26 145.01"><defs><style>.cls-1{fill:#232b32;}.cls-2{fill:#ffead5;}.cls-3{fill:#5f6466;}.cls-4{fill:#99918d;}.cls-5{fill:#b8d3c0;}.cls-6{fill:#fff;}.cls-7{fill:#f6745c;}.cls-8{fill:#d1c1b2;}.cls-9{fill:#d2ccbb;}.cls-10{fill:#7b837d;}.cls-11{fill:#907f79;}.cls-12{fill:#99988f;}.cls-13{fill:#7b6f6c;}.cls-14{fill:#f3543b;}.cls-15{fill:#f45940;}.cls-16{fill:#f45b42;}.cls-17{fill:#f89179;}.cls-18{fill:#f8937c;}.cls-19{fill:#f88d76;}</style></defs><title>Toph</title><g id="Layer_2" data-name="Layer 2"><g id="Layer_1-2" data-name="Layer 1"><path class="cls-1" d="M9.9,109.51A73.32,73.32,0,0,1,2.57,91.85C-4.22,64,2.4,39.78,22.93,19.73,34.35,8.57,48.35,2.41,64.23.51a72.15,72.15,0,0,1,79.15,56.34c5.6,25.78-1.38,48.4-19.78,67.39a5.58,5.58,0,0,1-.6.49c-.59.13-.79-.25-.94-.7a4.8,4.8,0,0,1,.69-2.71,74.84,74.84,0,0,0,6.17-34.74,56.41,56.41,0,0,0-1.75-9.9c-.61-2.43-1.51-4.76-2.31-7.14a5.54,5.54,0,0,0-4.45-3.81,19.52,19.52,0,0,0-8.47,0c-6.93,1.08-12.63,4.61-17.83,9.08-.85.73-1.6,1.55-2.51,2.2-.18.15-.36.3-.53.47l-.45.54a8.7,8.7,0,0,0-2.19,3.68c-3.21,7.65-5.79,15.57-10.08,22.74-.27.44-.47.92-.76,1.35-.56.83-1.22,1.59-2.31,1.3S74.13,105.84,74,105a13.48,13.48,0,0,1,0-3.11c1.8-14.94-.78-29.46-4.15-43.91-1.74-7.41-3.57-14.81-4.41-22.38-.37-3.41-1-6.84-.68-8.81a148.07,148.07,0,0,0-6.21,26.9c-.32,2.65-.58,5.32-.79,8a5.35,5.35,0,0,0,1.82,4.64,16.26,16.26,0,0,1,3,3.52c1.24,2.06,1.08,2.73-1.19,3.32-1.58.41-2,1-1.28,2.5a3.68,3.68,0,0,1-.62,4.53c-1.17,1.23-.66,2.77-.39,4.2,1.26,6.71,5,12.06,9.26,17.16A8.59,8.59,0,0,1,70.17,104a1.36,1.36,0,0,1,0,.8c-1.69,1.11-2.81-.48-4.15-.93a6.51,6.51,0,0,1-2.33-1.53,9.85,9.85,0,0,0-1.42-1.16A45,45,0,0,1,54,91.57c-.83-1.36-1.62-2.76-2.4-4.15A47.31,47.31,0,0,1,46.57,73.9a5.43,5.43,0,0,0-3-4,36.4,36.4,0,0,0-11.08-4.2c-2.48-.24-4.92-.73-7.45-.23A3.88,3.88,0,0,0,21.62,69c-.86,4.62-.66,9.26-.7,13.91.46,11.63,2.35,22.9,8.28,33.17a7,7,0,0,1,1.16,2.56,1.45,1.45,0,0,1-.19.79c-1.18.56-2-.27-2.76-.86a31.54,31.54,0,0,1-10-11.59c-3.29-6.94-5.89-14.12-6.29-21.9a4.89,4.89,0,0,1,0-.68,9.29,9.29,0,0,0,0,1.21A84.2,84.2,0,0,1,10.65,97c-.44,3.26.73,6.5.42,9.78C11,107.76,11.4,109.06,9.9,109.51Z"/><path class="cls-2" d="M127.67,76.35c1.91,5.36,2.24,10.93,2.21,16.55-.07,10.27-2.89,19.91-6.71,29.32-.25.64-.52,1.27-.78,1.91-.26.34-.07.81-.35,1.15s-.42.69-.67,1a72.84,72.84,0,0,1-12,8.88,72,72,0,0,1-20.58,8.17A68.39,68.39,0,0,1,74.18,145a71.35,71.35,0,0,1-46.85-15.58,69.26,69.26,0,0,1-15-16.29c-.8-1.21-1.62-2.41-2.42-3.62.83-.68.44-1.6.39-2.4a115.58,115.58,0,0,1,.07-17.75c.12-1.54.34-3.07.52-4.6.14-.27.27-.28.4,0a81.07,81.07,0,0,0,5.79,20.09,34,34,0,0,0,13,14.77c.35-.22.17-.45,0-.67a56,56,0,0,1-8.45-23c-.46-3.66-1.28-7.28-1.45-11,0-.59,0-1.19.06-1.79,1.44-.19,1.85,1,2.5,1.88a33.38,33.38,0,0,0,9.76,9.11c4.15,2.37,8.57,3.5,13.41,2.39a12.34,12.34,0,0,0,6.4-3.66c.6-.63.95-1.75,2.2-1.41A71.5,71.5,0,0,0,63,101.2c0,1.76-1.65,2.81-1.91,4.46-1.55,3.54-.61,6.35,2.48,8.5,0,0,.07,0,.07,0l-.13-.15a7.86,7.86,0,0,1-2.25-2.82c-.28-.7-.77-1.45-.07-2.13s1.31-.22,1.92.07a17.25,17.25,0,0,1,3.61,2l1.45,1.38a.27.27,0,0,1,.14.36c.13-.13.09-.24-.11-.33-.45-.46-.88-.92-1.34-1.36-1.48-1.93-4.11-2.38-5.58-4.34-.45-2.23,1.06-3.63,2.2-5.19A27.24,27.24,0,0,0,70,105.07c.35-.23.14-.42,0-.62a87.48,87.48,0,0,1-7.41-9.64A29.75,29.75,0,0,1,58,81.73c-.07-.91-.27-1.8,1.11-2.21,1.17-.35,1.27-1.51.82-2.61-.52-1.27-1.07-2.52-1.67-3.92A17.14,17.14,0,0,0,63,72a12.67,12.67,0,0,0-4-5.23,5.46,5.46,0,0,1-2-4.95c.37-10.62,4.25-29,8.2-37.66.17,2.21.37,4,.44,5.82.34,8.16,2.2,16.06,4,24,2.18,9.59,4.43,19.17,5.33,29a92.63,92.63,0,0,1,0,16.57c-.17,1.89-.26,3.79-.36,5.69,0,.61,0,1.3.67,1.53s1.21-.4,1.57-1a89.68,89.68,0,0,0,5.06-9.91q2.84-6.81,5.61-13.64c.17-.4.21-.85.6-1.12.72.57.62,1.36.56,2.13a12.85,12.85,0,0,0,9,13.12,16.16,16.16,0,0,0,11.82-.89,30,30,0,0,0,12.73-11A49.13,49.13,0,0,0,126,78.2C126.37,77.44,126.71,76.6,127.67,76.35Z"/><path class="cls-3" d="M121.81,125.11a1.26,1.26,0,0,1,.58-1l.61.6a1.71,1.71,0,0,1-1.09,1.07A.49.49,0,0,1,121.81,125.11Z"/><path class="cls-4" d="M121.81,125.11c0,.23.07.46.1.69a.56.56,0,0,1-.54.48A1.22,1.22,0,0,1,121.81,125.11Z"/><path class="cls-5" d="M90.84,77c5.79-5.92,12.49-10.25,20.74-11.9,4.9,3.05,6.25,7.89,6.21,13.17a19.28,19.28,0,0,1-2.2,8.73c-3,5.78-8.65,8.52-14.67,6.93C94.66,92.24,89.8,86,90.1,80,90.16,78.9,90.77,78,90.84,77Z"/><path class="cls-2" d="M48.83,20.49C47.73,25.63,46.65,30.77,46,36a116.6,116.6,0,0,0-.9,19.13c0,.6,0,1.2,0,2.12-2.5-1-4.83-2-7.21-2.87s-4.66-2-7.33-2.09c4.85,3.92,10.58,6.58,15,11.13-7.27-2.73-14.82-3.33-22.7-3.48.25-.91.47-1.79.74-2.65C27.42,45,34.15,34.46,42.76,25a40.83,40.83,0,0,1,5.31-5.29C48.66,19.65,49,19.83,48.83,20.49Z"/><path class="cls-5" d="M33.06,65.11A36,36,0,0,1,45.13,70a3.83,3.83,0,0,1,2,2.82,53.4,53.4,0,0,0,5.11,14.5,13.76,13.76,0,0,1-12.85,6.8c-5.17-.19-8.7-3.09-10.74-7.74-2.74-6.24-2.86-12.41,1-18.31A7.14,7.14,0,0,1,33.06,65.11Z"/><path class="cls-2" d="M99.58,62.4c3.8-3.31,8.22-5.7,12.41-8.43A5.1,5.1,0,0,0,114.21,52c-2.85.21-5,1.38-7.3,2.2S102.42,56,100.22,57s-4.47,2.16-7,3.39A161,161,0,0,0,94.94,28c.89.42,1.09,1.12,1.43,1.66,3.38,5.38,7.75,9.94,12.08,14.53,3.44,3.64,6.82,7.34,9.94,11.27a20.86,20.86,0,0,1,2.73,4.35c-7.07.38-13.92.77-20.46,3.11C100.09,63.19,99.55,63.36,99.58,62.4Z"/><path class="cls-6" d="M90.84,77c.49.41.34.9.24,1.42C89.28,88,99.48,96,108.22,93c4.27-1.49,6.62-4.87,7.89-9a19.39,19.39,0,0,0,.55-10.44,14.88,14.88,0,0,0-4.25-7.26c-.37-.36-.85-.6-.84-1.21a19.64,19.64,0,0,1,10.64.38,3.88,3.88,0,0,1,2.85,2.62c.91,2.75,2.19,5.38,2.61,8.28a46.4,46.4,0,0,1-10,14.33c-4.52,4.19-9.72,7.13-16.16,7-5.94-.13-12.31-5.14-13.74-10.8a5.19,5.19,0,0,1,.1-3.07A6.53,6.53,0,0,0,88.12,81c.09-1.57,1.19-2.52,2.2-3.52A1.07,1.07,0,0,1,90.8,77Z"/><path class="cls-6" d="M33.06,65.11a10.3,10.3,0,0,1-1,1.18c-4.48,4.09-5.22,9.35-4.43,14.94a17.13,17.13,0,0,0,3.41,8,11.68,11.68,0,0,0,13.49,3.52c2.55-1.09,5-2.35,6.55-4.84a1.32,1.32,0,0,1,1.11-.54l2.28,4.09c-1.53,1.22-2.46,3-4.25,4a15.07,15.07,0,0,1-9.63,2.09,22.84,22.84,0,0,1-13.94-7.13c-1.84-1.94-3.86-3.7-5.15-6.09a3,3,0,0,0-1.3-1.22,68.25,68.25,0,0,1,1-16.21c.22-1.42,1.19-1.59,2.15-1.82A20,20,0,0,1,33.06,65.11Z"/><path class="cls-7" d="M63.52,101.64c-.59,1.79-2.11,3.27-1.76,5.37-1.36.2-.71-1-1.1-1.54.31-1.69,1.69-2.79,2.38-4.27A.47.47,0,0,1,63.52,101.64Z"/><path class="cls-8" d="M99.58,62.4c.23.44.69.44,1.08.55A7.08,7.08,0,0,1,98,64.11a.42.42,0,0,1,0-.67C98.58,63.11,98.93,62.54,99.58,62.4Z"/><path class="cls-9" d="M48.83,20.49l-.76-.75c.23-.44.64-1.07,1-.77S49.29,20,48.83,20.49Z"/><path class="cls-10" d="M98.05,63.44c0,.23,0,.45,0,.67-.2.37-.6.49-.71.11S97.67,63.59,98.05,63.44Z"/><path class="cls-11" d="M70,104.45c.4.17,1,.28.7.88-.11.24-.55.12-.67-.26Z"/><path class="cls-12" d="M11.28,84.76h-.4a1.77,1.77,0,0,1-.07-.5c0-.25.14-.69.2-.69.46,0,.29.43.34.69A2.31,2.31,0,0,1,11.28,84.76Z"/><path class="cls-13" d="M30.05,119c.34.19.71.43.44.87-.13.2-.37,0-.45-.2Z"/><path class="cls-5" d="M90.8,77a.45.45,0,0,1-.48.46A.44.44,0,0,1,90.8,77Z"/><path class="cls-14" d="M51.59,121.18c2,2,4.38,2.39,7.11,2.08a113.43,113.43,0,0,1,13.66-1.21,113.09,113.09,0,0,1,13.15,1.18c2.8.34,5.25,0,7.32-2.09.6,2,.5,2.4-.92,3.22a10,10,0,0,1-6.24,1.26c-4.12-.44-8.25-.83-12.37-1.26-2.26-.23-4.47.33-6.72.43-2.49.12-5,.45-7.47.79a10.72,10.72,0,0,1-6.29-1C51.27,123.8,51.11,123.27,51.59,121.18Z"/><path class="cls-15" d="M76.18,112.22a15.14,15.14,0,0,1,5-4.55c2-1,1.94-1,1.12-3.06-.15-.39-.29-.79-.44-1.18-.19-.54,0-.64.52-.51.31.52.64,1,.94,1.55,2.46,4.38,1.61,8.42-4.13,11,1.54-2.24,3.62-3.6,3.79-6.32-2.42.56-4.21,2-6.2,3.08A.41.41,0,0,1,76.18,112.22Z"/><path class="cls-16" d="M60.66,105.47c.69.29.32,1.33,1.1,1.54a12.72,12.72,0,0,1,5.65,4.16c.11.5-.07.73-.59.61a32.33,32.33,0,0,0-5.4-2.67c0,2.42,1.74,3.63,2.86,5.19.14.5,0,.73-.55.56-.48-.35-1-.67-1.44-1C59.49,111.58,59,109.18,60.66,105.47Z"/><path class="cls-17" d="M66.82,111.78l.59-.61a1.92,1.92,0,0,1,1.14,1.47l-.18.18A2.17,2.17,0,0,1,66.82,111.78Z"/><path class="cls-17" d="M63.73,114.86l.55-.56a3.68,3.68,0,0,1,.59.42c.22.22.52.52.23.81s-.58,0-.84-.18A3.46,3.46,0,0,1,63.73,114.86Z"/><path class="cls-18" d="M82.41,102.92l-.52.51c-.37-.35-.75-.9-.33-1.21S82.22,102.55,82.41,102.92Z"/><path class="cls-19" d="M76.18,112.22l.63.06a1.77,1.77,0,0,1-.29.41c-.25.22-.66.6-.85.36C75.29,112.58,75.82,112.4,76.18,112.22Z"/><path class="cls-17" d="M68.55,112.64l.19.38-.37-.2Z"/></g></g></svg>