<svg xmlns="http://www.w3.org/2000/svg" viewBox="0 0 145.52 145.25"><defs><style>.cls-1{fill:#fff;}.cls-2{fill:#daa087;}.cls-3{fill:#5acfc9;}.cls-4{fill:#a6958e;}.cls-5{fill:#232b32;}.cls-6{fill:#f3533a;}.cls-7{fill:#f1573e;}.cls-8{fill:#f2563d;}.cls-9{fill:#e57a61;}.cls-10{fill:#7c7069;}.cls-11{fill:#e8735a;}</style></defs><title>Yue_1</title><g id="Layer_2" data-name="Layer 2"><g id="Layer_1-2" data-name="Layer 1"><path class="cls-1" d="M140.35,46.58a64.7,64.7,0,0,0-9.84-17.51h0a3.8,3.8,0,0,0-1.08-1.73A75.23,75.23,0,0,0,104.88,7.46,77.23,77.23,0,0,0,80.19.39,72.33,72.33,0,0,0,39.63,7.88h0a59.13,59.13,0,0,0-10.9,6.78A67.05,67.05,0,0,0,13.29,30.75,51,51,0,0,0,9,37.52,71.93,71.93,0,0,0,.85,83.6h0c.36,2,.61,4.09,1.12,6.09a72.65,72.65,0,0,0,20.14,35c14.12,13.62,31.12,20.14,50.53,20.55A63.07,63.07,0,0,0,88,143.52a73,73,0,0,0,55.19-54.24,57,57,0,0,0,1.69-10.44A72.88,72.88,0,0,0,140.35,46.58Z"/><path class="cls-2" d="M7.69,64.79a41.25,41.25,0,0,1,2.75-5.87,108.47,108.47,0,0,0,8-20.19,26,26,0,0,0,1.32-7.37,3.1,3.1,0,0,1,1.84-2.88A51.46,51.46,0,0,1,37.86,22.6a121,121,0,0,1,15-1.31,54.8,54.8,0,0,1,9.83.39c4.14.52,7-1.25,9.3-4.36.15-.21.33-.4.5-.6.81.34,1,1.18,1.53,1.73,2.06,2.15,4.34,3.46,7.53,3.26a143.31,143.31,0,0,1,17.34-.09c8.63.52,16.9,2.37,24.48,6.78a3.4,3.4,0,0,1,1.89,3.05,38.79,38.79,0,0,0,2.18,10.09c2.29,6.43,4.51,12.89,8,18.81.82,1.41,1.42,2.94,2.12,4.42-.07,1.43-.48,2.56-2.24,2.46-4.84-8-12.48-11.54-21.28-13.22a29.91,29.91,0,0,0-16.54,1.54c-4.91,1.85-8.66,4.94-10.09,10.3A4.25,4.25,0,0,0,88,70c.29,2.31-.74,4.39-1.19,6.57a13.11,13.11,0,0,0,.86,7.59,6.25,6.25,0,0,0,5.36,4.3A78.36,78.36,0,0,0,115.21,88c2.72-.47,4.48-2.41,6.17-4.42,2.07-2.44,3.41-5.39,5.48-7.82,1.06-.15,1.56-1,2.08-1.76,1.33-1.78,3-3.21,4.43-4.93.52-.63,1.38-1.61,2,0-.52,4.9-1.51,9.72-2,14.63-.7,7.57-1.37,15.14-.25,22.73a2.9,2.9,0,0,1-.32,2.48,27.67,27.67,0,0,0-11.19,6.74c-3.64,3.82-5.63,8.27-5.27,13.58a2.25,2.25,0,0,1-1.13,2.3A71.42,71.42,0,0,1,85,144.12a70,70,0,0,1-13.41,1,72.06,72.06,0,0,1-35.9-10.35c-2-1.21-3.9-2.57-5.85-3.85a2.52,2.52,0,0,1-1.21-2.38c.13-9-5.2-14.22-12.48-18.1-1.2-.64-2.53-1.07-3.8-1.6a3.59,3.59,0,0,1-.4-2.75c1.6-7.92.21-15.79-.46-23.67-.4-4.63-1.24-9.21-2-13.79.44-1.5,1.14-.8,1.78-.19,1.18,1.12,2,2.53,3.13,3.68a9,9,0,0,0,2.92,2.39,35,35,0,0,1,3.85,5.52c3.35,5.24,7.59,8.81,14.24,8.78,4.75,0,9.52.3,14.26-.07,6.33-.48,9.48-4.57,8.78-10.94a25.75,25.75,0,0,0-1-4.56,7.28,7.28,0,0,1-.52-3.3,4.84,4.84,0,0,0,.48-5.12c-2-5.26-6.11-8.31-11.29-9.81-11.71-3.41-22.31-1-31.8,6.56a12.89,12.89,0,0,0-4.23,6.05C8.34,67.33,8.16,67.12,7.69,64.79Z"/><path class="cls-3" d="M135.38,67.31l2.13-2.54A8.44,8.44,0,0,1,143,63.62c1.8.14,2.17.38,2.29,2.13a89.51,89.51,0,0,1,0,13.7,72.47,72.47,0,0,1-5.63,21.94c-.64,1.51-1.48,2.94-2.07,4.46-.84,2.19-2.24,3.37-4.67,3-1.45-6.55-1.25-13.14-.66-19.78.34-3.77.74-7.53,1.14-11.29.29-2.66.84-5.26,1.39-7.87a7,7,0,0,0,.25-2C134.81,67.52,134.94,67.32,135.38,67.31Z"/><path class="cls-3" d="M7.69,64.79l2.23,3,0,0c.55,3.38,1.49,6.69,1.78,10.12.32,3.85.9,7.67,1.26,11.51.2,2.22.21,4.45.47,6.68a33.3,33.3,0,0,1-.61,9.23c-.19,1.18-.23,2.39-.49,3.57-1.68.23-2.66-.49-3.45-2A74.58,74.58,0,0,1,1,82.08a95.42,95.42,0,0,1-.37-16c.1-2.29.34-2.39,2.65-2.47A9.89,9.89,0,0,1,7.69,64.79Z"/><path class="cls-1" d="M127.67,75.6c-2,2.61-3.35,5.61-5.53,8.07-.63.71-1.26,1.41-1.88,2.13a10.27,10.27,0,0,1-7,3.29,106.72,106.72,0,0,1-14.19.48,58.22,58.22,0,0,1-6.18-.37,6.68,6.68,0,0,1-5.44-3.83,13.56,13.56,0,0,1-1.09-10c.49-1.74.93-3.49,1.38-5.23a3,3,0,0,1,1-2.51c1-.42,2-1,3-1.45,4.14-1.85,7.78.38,8,4.92.3,4.84-2.65,7.84-8.51,8.45,1.19,3.71,4,5.48,7.37,6.53,8.47,2.7,17.64-3.2,19-12A19.1,19.1,0,0,0,114,59c-.58-.77-1.92-1.78.08-2.56,5.7.35,14,6.67,15.8,12a6.25,6.25,0,0,1-.78,5.44C128.73,74.52,128.47,75.28,127.67,75.6Z"/><path class="cls-1" d="M57.2,70.07a44.36,44.36,0,0,1,1.83,7,12.7,12.7,0,0,1-1.66,8.74,6.54,6.54,0,0,1-5.47,3.41c-7.51.56-15,.74-22.47-.57a6.63,6.63,0,0,1-3.38-1.74c-3.62-3.2-6.15-7.21-8.55-11.33-.21-.36-.3-.82-.74-1-2.32-1.92-2.4-4.49-1.24-6.81a20.66,20.66,0,0,1,15.1-11.37c2.2.71.81,1.88.23,2.72a20.36,20.36,0,0,0-3.68,13.23A15.05,15.05,0,0,0,46.4,86.12a12.09,12.09,0,0,0,7.65-6.8c-5.2.11-7.79-1.78-8.77-6.45a6,6,0,0,1,2.13-6.29c1.9-1.5,4.05-1.29,6.12-.33a11.65,11.65,0,0,0,2.67,1C57,68,57.62,68.85,57.2,70.07Z"/><path class="cls-4" d="M58.41,49.62l-1.2-.22a78.15,78.15,0,0,0-20.07-1.23A88.79,88.79,0,0,0,21.61,50.5a5,5,0,0,1-1,.16c-.43,0-.89,0-1.14-.42a1,1,0,0,1,.17-1.19,25.31,25.31,0,0,1,7.07-6.73c5.81-4,12.4-5.08,19.26-4.56a27.71,27.71,0,0,1,9.87,2.93A11.34,11.34,0,0,1,61,45.93C62.31,48.51,61.59,49.73,58.41,49.62Z"/><path class="cls-4" d="M124.31,50.65c-2.06-.39-3.83-.7-5.6-1a78.37,78.37,0,0,0-20.26-1.43,60.79,60.79,0,0,0-11,1.27c-1.26.31-2.86.83-3.75-.71s.1-2.81.94-4c2.82-4,7.16-5.56,11.66-6.43,10.89-2.09,20.26.84,27.83,9.08a10.75,10.75,0,0,1,1.07,1.44,1.28,1.28,0,0,1,.2,1.45C125.09,50.79,124.51,50.62,124.31,50.65Z"/><path class="cls-5" d="M88.91,67.73a8.74,8.74,0,0,1-1.19,2.41c-1.66-.54-1.58-1.84-1.34-3.17a14.65,14.65,0,0,1,6.09-9.56A21.84,21.84,0,0,1,102,53.54c12.16-1.94,22.88.86,31.59,10,1,1.07,2,2.19,1.84,3.82-.12.21-.25.41-.38.61a81.82,81.82,0,0,1-5.74,6.59c-.51.13-.78,0-.6-.58,1.79-3.83.52-6.93-2.21-9.78a24.18,24.18,0,0,0-12.17-7.36c-3.22.3-6.43-.64-9.7.16-5.8,1.42-10.87,3.82-14,9.18A3.28,3.28,0,0,1,88.91,67.73Z"/><path class="cls-5" d="M57.2,70.07l-1.29-2.78a5.74,5.74,0,0,1-2.1-2.19c-4.65-6.25-11.1-8.64-18.63-8.44-1.51,0-3,.05-4.54.16-5.33,1.26-9.49,4.33-13,8.41-2.51,2.91-2.69,6-.88,9.32-.56.7-.86,0-1.17-.26a84.3,84.3,0,0,1-5.7-6.53l0,0c-.62-1.87.48-3.13,1.59-4.36a31.23,31.23,0,0,1,15-9.13,33.12,33.12,0,0,1,19.83,0c5.76,1.9,10.3,5.17,12,11.39a8.5,8.5,0,0,1,.32,2.55A1.64,1.64,0,0,1,57.2,70.07Z"/><path class="cls-6" d="M60.05,123.8c-2.28-.25-4.55-.63-6.4-2.26-.59-.52-.93-1.13-.54-1.81.47-.83,1.18-.39,1.8-.09a5.36,5.36,0,0,1,1.69,1.56c1.06,1.33,1.44,1.39,2.67.27a36.76,36.76,0,0,0,3.45-3.5c2.27-2.73,5-3.07,8.13-1.79a3.89,3.89,0,0,0,3.22,0c3.09-1.29,5.86-1,8.14,1.77a29.93,29.93,0,0,0,3.46,3.48c1.21,1,1.66.94,2.82-.18.62-.6,1.22-1.22,1.89-1.75a1.12,1.12,0,0,1,1.63.15c.53.63.14,1.12-.32,1.56a8.7,8.7,0,0,1-7.35,2.4,22.31,22.31,0,0,0-9.45.45,6.85,6.85,0,0,1-4.08.11,19.84,19.84,0,0,0-10.2-.43A4.31,4.31,0,0,1,60.05,123.8Z"/><path class="cls-7" d="M82.11,96.41c4.26,3.4,3.94,10.5-.36,12.84.62-1.4,1.62-2.43,1.66-3.91-2.92-.67-4.57,1.68-7.11,2.76,1.37-2.85,2.5-5.45,6-5.56,1.2,0,1.38-.69,1.36-1.7C83.6,99.33,82.46,98.21,82.11,96.41Z"/><path class="cls-8" d="M61.82,108.27c-2.81-4-2.81-6.73,0-10.88.47-.12.72,0,.55.54-.28.71-.61,1.42-.82,2.16-.53,1.89-.35,2.18,1.59,2.46,3.08.44,4.32,2.68,5.5,5.54-2.44-1.25-4.22-3.21-6.9-2.85a3.92,3.92,0,0,0,.63,2.51C62.5,108.26,62.28,108.39,61.82,108.27Z"/><path class="cls-9" d="M62.35,97.93l-.55-.54L63.67,95C63.87,96.3,63,97.05,62.35,97.93Z"/><path class="cls-10" d="M128.66,73.93l.6.58c-.4.56-.53,1.49-1.59,1.09A3.45,3.45,0,0,1,128.66,73.93Z"/><path class="cls-11" d="M61.82,108.27l.53-.52a2.21,2.21,0,0,1,.4.28c.28.29.71.64.3,1s-.73,0-1-.35A1.61,1.61,0,0,1,61.82,108.27Z"/><path class="cls-3" d="M88.91,67.73c3-6.41,8.28-9.85,15-11.32a20.31,20.31,0,0,1,10.38.38c-.24.22-1,0-.62.71a15.25,15.25,0,0,0,1.17,1.38c5.57,7.16,5,18.29-1.09,24.23-4.18,4-12.56,6.14-18.69,2.13a13.16,13.16,0,0,1-5.24-6.65A1.12,1.12,0,0,1,91,78.51a5.73,5.73,0,0,0,6.47-2.06,7.29,7.29,0,0,0,1.34-7.3c-1.15-3.17-4.3-4-7.49-2.09C90.61,67.49,90,68.65,88.91,67.73Z"/><path class="cls-3" d="M30.64,56.82c8.8-2.68,18.55,1,23.09,7a11.12,11.12,0,0,1,2.18,3.47c-.32.27-.32,1.12-1.09.58a13.1,13.1,0,0,0-2-1.28c-3.45-1.63-6.9.57-7.11,4.49-.29,5.47,4.09,8.75,9.73,7a13.49,13.49,0,0,1-7.43,8.25c-7.25,3.16-17.56-.37-20.48-8.89a19.42,19.42,0,0,1,2.75-18.68,9.18,9.18,0,0,0,1-1.2C31.68,56.79,30.89,57,30.64,56.82Z"/></g></g></svg>