<svg xmlns="http://www.w3.org/2000/svg" viewBox="0 0 420.09 420.27"><defs><style>.cls-1{fill:#fff;}.cls-2{fill:#ffead5;}.cls-3{fill:#5acfc9;}.cls-4{fill:#242c32;}.cls-5{fill:#252c33;}.cls-6{fill:#f56148;}.cls-7{fill:#f56048;}.cls-8{fill:#f45d44;}.cls-9{fill:#f45d45;}.cls-10{fill:#f45b42;}.cls-11{fill:#f6725a;}.cls-12{fill:#f56249;}.cls-13{fill:#f5664e;}.cls-14{fill:#f67f67;}.cls-15{fill:#f78169;}.cls-16{fill:#f67058;}.cls-17{fill:#f67b63;}.cls-18{fill:#f7856d;}.cls-19{fill:#fbb9a3;}.cls-20{fill:#f78a73;}.cls-21{fill:#f77d64;}.cls-22{fill:#fcc7b1;}.cls-23{fill:#fbb8a2;}.cls-24{fill:#f99d86;}.cls-25{fill:#f88a73;}.cls-26{fill:#f9977f;}.cls-27{fill:#faa58e;}.cls-28{fill:#626060;}.cls-29{fill:#f9a28b;}.cls-30{fill:#f88e77;}.cls-31{fill:#fbbba4;}.cls-32{fill:#606463;}.cls-33{fill:#f99e86;}.cls-34{fill:#f78c74;}.cls-35{fill:#989d93;}.cls-36{fill:#918983;}.cls-37{fill:#5c4e4f;}.cls-38{fill:#8b7b76;}.cls-39{fill:#fa9882;}.cls-40{fill:#f9927b;}.cls-41{fill:#fba992;}.cls-42{fill:#faaa93;}.cls-43{fill:#fa9f42;}</style></defs><g id="Layer_2" data-name="Layer 2"><g id="Layer_1-2" data-name="Layer 1"><circle class="cls-1" cx="210" cy="210" r="210"/><g id="Layer_2-2" data-name="Layer 2"><g id="Layer_1-2-2" data-name="Layer 1-2"><path class="cls-2" d="M124.56,365.68c-7,6.75-14,13.38-20.9,20.27a5.48,5.48,0,0,1-7.72.77l-.25-.22c-5.78-4-11.56-7.67-17-12.16-6.47-5.44-12.89-11-18.84-17.06a220.74,220.74,0,0,1-31.47-41.67A213.81,213.81,0,0,1,5.6,258a227.48,227.48,0,0,1-4.24-27.22A167.52,167.52,0,0,1,.11,207.61a214.37,214.37,0,0,1,14.43-73.56A207.11,207.11,0,0,1,46,79a209.81,209.81,0,0,1,61-51.95A237.56,237.56,0,0,1,160.39,5.86c3.56-1,7.29-1.5,10.93-2.26a10.49,10.49,0,0,1,1.91,5.59c2.68,15.06,6.32,29.91,10.37,44.65,2.31,8.49,1,10.75-7.31,13.09C166.06,69.83,166,69.83,172,78.8c11.3,16.83,22.63,33.65,33.38,50.82,3.93,6.26,4.39,6.2,8.41,0,11.68-18.09,23.24-36.28,35.75-53.83,4.36-6.14,4.16-6.28-3.58-8-2.2-.49-4.37-1-6.51-1.71-4-1.27-5.78-3.82-4.74-8,4.71-16.91,8.44-34,12-51.2a7.8,7.8,0,0,1,1.85-3.21,207.11,207.11,0,0,1,89.15,39.84,205.52,205.52,0,0,1,64.36,82.16,192.09,192.09,0,0,1,15.06,52.12,208.26,208.26,0,0,1,2.89,35.7,220.32,220.32,0,0,1-14.8,73.61,213.62,213.62,0,0,1-30.77,53.77,195,195,0,0,1-51.42,46.34c-1.47.92-2.69,2.4-4.54.6a260.37,260.37,0,0,0-22.22-21.08c5.4-.95,9.22,3.22,14.88,3.16a20,20,0,0,0-5.52-8.46,123,123,0,0,0-26-18.82,132.81,132.81,0,0,0-49.13-17.37,142.11,142.11,0,0,0-35.63-.67,139,139,0,0,0-45,12.54c-15,7.41-29.56,15.72-40.46,29-.78,1-2,1.59-1.91,3.47,6.19.93,10.84-4.63,16.82-4.14Z"/><path class="cls-3" d="M248.63,3.69A313.75,313.75,0,0,1,239.09,49c-.2.72-.41,1.45-.58,2.2-3.32,14-6,10.77,9.25,15,2.6.75,5.46,0,8,1.21-1.06,4-37.28,60.26-45.6,70.75-1.91.17-2.4-1.42-3.15-2.61-13.12-20.68-26.5-41.18-40.46-61.3q-.87-1.22-1.62-2.52c-2.14-3.85-1.85-4.37,2.6-5.07,16.62-2.58,16.71-2.6,12.55-18.44-3.18-12-6.05-24.18-8.39-36.37a20.1,20.1,0,0,1-.37-8.17A280.88,280.88,0,0,1,216,.27C227,.65,237.79,2.44,248.63,3.69Z"/><path class="cls-2" d="M146.06,410.77A37.17,37.17,0,0,1,156.15,397a202.22,202.22,0,0,1,20.51-17.37c12.55-9.5,27.08-10.11,42-8.83,13.64,1.18,24,8.05,34,16.91a119.31,119.31,0,0,1,21.53,22.85A218.19,218.19,0,0,1,146.06,410.77Z"/><path class="cls-2" d="M124.59,365.71c0-.2.26-.61.31-.58.5,0,.38.32-.34.55Z"/><path class="cls-1" d="M364.69,173.38c.15,1.48.37,2.94.66,4.4,5.58,23.51-.63,43.43-17.11,61a63.86,63.86,0,0,1-108.46-36c-1.44-9.27.2-17.72,1.79-26.47.52-2.89,1.3-5.38,4.46-6.28a9.71,9.71,0,0,1,10-.67,5.53,5.53,0,0,1,2.14,6c-1.85,9.64-.23,19.46-1.67,29.13.37-.93-.35.49,0,0,7.11-11.59,15.66-10.75,23.12-1.39,6.41,8,2.51,19.8-7.55,24.38-6,2.9-5.4,5.3-1.79,9.21,19.83,21.4,50.84,21.66,64-8.17a93.16,93.16,0,0,0,6.8-47.63c-.32-3.16-1.48-6.55,2.11-8.69C350.44,171,357.75,169.21,364.69,173.38Z"/><path class="cls-1" d="M174,169.87c4.94,4.14,5.26,10.23,5.83,15.73,2.06,21.28-3.87,40.28-19.76,55a61.51,61.51,0,0,1-56,15.72c-28.33-5.79-44.89-23.72-50.9-51.2a53.77,53.77,0,0,1,2.23-31.85c6.82-4.26,14.07-2.37,21.24-1.5,3.9,2.14,2.34,5.79,2,8.68a96.76,96.76,0,0,0,5.24,45.15c5.31,15.11,15.08,25,31.29,26.26,15.12,1.19,26.77-6.37,36.24-17.66,2.63-3.13,1.62-4.55-2.05-5.59a15.45,15.45,0,0,1-10.81-10.57,16.39,16.39,0,0,1,4.69-18.42c5-3.88,11.09-3.59,19.27,1.16a55.11,55.11,0,0,0,0-18.39c-.52-3.91-2-7.79-.6-11.84A10.16,10.16,0,0,1,174,169.87Z"/><path class="cls-4" d="M174,170.05c-4,.55-8.3-.35-12.11,1.82a6.74,6.74,0,0,1-5.29,2.29c-24.25,1.22-48.5,2.43-72.8,1.59a8.78,8.78,0,0,1-5.55-1.85,222.32,222.32,0,0,0-22.8-.29c-2.43-1-5.78-1.21-5.35-5s3.27-4.77,6.53-5,7-.49,10.46-.55l97.34-1.62c2.89,0,5.49,0,8.21.26a5,5,0,0,1,5.14,3.59C178.46,168.2,175.77,168.86,174,170.05Z"/><path class="cls-4" d="M364.69,174.63l-23.38.31a12.83,12.83,0,0,1-8.53,1.94c-22.65.67-45.28-.58-67.91-1.59a9.86,9.86,0,0,1-7.57-2.49c-3.56-1.85-7.49-1.19-11.27-1.56-1.88-1.33-5.26-1.6-4.31-5.07.78-2.9,3.44-3.33,6-3.53q2.9-.21,6-.18,50.06.78,100.2,1.68c3.21,0,6.45.35,9.68.64a5.45,5.45,0,0,1,5.78,4.89C369.66,173.15,366.89,173.61,364.69,174.63Z"/><path class="cls-5" d="M337.87,93.6c-7.31-4.23-14.45-8.69-22.2-12.33a34.3,34.3,0,0,0-26.84-1.19A83.62,83.62,0,0,0,264.2,94l-7.63,6a1.25,1.25,0,0,1-.43-1.24c.14-.44.26-.64.4-.64a98.48,98.48,0,0,1,29.22-33.65,14.44,14.44,0,0,1,14.66-2.2,78.69,78.69,0,0,1,38.87,31.39C338.79,94.24,338.22,94.24,337.87,93.6Z"/><path class="cls-5" d="M159,96.79a104.09,104.09,0,0,0-26.59-16.16A34.59,34.59,0,0,0,103,81.73c-6.36,3.36-12.6,6.89-18.9,10.37-1.56.37-2-.32-1.71-1.77A81.38,81.38,0,0,1,117,63,16.37,16.37,0,0,1,135,65.31a96.3,96.3,0,0,1,26,29.54C161.17,96.44,160.51,97.05,159,96.79Z"/><path class="cls-6" d="M72.83,128.2A64.63,64.63,0,0,1,111,103.53,40.15,40.15,0,0,1,141.87,109a73.73,73.73,0,0,1,26.36,25c.66,1.65,0,1.89-1.51,1.63a81,81,0,0,0-30.17-26.07,36.57,36.57,0,0,0-26.85-2.49A63.52,63.52,0,0,0,82,122.62c-2.14,2.08-4.51,3.88-6.79,5.79A1.73,1.73,0,0,1,72.83,128.2Z"/><path class="cls-7" d="M345.09,128.9a61.57,61.57,0,0,1-9.16-7.67A58.78,58.78,0,0,0,305.62,106a35.14,35.14,0,0,0-25.81,5.19c-4.22,2.63-8.35,5.38-12.54,8.11-1.54.49-1.94-.21-1.65-1.6a60.91,60.91,0,0,1,16.73-11.17,37.87,37.87,0,0,1,26.91-2.9,64.57,64.57,0,0,1,36,22.76A1.85,1.85,0,0,1,345.09,128.9Z"/><path class="cls-8" d="M78.43,273.71c5.21,2.41,10.26,5.19,15.64,7.13,18.29,6.72,35.72,6,51.44-6.89,1.47-.47,1.88.17,1.53,1.53-12,11.58-26.56,15-42.6,11.84a64.26,64.26,0,0,1-27.86-11.81C76.38,274.06,76.87,273.31,78.43,273.71Z"/><path class="cls-9" d="M282.27,279.91c17.16,8.31,33.92,5.56,50.4-2.11,4.27-2,8.26-4.58,12.4-6.89,1.56-.44,1.93.26,1.61,1.65a67.11,67.11,0,0,1-41.53,15.89,37.84,37.84,0,0,1-24.56-6.89C280.42,280.11,280.62,279.36,282.27,279.91Z"/><path class="cls-8" d="M243.4,291c-2.89,8.25-10.29,10.74-16.68,14.48l-1.16-1c2.2-2.26,4.48-4.43,6.62-6.78s4.19-4.86,6.3-7.3a11.88,11.88,0,0,0,.15-9,39.12,39.12,0,0,1-3.36-10.25c-.54-1.57.15-1.89,1.54-1.57l8.09,15.9a3.67,3.67,0,0,1,0,3.68h0A2.12,2.12,0,0,0,243.4,291Z"/><path class="cls-10" d="M183.2,274.15a45.89,45.89,0,0,1-2.89,10.16,2.91,2.91,0,0,1,0,3.48,42.93,42.93,0,0,0,11.82,14.88c.37,1.39,0,2.09-1.56,1.59-6.54-3.38-13-6.86-15.09-14.76-.75-1-2.17-1.77-1.21-3.39q3.81-7.47,7.68-14.89C184.47,271.17,183.92,272.61,183.2,274.15Z"/><path class="cls-11" d="M265.62,117.72l1.65,1.6A101.28,101.28,0,0,0,246,147.69a1.15,1.15,0,0,1-1.63.2.9.9,0,0,1-.19-.2A61.44,61.44,0,0,1,265.62,117.72Z"/><path class="cls-12" d="M238.63,281.53a6.74,6.74,0,0,1-.15,9c.18-2.2-.52-3.48-2.89-2.55a88.13,88.13,0,0,0-17.74,8.28,8.27,8.27,0,0,1,5.78-7.56,34.8,34.8,0,0,1,11.56-2.89C238,285.76,238.89,284.25,238.63,281.53Z"/><path class="cls-13" d="M181.62,287.79v-3.48c4.48,2.38,9.8,1.48,14.45,3.68,3.13,1.53,6.59,2.66,6.56,7.09h0c-5.11-2.08-10.23-4.14-15.34-6.25A8.69,8.69,0,0,0,181.62,287.79Z"/><path class="cls-14" d="M245.2,289.29v-3.67a273.45,273.45,0,0,1,15,24.49c.47,1.54-.2,1.89-1.58,1.48Z"/><path class="cls-15" d="M174.15,286.11l1.21,3.39c-3.61,2.28-4.3,6.57-6.5,9.81s-4.54,7.15-6.79,10.77a1.39,1.39,0,0,1-2,.13l-.12-.13A192.39,192.39,0,0,1,174.15,286.11Z"/><path class="cls-16" d="M282.27,279.91l-1.68,1.65A41.38,41.38,0,0,1,265.5,268a.92.92,0,0,1,1.26-.36.89.89,0,0,1,.36.36Z"/><path class="cls-17" d="M166.72,135.68l1.51-1.63a32.62,32.62,0,0,1,7.54,15.21.9.9,0,0,1-1.21.38.93.93,0,0,1-.38-.38Z"/><path class="cls-18" d="M183.2,274.15c-.26-1.07-.18-2.29-1.36-2.9a15.22,15.22,0,0,1,4.8-6.66A22.44,22.44,0,0,1,183.2,274.15Z"/><path class="cls-19" d="M346.68,272.47a2.22,2.22,0,0,0-1.61-1.65c2.89-2,5.08-5.42,9.07-5.79h0A23.76,23.76,0,0,1,346.68,272.47Z"/><path class="cls-20" d="M147,275.36c-.49-.52-1-1-1.53-1.53a23.71,23.71,0,0,1,7.4-6.14l.46.46A13.19,13.19,0,0,1,147,275.36Z"/><path class="cls-21" d="M78.43,273.71l-1.85,1.8a11.67,11.67,0,0,1-5.78-6h0A12.9,12.9,0,0,1,78.43,273.71Z"/><path class="cls-22" d="M177.3,152.15c2.14,2.29,1.1,5.36,3.38,9.18-4.3-2.52-3.7-5.62-4.94-7.58C176.38,153.11,176.38,152.18,177.3,152.15Z"/><path class="cls-23" d="M258.13,311.53l1.59-1.48c2.08,1.71,1.56,4.26,3.21,7C259.43,315.7,259.09,313.38,258.13,311.53Z"/><path class="cls-24" d="M244.18,148.56H246a19.32,19.32,0,0,1-4.14,7.24A8.89,8.89,0,0,1,244.18,148.56Z"/><path class="cls-25" d="M236.81,269.72l-1.54,1.56a8.72,8.72,0,0,1-2.54-7A9.65,9.65,0,0,1,236.81,269.72Z"/><path class="cls-26" d="M190.45,304.32l1.56-1.59a7.15,7.15,0,0,1,3.93,3.73C193.4,307.22,192,305.62,190.45,304.32Z"/><path class="cls-27" d="M267.12,267.29H265.5c-1.76-.55-2.54-2.06-4.3-4.11A7,7,0,0,1,267.12,267.29Z"/><path class="cls-28" d="M159,96.79,161,94.85a8.42,8.42,0,0,1,2.89,4.83,1.41,1.41,0,0,1-2,.29l-.1-.08A7,7,0,0,1,159,96.79Z"/><path class="cls-29" d="M160,310.72h2.08a12.5,12.5,0,0,1-3.9,5.59A6.68,6.68,0,0,1,160,310.72Z"/><path class="cls-30" d="M345.09,128.9l.18-2.37a8.25,8.25,0,0,1,4.28,6.19h0A9.29,9.29,0,0,1,345.09,128.9Z"/><path class="cls-31" d="M72.13,131.3a7.94,7.94,0,0,1-3.9,3.77c-.49-2.12.64-2.9,2-3.85a1.08,1.08,0,0,1,1.47-.37A1.11,1.11,0,0,1,72.13,131.3Z"/><path class="cls-32" d="M82.28,90.33,84,92.1a9.33,9.33,0,0,1-4.39,3.21,1.14,1.14,0,0,1-.47-1.53,1,1,0,0,1,.3-.35A5.75,5.75,0,0,1,82.28,90.33Z"/><path class="cls-33" d="M177.3,151.52,175.74,153l-1.56-4.41h1.59A3.62,3.62,0,0,1,177.3,151.52Z"/><path class="cls-34" d="M72.13,131.19H70.25a6.71,6.71,0,0,1,2.58-2.9h2.34A7.78,7.78,0,0,1,72.13,131.19Z"/><path class="cls-35" d="M161.93,99.89l2.08-.21c.92.52,1.47,1.57.37,2S162.33,101,161.93,99.89Z"/><path class="cls-36" d="M79.42,93.43l.17,1.88c-.38,1-1.27,1.65-1.79.58S78.38,94,79.42,93.43Z"/><path class="cls-37" d="M337.87,93.6a1.61,1.61,0,0,1,1.42,0c.78,0,1.53.64.72,1.19S338.36,94.44,337.87,93.6Z"/><path class="cls-38" d="M256.76,98.09V100c-.23.84-.83,1.3-1.27.38S255.81,98.55,256.76,98.09Z"/><path class="cls-14" d="M243.4,291a1.73,1.73,0,0,1,1.38-1.85Z"/><path class="cls-39" d="M69.07,267.29a1.65,1.65,0,0,1,1.5,1.5h0a1.69,1.69,0,0,1-1.53-1.5Z"/><path class="cls-20" d="M152.91,267.81a1.83,1.83,0,0,1,1.68-1.31h0a1.81,1.81,0,0,1-1.19,1.77Z"/><path class="cls-27" d="M69.13,267.92l-.73-.63h.44a4,4,0,0,1,.23.61Z"/><path class="cls-40" d="M156.15,265a1.54,1.54,0,0,1-1.45,1.5h0a1.67,1.67,0,0,1,1.5-1.44Z"/><path class="cls-19" d="M354.14,265c0-.21.23-.61.29-.58s.35.29-.35.52Z"/><path class="cls-41" d="M155,265.06l.66-.73v.47a4.22,4.22,0,0,1-.6.2Z"/><path class="cls-42" d="M349.55,133.42l.72.67h-.44a4.49,4.49,0,0,1-.23-.61Z"/><path class="cls-13" d="M201.09,295.08c.63,0,.89.18.72.67a.82.82,0,0,1-.49,0,2.4,2.4,0,0,1-.21-.64Z"/><path class="cls-43" d="M257.3,171.55c28,1,56,2.29,84,2.12a87.74,87.74,0,0,1-6.94,59.79,36.37,36.37,0,0,1-48.56,17.18c-.35-.17-.71-.34-1.06-.53A48.17,48.17,0,0,1,265,233.38c-1.07-1.62-2.6-3.13-2.14-5.39,11.13-1.65,16.56-6,17.34-14.13a14.22,14.22,0,0,0-7.11-14.48c-6.07-2.72-11.56-.58-18,7.36A98.34,98.34,0,0,1,257.3,171.55Z"/><path class="cls-43" d="M78.26,173.73c16.7-.24,33.41-.18,50.08-.82,11.19-.43,22.37-1.36,33.56-1.21a81.18,81.18,0,0,1,2.48,34c-2.89-.52-3.21-2.89-4.51-4.11a11.53,11.53,0,0,0-11.79-2.89,11.17,11.17,0,0,0-8.44,8.68c-2.66,10.49,3.5,18.88,14.45,19.9a3.94,3.94,0,0,1,3.18,1.1A47.51,47.51,0,0,1,127,252.81c-14.11,4.17-33.24-2.41-40.87-17.38a87,87,0,0,1-9.59-32.08C75.6,193.42,75,183.45,78.26,173.73Z"/></g></g></g></g></svg>