<svg xmlns="http://www.w3.org/2000/svg" viewBox="0 0 145.05 145.41"><defs><style>.cls-1{fill:#ffdfbf;}.cls-2{fill:#bababa;}.cls-3{fill:#fff;}.cls-4{fill:#242b32;}.cls-5{fill:#f3543b;}.cls-6{fill:#f3583f;}.cls-7{fill:#f67156;}.cls-8{fill:#f8876c;}.cls-9{fill:#f88d71;}.cls-10{fill:#f9a285;}.cls-11{fill:#fa9f42;}.cls-12{fill:#fcd2a6;}.cls-13{fill:#bbeae4;}</style></defs><title>Iroh</title><g id="Layer_2" data-name="Layer 2"><g id="Layer_1-2" data-name="Layer 1"><path class="cls-1" d="M58.24,143.78c-2.37,0-4.53-.9-6.72-1.59a58.84,58.84,0,0,1-13.47-5.61c-4.4-5.92-5.75-12.86-6.4-20A34.81,34.81,0,0,1,32,106.55c.31-1.53-.06-2.34-1.83-2.09a31.76,31.76,0,0,1-4.14.1c-6.84.1-11.53-3.13-14.18-9.33C8.67,87.84,7.89,80.13,8.5,72.14c.66-8.72,2.21-17.31,3.15-26a20.6,20.6,0,0,0-.77-6.67,13,13,0,0,1-.29-4.61A73.5,73.5,0,0,1,24.64,18.16,75,75,0,0,1,41.91,6.91,65.09,65.09,0,0,1,61.86,1,73,73,0,0,1,73.93,0C86.51.59,98.38,3.6,109.29,10.12a76.14,76.14,0,0,1,15.43,12.05,67.68,67.68,0,0,1,10.87,14.7c.23,2.53-.76,4.93-.79,7.45-.05,5.31,1.15,10.47,1.82,15.7,1.13,8.67,2.09,17.35.7,26.08a29.81,29.81,0,0,1-4.5,12.33,13.72,13.72,0,0,1-11.17,6.1c-1.38.08-2.77.06-4.15,0-3.36-.12-3.38-.12-2.91,3.33,1.15,8.45-.41,16.51-3.56,24.34a7.63,7.63,0,0,1-2.41,3.31c-4,3-8.67,4.52-13.29,6.11a44.25,44.25,0,0,1-7.42,2.11,7.78,7.78,0,0,1-.79-4.27,64,64,0,0,0-2.18-15.07c-.71-2.86-1.15-3.11-4-2.53a38.13,38.13,0,0,1-15.67,0c-2.72-.56-3-.39-3.78,2.36A86.79,86.79,0,0,0,59,140.61C58.94,141.71,59.15,142.89,58.24,143.78Z"/><path class="cls-2" d="M10.59,34.88a59.32,59.32,0,0,1,1.93,10c.2,1.61-.35,3.23-.53,4.85-.48,4.35-1.28,8.65-1.87,13a64.15,64.15,0,0,0-.61,6.93c0,1.48-.46,2.89-.49,4.34-.17,7.2.53,14.26,3.48,21,2.55,5.79,6.81,8.9,13.25,8.83,2.39,0,4.78.14,7.41-.69a87.78,87.78,0,0,0-.9,9.78,45.49,45.49,0,0,0,5.86,23,.52.52,0,0,1-.07.69,72.51,72.51,0,0,1-36.61-49A75.74,75.74,0,0,1,.57,63.44,72.36,72.36,0,0,1,7.9,39.6C8.69,38,9.69,36.45,10.59,34.88Z"/><path class="cls-2" d="M108.62,135.52A49.86,49.86,0,0,0,114,117.3a39.36,39.36,0,0,0-.52-11.78c-.37-2,0-2.25,1.95-2a24.66,24.66,0,0,0,10-.38c4.28-1.17,6.82-4.31,8.51-8.09a40.67,40.67,0,0,0,3.33-16.33,147.34,147.34,0,0,0-2-22.6c-.57-4.08-1.52-8.14-1.21-12.32a19.66,19.66,0,0,1,1.54-7,69,69,0,0,1,8.92,27C146.83,84,141.73,102,129.39,118A67.66,67.66,0,0,1,109.8,135,8.1,8.1,0,0,1,108.62,135.52Z"/><path class="cls-2" d="M58.24,143.78c-.09-6.31,1-12.48,2.21-18.64a20.65,20.65,0,0,1,.81-2.45c.79-2.32.8-2.33,3.24-1.74a37.29,37.29,0,0,0,17.85-.14c1.76-.43,2.07-.3,2.7,1.36a46.5,46.5,0,0,1,2.09,9,59.21,59.21,0,0,1,.77,12.55,72.82,72.82,0,0,1-19.25,1.56A46,46,0,0,1,58.24,143.78Z"/><path class="cls-3" d="M129,67.87a25.57,25.57,0,0,1-1.21,3.38c-3.45,6.57-8.33,11.32-16,12.36a29.38,29.38,0,0,1-20.74-5A15.25,15.25,0,0,1,84.09,68.4,5.47,5.47,0,0,1,89,62.28c.33.63.62,1,1.56.87,3.31-.56,5,.29,5.61,2.52a6.1,6.1,0,0,1-3.38,6.87c-2.13.89-2.15,1-.56,2.74,3.59,3.9,10.07,5.29,14.25,3.06,4.37-2.34,7-8.9,5.88-14.43-.35-1.7-1.11-3.27-1.44-5a1.18,1.18,0,0,1,.29-1c3.65-.55,6.85,1,10.11,2.22a29.09,29.09,0,0,1,6.79,4.13C129.31,65.22,129.93,66.39,129,67.87Z"/><path class="cls-2" d="M43.11,26a34.46,34.46,0,0,1,9.48,2.38,36.74,36.74,0,0,1,11.69,8,10.91,10.91,0,0,1,2.66,5.5,4.19,4.19,0,0,1-.65,2.72,1.63,1.63,0,0,1-2.59.7,29.34,29.34,0,0,1-3.34-2.43C53,36.89,44.71,36.21,35.91,38.36a45,45,0,0,0-13.17,5.9c-.41.25-.78.85-1.35.46s-.42-1-.24-1.64c.34-1.15.29-2.39,1-3.47.43-.71.14-1.16-.7-1.16a6.87,6.87,0,0,0-1.28.14c-.55.1-1.22.64-1.58-.14-.27-.61.25-1.18.65-1.6a33.31,33.31,0,0,1,8.62-6.53c4-2.1,8.16-3.73,12.75-3.88C41.44,26.41,42.2,25.83,43.11,26Z"/><path class="cls-3" d="M62.46,68.52a19.11,19.11,0,0,1-4.94,8.35c-4.18,3.82-9.19,5.71-14.62,6.68A21.74,21.74,0,0,1,18.39,70.74c-.7-1.57-.48-3.23-.74-4.83A2,2,0,0,1,18.76,64c4.4-3.18,9.14-5.54,14.66-6a2.58,2.58,0,0,1,1.54.5c.67,1.06,0,2-.28,3a17.69,17.69,0,0,0,.48,11.45c1.43,3.41,3.84,5.78,7.63,6.26,4.68.6,8.74-.67,11.83-4.41.94-1.13.64-1.82-.77-2.19a4.92,4.92,0,0,1-3-2.37c-1.32-2.16-1.33-4.28,0-5.78,1.59-1.82,3.43-2.07,6-.82.15.06.26.31.46.22s.06-.27,0-.42a1,1,0,0,1,.81-.94,6.63,6.63,0,0,1,4.1,4.36,5.2,5.2,0,0,1,.14,1.36C62.48,68.3,62.47,68.41,62.46,68.52Z"/><path class="cls-2" d="M123.86,38.56c.93,2.07,1.85,3.95,1.18,6.22-1.6-.18-2.72-1.35-4-2.1A36.57,36.57,0,0,0,98.5,37.44,24.82,24.82,0,0,0,85,43.57c-.27.22-.5.48-.76.71-.91.82-1.91,1.75-3.19,1.25s-1.49-1.94-1.55-3.28c-.15-3.1,1.72-5.24,3.72-7.09A39.93,39.93,0,0,1,93,28.79,36.15,36.15,0,0,1,102.32,26c1.82-.36,3.63.23,5.37.55a34.13,34.13,0,0,1,19.67,10.6c.32.35.94.67.56,1.27s-.9.29-1.41.16a7.79,7.79,0,0,0-1.53-.17A8.5,8.5,0,0,0,123.86,38.56Z"/><path class="cls-4" d="M129,67.87c.27-1.54-.45-2.49-1.68-3.39a31.35,31.35,0,0,0-16.33-6.2,4.16,4.16,0,0,1-3,.58,34.09,34.09,0,0,0-17.3,3.3,2.3,2.3,0,0,1-1.74.26,8.38,8.38,0,0,0-4.84,6c-1.93,0-2.62-.65-2.31-2.3a8.89,8.89,0,0,1,2.44-4.48,25.82,25.82,0,0,1,13.6-7.5c11.31-2.39,21.92-.61,31.53,6.06a13.57,13.57,0,0,1,3.44,3.1c1,1.4.89,2.29-.58,3.23A5.72,5.72,0,0,1,129,67.87Z"/><path class="cls-4" d="M62,67.59a7.91,7.91,0,0,0-4.22-5.11,4.3,4.3,0,0,1-2.46-.61,33.42,33.42,0,0,0-15.8-3,16.55,16.55,0,0,1-3.85-.12,2.74,2.74,0,0,0-2.4-.11A27.8,27.8,0,0,0,17.65,65.9c-.65.5-.07,1.36-.73,2.08-.9-.48-1.91-.92-2.81-1.52-1.28-.84-1.43-1.79-.6-3.08a10.17,10.17,0,0,1,2.58-2.53c8-6,17-8.25,26.82-7.6a31.81,31.81,0,0,1,13.34,3.81,22.87,22.87,0,0,1,6.61,5.37,6.64,6.64,0,0,1,1.71,4c.08,1.55-.23,1.84-2.11,2.12l0,0C62.17,68.23,62.19,67.84,62,67.59Z"/><path class="cls-5" d="M90.81,113.51a13.75,13.75,0,0,1-1.9-.58,51.87,51.87,0,0,0-31.07-.1,7.73,7.73,0,0,1-5,.27,4.32,4.32,0,0,1-2.86-3.4,1.26,1.26,0,0,1,.26-1c.24-.28.67-.14.92.09,3,2.71,6.36,1.59,9.58.89A57.74,57.74,0,0,1,73,108a48,48,0,0,1,10.75,1.3c1.85.43,3.71.81,5.58,1.09s4,.37,5.57-1.27c.33-.35.87-.77,1.37-.39s.3,1.07.09,1.65C95.46,112.63,93.62,113.35,90.81,113.51Z"/><path class="cls-6" d="M64.07,87.27c-.48,1.29-1,2.56-1.44,3.86-.26.75.07,1.05.86,1.16,3.42.49,5.15,2.12,6,5.52-3.71-2.8-3.91-2.89-6.74-3.09.08,2.22,1.89,3.36,3,4.92a.52.52,0,0,1-.77.06c-5.05-3.64-5.5-7.44-1.52-13C64,86.57,64.21,86.72,64.07,87.27Z"/><path class="cls-6" d="M82.61,97.51c.39-.9,1.22-1.66.93-3a8.68,8.68,0,0,0-6.07,3c-.49.14-.71,0-.59-.54.67-1,1.26-2.07,2-3a4.43,4.43,0,0,1,3.31-1.78c1.55-.1,1.84-.49,1.37-1.89S82.38,87.53,81.71,86c4.18,2.69,4.92,9,1.57,12.2C82.72,98.29,82.5,98.07,82.61,97.51Z"/><path class="cls-7" d="M82.61,97.51l.67.67a10.36,10.36,0,0,1-3.59,2.66Z"/><path class="cls-8" d="M65,99.7l.77-.06a2.6,2.6,0,0,1,1.79,1.61A5.48,5.48,0,0,1,65,99.7Z"/><path class="cls-9" d="M64.07,87.27l-.61-.59a2.15,2.15,0,0,1,1.29-1.27C65,86.25,64.51,86.75,64.07,87.27Z"/><path class="cls-10" d="M76.88,97l.59.54a3,3,0,0,1-.4.62c-.17.15-.51.34-.64.27-.41-.22-.13-.58,0-.86A3,3,0,0,1,76.88,97Z"/><path class="cls-11" d="M88.93,62.42a27.4,27.4,0,0,1,12.53-4.2,36.26,36.26,0,0,1,9.48.06,16.2,16.2,0,0,1,1.35,13.93c-2,6.17-7.64,9.26-13.88,7.52-4-1.1-7.13-3.28-8.82-7.24.74-.51,1.44-.17,2.09-.28a5.3,5.3,0,0,0,3.89-6.75A3.71,3.71,0,0,0,91,63.56a22.27,22.27,0,0,0-2.34,1.1C88.21,63.82,88.87,63.15,88.93,62.42Z"/><path class="cls-11" d="M35.49,58.24c7.83-.75,15.37,0,22.25,4.25,0,.44,0,.89.08,1.33s-.14.71-.63.64a14.35,14.35,0,0,0-1.6-.84,3.74,3.74,0,0,0-4.91,4.69c.75,2.7,2.35,3.79,6,4a4.94,4.94,0,0,1-1.79,3.28,13.28,13.28,0,0,1-12.92,4.23c-3.74-.75-6.2-3.31-7.52-6.84a17.56,17.56,0,0,1,.66-14.31A.47.47,0,0,1,35.49,58.24Z"/><path class="cls-12" d="M57.19,64.46l.63-.64c.34.31.63.77.28,1.09S57.41,64.81,57.19,64.46Z"/><path class="cls-13" d="M35.49,58.24l-.43.46-1.84-.09A2.88,2.88,0,0,1,35.49,58.24Z"/><path class="cls-1" d="M62,67.59a1,1,0,0,1,.48.89A.73.73,0,0,1,62,67.59Z"/></g></g></svg>