<svg xmlns="http://www.w3.org/2000/svg" viewBox="0 0 145.19 145.21"><defs><style>.cls-1{fill:#daa087;}.cls-2{fill:#232b32;}.cls-3{fill:#fff;}.cls-4{fill:#f3533a;}.cls-5{fill:#f2553c;}.cls-6{fill:#4a4545;}.cls-7{fill:#e97057;}.cls-8{fill:#726965;}.cls-9{fill:#645d5c;}.cls-10{fill:#5acfc9;}.cls-11{fill:#d99f86;}.cls-12{fill:#d49d85;}.cls-13{fill:#a68775;}.cls-14{fill:#9a7467;}.cls-15{fill:#755e57;}.cls-16{fill:#846f63;}.cls-17{fill:#a7e3e0;}</style></defs><title>Korra</title><g id="Layer_2" data-name="Layer 2"><g id="Layer_1-2" data-name="Layer 1"><path class="cls-1" d="M138.22,103.13c-.75,3-2.54,5.45-4.11,8A71,71,0,0,1,105,137.61a73.08,73.08,0,0,1-63.72.51A70.18,70.18,0,0,1,17.57,120a80.13,80.13,0,0,1-8-11.41,4.26,4.26,0,0,1-1-2.33c1.59-.14,2.21,1.16,3,2.12a35.12,35.12,0,0,0,13,9.63,97.26,97.26,0,0,1-10.8-19.57c-3-7.51-5.36-15.16-5.36-23.35,0-1.24-.52-2.92.84-3.54s2.33.76,3.4,1.45a5,5,0,0,0,2.26,1.09A32.68,32.68,0,0,0,34.41,85a42.54,42.54,0,0,0,15.22-.14c6.69-1.39,9.7-6.66,8-13.27a5.3,5.3,0,0,1-.45-2.78c1.43-1.74,1.2-3.47,0-5.23-4.12-6.13-10-9-17.23-9.53-10.06-.71-18.5,3.44-26.65,8.56-1.13.72-2.31,2.32-3.59,1.51-1.49-.93-.43-2.7-.1-4.06a77.62,77.62,0,0,1,4-11.76,5.14,5.14,0,0,1,4.73-3.42A126.47,126.47,0,0,0,35,42.46a9.64,9.64,0,0,1,7.45,1.08c1.77,1.08,3.74,1.88,5.39,3.11,4.49,3.35,9.54,4.17,14.95,3.92,3.48-.16,3.47,0,3.18,3.41a47.06,47.06,0,0,0,3.61,21.51c.15.68.49,1.28.69,1.94.06.21.12.33.31.3a14.93,14.93,0,0,1-1.35-3.43C66.94,64.36,68,55.08,73.5,46.18A65.9,65.9,0,0,1,98.91,22.74c3.5-1.89,6.87-4,10.27-6.08,2.27-1.39,2.76-1.32,4,1.09a119.34,119.34,0,0,0,8.13,13.86c.51.75,1.38,1.62.7,2.55s-1.74.47-2.68.37c-13.74-1.52-26.5.9-37.8,9.3a12.6,12.6,0,0,0-2.94,2.89c-1.45,2.09-1.15,3.21,1.39,3.55,5.12.69,10.16.56,14.73-2.45a92.21,92.21,0,0,1,18.22-9.28,55.24,55.24,0,0,1,8-2.23,3.86,3.86,0,0,1,4.56,2A75.55,75.55,0,0,1,135,61.22c.23,1,.61,2.23-.39,2.88s-1.81-.29-2.56-.81c-6.17-4.28-12.68-7.85-20.22-8.95-8-1.17-15.52-.06-21.79,5.68a19.23,19.23,0,0,0-2.85,3.34,4.48,4.48,0,0,0-.08,5.55c.14,1.66-.55,3.21-.71,4.84A9.79,9.79,0,0,0,93,84.28a15.27,15.27,0,0,0,5.82,1.06c4-.17,8.12.48,12.12-.46,6.34-1.48,12.07-4.1,16.57-9a7.75,7.75,0,0,1,1.78-1.49,18,18,0,0,0,1.95-1c.19-.14.4-.27.6-.39s.59-.44.87-.67c.84-.61,1.71-1.51,2.77-1s.94,2,.86,3.05A77.17,77.17,0,0,1,132,94.89,92,92,0,0,1,119.72,118c5-2,10.33-6.12,14.47-11.12C135.35,105.45,136.15,103.58,138.22,103.13Z"/><path class="cls-2" d="M138.22,103.13c-2.37,2.5-4.37,5.32-6.84,7.74a36.59,36.59,0,0,1-10.28,7.34c-.85.39-1.74.69-3.23,1.28,10.51-14.6,17.3-29.95,17.82-47.73-1.43-.14-2.15.88-3.12,1.31a2.39,2.39,0,0,1-.58.42,1.18,1.18,0,0,1-.39.19.66.66,0,0,1-.65,0,1.14,1.14,0,0,1-.17-.67,6.36,6.36,0,0,1,.3-1c.6-1.72-.21-3-1.29-4.19-2.57-2.92-5.86-4.79-9.19-6.64a6.52,6.52,0,0,0-1-.46l-1.06-.32a28.89,28.89,0,0,0-14.67-1.66A22.12,22.12,0,0,0,90.66,66c-1.17,1.19-1.88,2.95-3.89,3.06-1.56-1.3-1.89-2.41-1.18-4.24a12.85,12.85,0,0,1,3-4.49,24,24,0,0,1,15.94-7.15c7.89-.43,15,2,21.76,5.68a89.25,89.25,0,0,1,8,5.18c.62-.77.29-1.46.15-2.08a81.24,81.24,0,0,0-10-24c-.92-1.52-2-1.31-3.29-1.05a70.37,70.37,0,0,0-20.41,8c-2.1,1.2-4.19,2.42-6.22,3.74a14.77,14.77,0,0,1-6,2.24,46.23,46.23,0,0,1-7.24.37,8.26,8.26,0,0,1-2.78-.57C76.27,49.88,76,49,77.33,47.11a15.25,15.25,0,0,1,3.16-3.41A49,49,0,0,1,106.2,33.64a53.33,53.33,0,0,1,14.71.44,5.78,5.78,0,0,0,1.18-.07,113.63,113.63,0,0,1-10.55-18.09c-8.08,5.46-16.89,9.43-24.44,15.42A57.28,57.28,0,0,0,71,52.39c-3,6.29-2.63,13.11-1.57,19.86.12.77.23,1.53.34,2.3.09.61.73,1.4-.5,1.59-3.75-7.93-4.73-16.3-3.8-25A38.84,38.84,0,0,1,55,50.8,13.08,13.08,0,0,1,50.23,49c-3.13-2-6.33-3.89-9.62-5.62a4.89,4.89,0,0,0-3.43-.53A177.45,177.45,0,0,1,18,45.62a3.65,3.65,0,0,0-3.51,2.43A86.14,86.14,0,0,0,9.66,62.8a6.38,6.38,0,0,0,0,1.24A5.27,5.27,0,0,0,12,62.69c6.24-4.33,12.89-7.82,20.44-9.06,8-1.32,15.5-.17,21.88,5.39a16.5,16.5,0,0,1,4.41,5.69c.87,2,.44,3.26-1.23,4.33-2.13.06-2.67-1.89-3.85-3-6.86-7.69-15.48-8.77-25-6.59a25.77,25.77,0,0,0-3.18,1.06c-3.69,1.37-6.77,3.75-9.84,6.13-2.19,1.71-3.17,3.79-2.2,6.55-.15.38-.36.65-.83.5L9.07,71.46a31,31,0,0,0,.22,8.43c1.89,12.71,6.83,24.21,13.89,34.87.93,1.41,1.92,2.78,3.2,4.62A29.43,29.43,0,0,1,16.47,114a42.21,42.21,0,0,1-6-5.77,6.63,6.63,0,0,0-2-2C5,100.88,3.13,94.86,1.78,88.7c-7.22-32.89,8-65.38,37.92-80.79A68.5,68.5,0,0,1,77.8.28c26.45,2.39,46.18,15.3,59,38.51C144,52,146.4,66.37,144.63,81.41a72.57,72.57,0,0,1-4.1,16.81A34.33,34.33,0,0,1,138.22,103.13Z"/><path class="cls-3" d="M119.17,60.06l.84.18a1,1,0,0,1,.56.32,33.29,33.29,0,0,1,9.88,6.89c1.44,1.47,2.05,3.14,1.09,5.13a.78.78,0,0,0-.38.52l-.28.45c-.07.62-.59.8-1,1.07-2.72,2.63-5.32,5.37-8.75,7.16-4.87,2.54-9.9,4.41-15.49,4.35-3.69,0-7.4.32-11.06-.58-5.46-1.34-8.32-4.39-9-9.94a12.87,12.87,0,0,1,1.17-6.51l3.34-3.31c.89.16,1.14,1.62,2.59.9,2.06-1,4,0,5.28,1.6a5.42,5.42,0,0,1,.76,6.08c-1,2.1-2.8,2.67-5,2.4-.22,0-.47-.13-.67.14a6.63,6.63,0,0,0,3,2.78c5.54,2.9,11.29,3.29,16.5-.21,5.68-3.83,7.28-9.8,6.65-16.43C119.12,62.06,118.47,61.07,119.17,60.06Z"/><path class="cls-3" d="M13.15,73.07c-1.22-2.35-1.12-3.74.65-5.53A31.09,31.09,0,0,1,25,60.08c.74.77.29,1.63.16,2.44-1,5.63.7,10.54,4.07,15,4.5,6,18.2,5.71,22.11-.64.14-.21.46-.27.51-.57a5.38,5.38,0,0,1-.81.36c-3.22.26-4.78-.47-5.55-2.56a6,6,0,0,1,2.09-6.92,3.39,3.39,0,0,1,3.39-.7,2.36,2.36,0,0,0,3.12-.75L57.45,69a12.45,12.45,0,0,1,1.14,8c-1.15,5.55-5.07,8.2-10.24,8.76-6,.65-12.07.86-18-1A32.64,32.64,0,0,1,14.22,74.16C13.22,74.43,13.53,73.41,13.15,73.07Z"/><path class="cls-4" d="M96,116.79c.11,2.9-.39,3.87-2.14,4.54a13.12,13.12,0,0,1-4.78,1c-3.45,0-6.89-.09-10.34-.35A83.58,83.58,0,0,0,64,122.2c-4,.41-8.11.66-12.12-.37a5.21,5.21,0,0,1-3.62-2.68,1.69,1.69,0,0,1-.06-1.68.76.76,0,0,1,1,.22c1.61,2.23,4.06,2.41,6.47,2.59,3.46.26,6.88-.37,10.31-.73a60.36,60.36,0,0,1,12.39,0c3.6.35,7.19,1,10.84.73C91.69,120.1,94.1,119.62,96,116.79Z"/><path class="cls-5" d="M81.31,91.6a9.61,9.61,0,0,1,5,9.1c-.21,4.72-3.76,6.36-8.29,7.6,2.68-2.12,5.5-3.44,6.33-6.85a25.5,25.5,0,0,0-8.23,3.34,9.11,9.11,0,0,1,6.61-5.25c1.74-.39,1.77-.49,1.26-2.24a9.43,9.43,0,0,0-1.33-2.79A8,8,0,0,1,81.31,91.6Z"/><path class="cls-5" d="M64,107.4c-2.78-.82-5-2.25-5.69-5.32a9.66,9.66,0,0,1,4.3-10.15c.59.75-.07,1.28-.38,1.77a16.68,16.68,0,0,0-1.8,3.42c-.63,1.87-.62,2,1.3,2.42a10.45,10.45,0,0,1,6.2,4.31c.08.1,0,.31,0,.6-2.55-.86-4.74-2.71-7.75-2.83.54,2.67,2.33,4,4.33,5.24C64.64,107.34,64.52,107.57,64,107.4Z"/><path class="cls-6" d="M69.29,76.14c.6-.39.36-1,.5-1.59a13.77,13.77,0,0,1,1.1,4A4,4,0,0,1,69.29,76.14Z"/><path class="cls-7" d="M64,107.4l.52-.54a2.63,2.63,0,0,1,1.45,1.2A2,2,0,0,1,64,107.4Z"/><path class="cls-8" d="M13.15,73.07l1.07,1.09c-.9,1-1.16-.09-1.62-.51Z"/><path class="cls-9" d="M129.86,74.62a1.85,1.85,0,0,1,1-1.07l.72.13A1.7,1.7,0,0,1,129.86,74.62Z"/><path class="cls-9" d="M132,73.49a.6.6,0,0,1,.58-.42A.59.59,0,0,1,132,73.49Z"/><path class="cls-10" d="M54.13,65.74c-1,.82.15,1.76-.23,2.87a17.68,17.68,0,0,0-1.53-1,4.36,4.36,0,0,0-6.5,3.09c-.81,4,1.25,5.92,5.64,5.36.51,0,.77.16.68.71-1.85,3.45-5.09,4.81-8.64,5.49a19.48,19.48,0,0,1-7.22,0c-6.15-1.15-9.42-5.29-11.18-11A18.07,18.07,0,0,1,25,60.08c3.32-1.87,7-2.29,10.68-2.36,6.93-.14,13,2,17.84,7.19A6.09,6.09,0,0,1,54.13,65.74Z"/><path class="cls-10" d="M119.17,60.06c1.82,5.25.89,10.22-1.6,15a12.6,12.6,0,0,1-9.13,7,18.26,18.26,0,0,1-12.12-1.34,9.17,9.17,0,0,1-4.67-5c3.48,1,5.17.66,6.31-1.1a5.53,5.53,0,0,0-.48-6.07c-1.52-1.81-3.36-1.91-6.76-.35-.62-.69.27-1.76-.61-2.38a21.27,21.27,0,0,1,14.79-7.86,28.82,28.82,0,0,1,13.41,1.61A6.27,6.27,0,0,1,119.17,60.06Z"/><path class="cls-11" d="M71.92,32.64A33.6,33.6,0,0,0,66.41,46a54.85,54.85,0,0,0-10.69-7.69C61.24,36.4,66.5,34.11,71.82,32a.43.43,0,0,1,.2.41C72,32.56,72,32.64,71.92,32.64Z"/><path class="cls-12" d="M76.5,20.61a45.94,45.94,0,0,1-19.12,9c-.48.07-1.12.45-1.07-.55,6.39-3.28,13-6.17,19.57-9C76.46,19.83,76.57,20.13,76.5,20.61Z"/><path class="cls-13" d="M76.5,20.61l-.62-.56A4.22,4.22,0,0,1,78.06,19c.15.14.19.27.14.4s-.11.19-.16.19Z"/><path class="cls-14" d="M56.31,29c.24.42.69.42,1.07.55-.69.63-1.46.45-2.31.37A1.36,1.36,0,0,1,56.31,29Z"/><path class="cls-15" d="M78,19.58c0-.2,0-.39,0-.59.19-.31.56-.56.7-.17S78.41,19.44,78,19.58Z"/><path class="cls-16" d="M71.92,32.64c0-.22-.07-.43-.1-.65.17-.33.52-.55.69-.19S72.28,32.47,71.92,32.64Z"/><path class="cls-10" d="M120.57,60.56a.41.41,0,0,1-.56-.32A.46.46,0,0,1,120.57,60.56Z"/><path class="cls-9" d="M131.16,73.1a.48.48,0,0,1,.38-.52A.42.42,0,0,1,131.16,73.1Z"/><path class="cls-17" d="M52.19,76.75c-.22-.24-.45-.47-.68-.71a3.65,3.65,0,0,1,.52-.52c.19-.12.52-.28.66-.2.41.25.07.59,0,.86A2.68,2.68,0,0,1,52.19,76.75Z"/></g></g></svg>