<svg xmlns="http://www.w3.org/2000/svg" viewBox="0 0 145.13 145.03"><defs><style>.cls-1{fill:#f0c4af;}.cls-2{fill:#232b32;}.cls-3{fill:#242b32;}.cls-4{fill:#242c32;}.cls-5{fill:#56595b;}.cls-6{fill:#495156;}.cls-7{fill:#7e8283;}.cls-8{fill:#fff;}.cls-9{fill:#f3543b;}.cls-10{fill:#f3573e;}.cls-11{fill:#f27860;}.cls-12{fill:#f19f89;}.cls-13{fill:#f2775f;}.cls-14{fill:#787374;}.cls-15{fill:#99968d;}.cls-16{fill:#f1917a;}.cls-17{fill:#6d716b;}.cls-18{fill:#fa9f42;}</style></defs><title>Mako</title><g id="Layer_2" data-name="Layer 2"><g id="Layer_1-2" data-name="Layer 1"><path class="cls-1" d="M144.9,80.54a80.53,80.53,0,0,1-5.56,20.64A70.07,70.07,0,0,1,128.44,119a74.53,74.53,0,0,1-20.23,16.82,75.11,75.11,0,0,1-24,8.45,80,80,0,0,1-13.93.71,62.35,62.35,0,0,1-16.09-2.18,71.52,71.52,0,0,1-26.66-13.36A72.16,72.16,0,0,1,.72,83.31c-.14-.93-.29-1.86-.44-2.79a2.92,2.92,0,0,0,.17-1.4c0-.63,0-1.26,0-1.88A86.07,86.07,0,0,1,2.74,62.7,60.75,60.75,0,0,1,15.15,36.78,24.52,24.52,0,0,0,21,21.45,66.64,66.64,0,0,1,35,10.55,53.73,53.73,0,0,1,52,14.9c4.24,1.75,8.32,3.84,12.39,5.94,5.38,2.78,10.54,2.91,16,0,8.17-4.36,16.58-8.23,25.81-9.93a13.82,13.82,0,0,1,3.84-.3,57.64,57.64,0,0,1,11.33,8.29l2.21,2.1c.06.51.3,1,.32,1.52.2,6.27,3.25,11.15,7.05,15.94,8,10,11.32,22,13.08,34.45a18.42,18.42,0,0,1,.38,3.85C144.56,78,144.24,79.33,144.9,80.54Z"/><path class="cls-2" d="M110.11,10.58a46.79,46.79,0,0,1-7,1.68C96.25,13.86,90,16.89,83.68,20c-2,1-4,2-6.09,2.83a12.7,12.7,0,0,1-10.08.06c-1.91-.8-3.82-1.61-5.65-2.57C53.64,16,45.14,12.5,35.91,11a1.22,1.22,0,0,1-.88-.46A69,69,0,0,1,62.37.73a72.19,72.19,0,0,1,40,5.67A47.67,47.67,0,0,1,110.11,10.58Z"/><path class="cls-3" d="M144,76.93A112,112,0,0,0,139.88,57a63.39,63.39,0,0,0-10.47-19.75c-.63-.82-1.26-1.64-1.91-2.44-1.89-2.3-3.48-4.7-3.48-7.85,0-2-1.26-3.93-.37-6h0a.94.94,0,0,1,.55.5h0a1.13,1.13,0,0,1,.54.54,82.84,82.84,0,0,1,8.65,10.94A71.48,71.48,0,0,1,145,77.44C144.38,77.74,144.25,77.24,144,76.93Z"/><path class="cls-4" d="M21,21.45c.85.26.57,1,.53,1.51-.4,4.61-1.34,8.89-4.58,12.62C8,45.83,3.73,58.12,1.68,71.34c-.32,2-.29,4.15-.95,6.14-.18.22-.35.22-.51,0A70.56,70.56,0,0,1,8.23,39,73.69,73.69,0,0,1,21,21.45Z"/><path class="cls-5" d="M144,76.93l.93.51a13.39,13.39,0,0,1,0,3.1C143.51,79.61,144.08,78.19,144,76.93Z"/><path class="cls-6" d="M.22,77.46l.51,0c0,.67-.07,1.34-.1,2H.29A4.69,4.69,0,0,1,.22,77.46Z"/><path class="cls-7" d="M.29,79.5a1.28,1.28,0,0,1,.34,0,.87.87,0,0,1-.35,1C.28,80.18.29,79.84.29,79.5Z"/><path class="cls-1" d="M124.19,21.46a.55.55,0,0,1-.55-.5A.57.57,0,0,1,124.19,21.46Z"/><path class="cls-1" d="M124.72,22a.6.6,0,0,1-.54-.54A.64.64,0,0,1,124.72,22Z"/><path class="cls-8" d="M127.78,80.55c-2.51,2.39-5.09,4.63-8.62,5.45a26,26,0,0,1-5.35.67c-8.35.16-16.7,0-24.89-1.93C86,84.06,85,82.27,85.45,79.38a45,45,0,0,1,3.44-10.74,5.71,5.71,0,0,1,6.53-3c.44,3.17-.26,6.32-.06,9.49a14.14,14.14,0,0,0,1,5c.58,1.32,1.4,2.48,3,2.48s2.37-1.27,2.77-2.64a39.56,39.56,0,0,0,1.74-11.44c0-1.7-.35-3.45.47-5.09,1.34-1.13,3-.78,4.46-.71a35.08,35.08,0,0,1,19.11,6.28c4.39,3.11,4.7,5,1.8,9.7a9.45,9.45,0,0,0-1,1.18A1.21,1.21,0,0,1,127.78,80.55Z"/><path class="cls-8" d="M55.76,68.36a37.39,37.39,0,0,1,3.34,9.18c.07.33.17.67.22,1,.56,4.45-.35,5.78-4.75,6.61A73.36,73.36,0,0,1,43.8,86.38c-3.79.15-7.58.56-11.37.38a43.71,43.71,0,0,1-6.15-.71,16.12,16.12,0,0,1-9.87-6.53c-3.67-2.69-4.06-6.75-.63-9.46a34.07,34.07,0,0,1,23.5-7.25,2.4,2.4,0,0,1,1.44.52c.31,3.24.16,6.51.64,9.76a44.31,44.31,0,0,0,1.32,6.58c.48,1.52,1.19,3.09,3.07,3s2.69-1.52,3.12-3.06a21.39,21.39,0,0,0,.73-9.21c-.26-1.6-.75-3.21-.27-4.86A6,6,0,0,1,55.76,68.36Z"/><path class="cls-2" d="M97.88,31.05a20,20,0,0,1,9.77.38A68,68,0,0,1,130.5,42.16c1.92,1.34,3.23,3.3,4.8,5.53-2.51-.68-4.62-1.32-6.78-1.81a27.24,27.24,0,0,0-16.72,1.77A146.78,146.78,0,0,0,93.94,56.5c-4.59,2.65-9.17,2.62-14,1.13a2,2,0,0,1-1.28-.72c0-.55.51-.66.87-.86A177.64,177.64,0,0,0,98.4,43.68a25.47,25.47,0,0,0,6.6-6.89c1-1.49,1-1.8-.61-2.62C102.27,33.05,100.06,32.09,97.88,31.05Z"/><path class="cls-2" d="M11.59,45.28a10.17,10.17,0,0,1,3.15-3.37c7.59-5.08,15.6-9.22,24.68-10.89,2.51-.46,5-.86,7.74,0-1.75.79-3.52,1.54-5.25,2.37C38.63,35,38.65,35,40.78,38a25.05,25.05,0,0,0,5.89,5.78c6.17,4.43,12.32,8.89,19,12.46a3.85,3.85,0,0,1,.58.5c-3,2-8.88,2.68-12,1.22-3.36-1.56-6.65-3.29-9.93-5-3.59-1.89-7.27-3.57-11-5.19a27.91,27.91,0,0,0-19.72-1.19,14.93,14.93,0,0,1-1.51.3c-.29.21-.65.36-.89,0C10.75,46.23,11.37,45.79,11.59,45.28Z"/><path class="cls-4" d="M95.53,65.24a17.55,17.55,0,0,0-6.64,3.4c-.3-.13-1.18.39-.88-.25,1.1-2.35,2.4-4.64,4.89-5.82a27.5,27.5,0,0,1,9.41-2.71,46.08,46.08,0,0,1,26.75,5.55,22.11,22.11,0,0,1,6.85,5.45c1.6,2,1.56,2.67-.4,4.25s-4,3-6,4.5c-.54.14-.73,0-.57-.59.69-1.38,1.24-2.82,1.8-4.26a2.44,2.44,0,0,0-.72-3c-.38-.35-.7-.76-1.11-1.07a34.77,34.77,0,0,0-24.59-7.19A29.55,29.55,0,0,1,95.53,65.24Z"/><path class="cls-3" d="M55.76,68.36a18.67,18.67,0,0,0-6.4-3.11,28,28,0,0,1-8.67-1.72,34.79,34.79,0,0,0-24.52,7.06c-.55.42-1,1-1.48,1.45a2.07,2.07,0,0,0-.52,2.55,19.42,19.42,0,0,0,2.24,4.93c-.16.4-.4.51-.77.25a78,78,0,0,1-6.59-5c-1.36-1.25-1.47-1.82-.47-3.3a17.14,17.14,0,0,1,4.67-4.43A43.42,43.42,0,0,1,32.74,60a37,37,0,0,1,16.6,1.42,12.73,12.73,0,0,1,7.81,7.35C56.53,69,56.23,68.38,55.76,68.36Z"/><path class="cls-9" d="M48.62,124.51c.2-1,1-1.1,1.53-1.37a73.37,73.37,0,0,1,19.61-5.62,26.47,26.47,0,0,1,10.26.89,71.77,71.77,0,0,1,14.75,4.77c.59.28,1.35.4,1.64,1.31a7,7,0,0,1-4.93-.42A97.29,97.29,0,0,0,80,121a36.14,36.14,0,0,0-16.42.27,86.27,86.27,0,0,0-10.47,2.88A6.5,6.5,0,0,1,48.62,124.51Z"/><path class="cls-10" d="M82.15,106l.57-1.29c-1.93.54-3.18,2-5.08,2.31a3,3,0,0,1,1.59-2.27c1-.78,2.13-1.46,3.1-2.31,1.61-1.39,1.61-1.56.63-3.49a29.41,29.41,0,0,1-1.65-3.44c2.42,1.41,3.83,3.69,5.26,5.94.34.54-.09,1-.35,1.41a9.27,9.27,0,0,1-4,3.85A.48.48,0,0,1,82.15,106Z"/><path class="cls-10" d="M63.07,96.74c-.14.31-.25.64-.41.94-1.79,3.3-1.73,3.53,1.3,5.88,1.31,1,3,1.67,3.77,3.87l-4.14-2c-.8-.36-.82.4-1.11.78a.72.72,0,0,1-.62-.08,13.42,13.42,0,0,1-1.48-1c-2.39-2.12-2.53-3.34-.6-5.83.83-1.08,1.78-2.08,2.67-3.11C63,96,63.22,96.18,63.07,96.74Z"/><path class="cls-4" d="M11.59,45.28c.2.51-.83,1.43.52,1.57a2.38,2.38,0,0,1-1.46.6.54.54,0,0,1-.68-.09A4.62,4.62,0,0,1,11.59,45.28Z"/><path class="cls-11" d="M63.07,96.74l-.62-.61a2.87,2.87,0,0,1,1.29-1.32C64,95.74,63.51,96.23,63.07,96.74Z"/><path class="cls-12" d="M62.55,106c0-.47-.63-1-.13-1.33s.87.32,1.17.72L63,106C62.83,106.19,62.69,106.19,62.55,106Z"/><path class="cls-13" d="M62.55,106l.43,0c.07.28.43.69.15.81-.66.31-.93-.33-1.27-.74Z"/><path class="cls-14" d="M128.92,79l.57.59-.47.55a.6.6,0,0,1-.8-.13A1.56,1.56,0,0,1,128.92,79Z"/><path class="cls-15" d="M128.22,80l.8.13c-.35.34-.59,1-1.24.39Z"/><path class="cls-16" d="M82.15,106l0,.71-.48.38-.06-.06A1.08,1.08,0,0,1,82.15,106Z"/><path class="cls-17" d="M10,47.36l.68.09a.59.59,0,0,1-.76.34C9.58,47.65,9.7,47.46,10,47.36Z"/><path class="cls-16" d="M81.7,107.08l-.25.19.2-.24Z"/><path class="cls-18" d="M95.53,65.24a19.62,19.62,0,0,1,8.77-1.72,38.15,38.15,0,0,1-.55,12.83,26.45,26.45,0,0,1-1.09,4.51c-.57,1.47-1.48,2.62-3.1,2.76s-2.88-1-3.67-2.39a8.69,8.69,0,0,1-1.11-3.69C94.54,73.41,94.23,69.27,95.53,65.24Z"/><path class="cls-18" d="M40.69,63.53a19.15,19.15,0,0,1,8.67,1.72,29.38,29.38,0,0,1,.56,13.57,7,7,0,0,1-1.31,3.07c-1.92,2.54-4.74,2.29-6.16-.58a7.52,7.52,0,0,1-.54-1.46,56.46,56.46,0,0,1-1.68-14.59A3.58,3.58,0,0,1,40.69,63.53Z"/></g></g></svg>