<svg xmlns="http://www.w3.org/2000/svg" viewBox="0 0 145.53 145.3"><defs><style>.cls-1{fill:#ffdfbf;}.cls-2{fill:#232b32;}.cls-3{fill:#494e50;}.cls-4{fill:#3d4347;}.cls-5{fill:#676a6a;}.cls-6{fill:#9d9a94;}.cls-7{fill:#71726f;}.cls-8{fill:#fff;}.cls-9{fill:#242b32;}.cls-10{fill:#f3553c;}.cls-11{fill:#f3583e;}.cls-12{fill:#f3573e;}.cls-13{fill:#f78368;}.cls-14{fill:#f77e63;}.cls-15{fill:#8a918e;}.cls-16{fill:#fa9f42;}</style></defs><title>Ozai</title><g id="Layer_2" data-name="Layer 2"><g id="Layer_1-2" data-name="Layer 1"><path class="cls-1" d="M144.36,59.6c.14.21.38.41.4.64a97.53,97.53,0,0,1,.53,18.86A69.29,69.29,0,0,1,137.46,106a75.44,75.44,0,0,1-9.56,14.1,72.12,72.12,0,0,1-13.8,12.4,69.83,69.83,0,0,1-27,11.34c-.33.07-.66.19-1,.29-2.37-1.95-3-4.94-4.39-7.46-.5-.89-.8-1.9-1.24-2.83a3.07,3.07,0,0,0-3.07-1.91c-2.32,0-4.65.08-7,0a3.78,3.78,0,0,0-4,2.53c-1,2.46-2.14,4.89-3.39,7.25a5,5,0,0,1-2.16,2.47,48.79,48.79,0,0,1-11.25-2.74,71,71,0,0,1-14.92-7.07,73.11,73.11,0,0,1-27-29.92A71,71,0,0,1,1,82a56.81,56.81,0,0,1-.43-7.47c0-1.92-.75-3.74-.52-5.66.09-.67-.12-1.39.4-2,.31.09.35.31.29.59.16-.06.13-.18.1-.39a8.07,8.07,0,0,1,.24-2c0-.9.63-1.65.54-2.55,2.1-9.79,7.27-17.86,14.1-25a14.79,14.79,0,0,0,3.82-6.06c1.79-6.06,6.2-10,11-13.77a55.38,55.38,0,0,1,12.78-7.33,7.28,7.28,0,0,1,6,0c7.32,3.13,14.71,6.08,22.21,8.73a6,6,0,0,0,4.26.05c7.27-2.55,14.41-5.43,21.47-8.5a9.2,9.2,0,0,1,8.16.28A57.2,57.2,0,0,1,122.3,22.79a20.22,20.22,0,0,1,5.06,8,21.12,21.12,0,0,0,5.15,8,47.67,47.67,0,0,1,9.65,13.71c.28,1.07.73,2.08,1,3.14.24.54.35,1.13.56,1.67C144.16,58,143.86,58.92,144.36,59.6Z"/><path class="cls-2" d="M141.76,52.84a64.57,64.57,0,0,0-11.32-15.4,13.75,13.75,0,0,1-3.38-5.71,21.05,21.05,0,0,0-6.24-9.66,60.14,60.14,0,0,0-17.56-11.28,5,5,0,0,0-4.2,0C91.41,13.92,83.75,17.07,76,19.86a6.44,6.44,0,0,1-4.71,0Q59.9,15.75,48.85,11a6.58,6.58,0,0,0-5.65.13A61.57,61.57,0,0,0,26.94,21.59,22,22,0,0,0,20.07,32a11.8,11.8,0,0,1-3,5.07c-7.21,7.24-12.59,15.55-15,25.59-1.35-.46-.57-1.44-.55-2.23a29,29,0,0,1,1.65-7.83C11.77,25.49,29.88,8.07,57.56,1.79c36.92-8.37,73.22,13.34,84.6,48.89a6.65,6.65,0,0,1,.17,1C142.48,52.24,142.8,52.88,141.76,52.84Z"/><path class="cls-2" d="M60.88,144.14a49.21,49.21,0,0,0,4.07-8c.47-1.11.94-2.22,1.48-3.29a2.75,2.75,0,0,1,3.13-1.68,28.07,28.07,0,0,0,8,0,2.92,2.92,0,0,1,3.34,1.76c.27.54.51,1.09.74,1.65a105.09,105.09,0,0,0,4.51,9.54,73.77,73.77,0,0,1-16.52,1.11A44.34,44.34,0,0,1,60.88,144.14Z"/><path class="cls-3" d="M141.76,52.84c.48-.24.44-.74.57-1.15a8.62,8.62,0,0,1,1.09,3.6c.18.51,0,.7-.52.61Z"/><path class="cls-4" d="M1.52,60.46c.27.72-.2,1.62.55,2.23.11.92-.43,1.69-.57,2.55C.29,65,1,64.2,1,63.6A6.51,6.51,0,0,1,1.52,60.46Z"/><path class="cls-5" d="M1,63.6c.21.54,0,1.21.52,1.64-.19.89-.37,1.79-.56,2.69-.53-.19-.31-.71-.5-1C.64,65.8.4,64.63,1,63.6Z"/><path class="cls-6" d="M144.36,59.6c-.69-.54-.68-1.41-1-2.12.17-.19.2-.52.53-.56A4.38,4.38,0,0,1,144.36,59.6Z"/><path class="cls-7" d="M143.9,56.92l-.53.56-.47-1.58.52-.61A2.14,2.14,0,0,1,143.9,56.92Z"/><path class="cls-8" d="M60.31,67C61.84,75.47,56.64,84.43,50.07,88a17.12,17.12,0,0,1-10.19,1.9c-8.92-.94-14.37-6.51-18.7-13.56a29.86,29.86,0,0,1-4.08-10c-.29-.56-.69-1-.94-1.62-.72-4.32,0-5.52,4.21-5.72a88.59,88.59,0,0,1,18.05.47,5.45,5.45,0,0,1,2.41.85c.76.69.49,1.59.47,2.43-.06,4.06,0,8.13,0,12.19A20.16,20.16,0,0,0,41.92,80c.44,1.82.57,4.13,2.9,4.44,2.57.34,3.5-1.92,4.28-3.82,1.67-4,2-8.36,2.12-12.7,0-1.51-.41-3.15.86-4.44A11.48,11.48,0,0,1,60.31,67Z"/><path class="cls-8" d="M130.34,65.84a37,37,0,0,1-8.8,16.63c-3.64,3.83-8,6.61-13.55,7.31-10.92,1.38-18-6.06-20.58-14.46A13.9,13.9,0,0,1,87.16,67a10.17,10.17,0,0,1,8.1-3.45c.88,2.8.81,5.73,1,8.61a26.6,26.6,0,0,0,1.89,8.55,8.51,8.51,0,0,0,1.67,2.6c1.9,2,3.73,1.71,4.8-.85C106,79.08,106,75.48,106.19,72a48.41,48.41,0,0,0-.21-9.32,2.42,2.42,0,0,1,.62-2.39c2.36-1.29,5-1.24,7.54-1.39a113.43,113.43,0,0,1,12.37,0C131.77,59.11,132.88,61.22,130.34,65.84Z"/><path class="cls-2" d="M122.62,36.28a100.34,100.34,0,0,0-10.75,1.48,20.76,20.76,0,0,0-12.08,7c-3.23,3.82-6.6,7.53-9.24,11.81a3.45,3.45,0,0,1-2.67,1.72c-5.62.89-7.09-.34-7.4-6a7.62,7.62,0,0,1,2-5.88c3.42-3.89,6.87-7.75,10.48-11.47a10.13,10.13,0,0,1,6-3.2A37.43,37.43,0,0,1,122.62,36.28Z"/><path class="cls-2" d="M24.68,36.28a35,35,0,0,1,13.8-4.66,32.25,32.25,0,0,1,11.08.4A7.13,7.13,0,0,1,53,33.74,143.07,143.07,0,0,1,65.91,47.88a3.2,3.2,0,0,1,.76,1.88A20.71,20.71,0,0,1,66,56.68a1.64,1.64,0,0,1-1.6,1.4c-1,.09-2.06.29-3.09.31A5.35,5.35,0,0,1,56,55.6a76.8,76.8,0,0,0-10.1-12.46c-3.52-3.74-8.16-5-13-5.85C30.25,36.79,27.51,36.67,24.68,36.28Z"/><path class="cls-9" d="M60.31,67A63.24,63.24,0,0,0,52,63.49c-3.72-.53-7.44-1.09-10.9-2.71a22,22,0,0,0-6.38-1,87,87,0,0,0-16.3.15c-1.86.23-1.87.3-1.82,2.24,0,1,.12,2.07.18,3.1a.41.41,0,0,1-.66.07l-5.42-5.93c-.46-.51-.94-1-1.37-1.55-1.43-1.75-1.21-2.5.9-3a14.59,14.59,0,0,1,2.55-.42A93.49,93.49,0,0,1,56,61.66a43.63,43.63,0,0,1,4.14,2.12A10.13,10.13,0,0,1,62,65.17c.44.39.91.91.62,1.57-.41.9-1.14.51-1.79.34A4.43,4.43,0,0,0,60.31,67Z"/><path class="cls-2" d="M95.39,63.44A58.36,58.36,0,0,0,87.17,67a4.38,4.38,0,0,0-.52,0c-.63.13-1.4.73-1.87-.06-.56-.94.18-1.62.88-2.15a29.19,29.19,0,0,1,7.76-4.06c13.16-4.89,26.69-7.4,40.78-6.27a16.8,16.8,0,0,1,3.31.53c1.49.4,1.79,1.25.81,2.47a55.51,55.51,0,0,1-4,4.42c-1.33,1.32-2.3,3-4,4a30.43,30.43,0,0,0,.48-4.37c0-1-.39-1.38-1.34-1.45-.77-.05-1.53-.31-2.3-.34a112.58,112.58,0,0,0-18.9.56,16.36,16.36,0,0,0-2,.52A38,38,0,0,1,95.39,63.44Z"/><path class="cls-10" d="M58.46,128.48a5.07,5.07,0,0,1,2.5-2.72c3.4-2.24,7.2-3.71,10.91-5.33a4.2,4.2,0,0,1,3.52,0c3.76,1.73,7.66,3.17,11.12,5.5a5.09,5.09,0,0,1,2.32,2.52,4.14,4.14,0,0,1-2.6-.84c-3.45-1.8-7.06-3.23-10.65-4.69a4.88,4.88,0,0,0-4,0c-3.35,1.39-6.72,2.7-9.94,4.38A8.28,8.28,0,0,1,58.46,128.48Z"/><path class="cls-11" d="M83.06,111c1.94-2.63,2.39-3.64,2.57-6-2.89.85-4.87,2.83-7.11,5.09a6,6,0,0,1,2.84-5.15,14.93,14.93,0,0,1,2.75-1.43c1.79-.82,1.93-1,1.42-2.87-.39-1.48-.89-2.93-1.15-4.46a10.28,10.28,0,0,1,3.48,7.62c.16,3.49-1.44,5.93-4.18,7.81C83.15,111.69,83,111.47,83.06,111Z"/><path class="cls-12" d="M62.38,98.07c-.23.92-.45,1.84-.69,2.75-.5,1.88-.51,1.9,1.25,2.59A10.64,10.64,0,0,1,67.07,106a6,6,0,0,1,1.84,4.06c-2.36-2.19-4.48-4.21-7.58-5.31.41,3.24,2.18,5.39,4.17,7.75-6-2.42-7.23-7.64-5.46-12.38A10.55,10.55,0,0,1,61.83,97C62.82,96.94,62.58,97.52,62.38,98.07Z"/><path class="cls-13" d="M83.06,111l.62.63a4,4,0,0,1-2.41,1.47A4,4,0,0,1,83.06,111Z"/><path class="cls-14" d="M62.38,98.07c-.08-.41-.09-.86-.55-1.08a2.12,2.12,0,0,1,1.33-1.36A3.3,3.3,0,0,1,62.38,98.07Z"/><path class="cls-15" d="M16.07,65.37l.66-.07c.42.22.38.6.37,1C16.63,66.12,16.17,66,16.07,65.37Z"/><path class="cls-16" d="M41.05,60.78A37,37,0,0,1,52,63.49,57.5,57.5,0,0,1,50.9,77.65a17.18,17.18,0,0,1-2.11,5.26,5.72,5.72,0,0,1-2.38,2.32c-1.7.83-3.21.23-4.24-1.71a15,15,0,0,1-1.45-6,103,103,0,0,1-.17-15A3.58,3.58,0,0,1,41.05,60.78Z"/><path class="cls-16" d="M95.39,63.44a38,38,0,0,1,10.89-2.68c1.12,4.7.72,9.46.41,14.19a28.45,28.45,0,0,1-.76,6.16,9.44,9.44,0,0,1-1.3,3.08,2.87,2.87,0,0,1-4.49.6,8.73,8.73,0,0,1-2.47-3.3,20,20,0,0,1-1.77-6.2C95.46,71.36,94.84,67.42,95.39,63.44Z"/></g></g></svg>