<svg xmlns="http://www.w3.org/2000/svg" viewBox="0 0 145.21 145.16"><defs><style>.cls-1{fill:#ffead5;}.cls-2{fill:#f3533a;}.cls-3{fill:#fff;}.cls-4{fill:#232b32;}.cls-5{fill:#f3563d;}.cls-6{fill:#f56f57;}.cls-7{fill:#fab8a2;}.cls-8{fill:#f7836b;}.cls-9{fill:#f9a18a;}.cls-10{fill:#f67e66;}.cls-11{fill:#777d7c;}.cls-12{fill:#787676;}.cls-13{fill:#f9bfa9;}.cls-14{fill:#f9b7a1;}.cls-15{fill:#5acfc9;}.cls-16{fill:#c2e7e6;}.cls-17{fill:#cce8e7;}.cls-18{fill:#8ee0dc;}</style></defs><title>Suki</title><g id="Layer_2" data-name="Layer 2"><g id="Layer_1-2" data-name="Layer 1"><path class="cls-1" d="M128.15,119c-1.62,3.15-4.34,5.36-6.88,7.65a75.49,75.49,0,0,1-11.88,8.62,72.53,72.53,0,0,1-20.55,8.16A68.61,68.61,0,0,1,74,145.14a72.69,72.69,0,0,1-24.13-3.43,74.46,74.46,0,0,1-22.42-12.05,83.26,83.26,0,0,1-9.06-8.46,2.2,2.2,0,0,1-.8-1.57c2.49-.7,4.6,1.13,6.65,1-2.58-1.44-5.91-2.38-7.42-5.76a1.08,1.08,0,0,1,.77-.8c2.32,0,4.15,1.58,6.36,2,1.09.21,2.17.44,3.8.79A69.33,69.33,0,0,1,13.6,99.27,50.6,50.6,0,0,1,7.11,70.4a2.81,2.81,0,0,1,.8-2.11c1.18-.6,2,.25,2.71.86,1.5,1.25,3.07,2.42,4.48,3.77.27.47.77.48,1.22.61a17,17,0,0,1,3.36,4.88c2.65,5,6.92,7,12.43,7.34,5.34.32,10.65.71,16,0,3.54-.49,7-1.13,10-3.24s3.85-4.54,3.2-8.08c-.49-2.64-2-5-2.32-7.64,1.52-2,.56-3.79-.49-5.49-4-6.45-9.89-10-17.3-11C30.29,48.87,20.48,51.38,12,58.49c-.64.54-1.23,1.28-2.25,1C9,58.4,9.41,57.3,9.67,56.22a70.78,70.78,0,0,1,9.86-22.17,96.1,96.1,0,0,0,7.13-12c.73-1.6,1.75-1.86,3.34-1.33,5.33,1.79,10.52,4,15.71,6.12s10.65,4.11,16,6.07c8.78,3.19,17.2,1.54,25.56-1.52,8.53-3.12,16.8-6.91,25.33-10,3.62-1.33,4.07-1.23,5.9,2.19,3.64,6.79,8.49,12.86,11.74,19.87a74.64,74.64,0,0,1,4.66,13.19c.23.9.63,1.83.09,2.77a.79.79,0,0,1-.75.21,2.71,2.71,0,0,1-.73-.34A36.76,36.76,0,0,0,110.89,50c-9.66-.46-18.41,1.79-24.29,10.4-1.32,1.94-2.56,4-1.2,6.48C85.62,68,85,69,84.61,70.05a29.08,29.08,0,0,0-1.06,3.19c-1.17,5.07.11,7.76,4.61,10.3,3.94,2.21,8.32,2.23,12.58,2.58a59.84,59.84,0,0,0,17-1.32,7.7,7.7,0,0,0,4.66-3c2-2.58,3.56-5.51,5.7-8a12.16,12.16,0,0,0,1.9-1.28c2-1.63,3.53-3.94,6.32-4.45.86.56.79,1.46.86,2.31,1.12,13.27-2.69,25-10.58,35.66-2.79,3.76-6.23,6.9-9.61,10.56,4,0,7.13-2,10.49-3a1.54,1.54,0,0,1,.72.21c.42,1.16-.5,1.74-1.11,2.39a18,18,0,0,1-7.62,4.65c2.1-.5,4.45-1,6.74-1.8A2,2,0,0,1,128.15,119Z"/><path class="cls-2" d="M128.15,119a48.54,48.54,0,0,1-6.62,2,21.9,21.9,0,0,1-3.83.24c3.94-1.92,7.92-3.76,10.65-7.36v-.22l-.15-.15-.16.15a.55.55,0,0,0-.4.19,26.41,26.41,0,0,1-12.06,3.61c0-1,.81-1.3,1.32-1.77a65,65,0,0,0,15.9-21.83,42.34,42.34,0,0,0,3.8-17,49.55,49.55,0,0,0-.34-8.78,22.28,22.28,0,0,1-1.71-8.53c.22-2.55-.82-4.85-1.52-7.2a70.79,70.79,0,0,0-9.18-18.79,99.74,99.74,0,0,1-6.58-11.15c-.85-1.7-.87-1.73-2.74-1.07-6.67,2.38-13.19,5.13-19.75,7.8-4.15,1.69-8.36,3.24-12.65,4.58a32.35,32.35,0,0,1-19.85,0c-6.51-2-12.78-4.7-19.11-7.24-4.49-1.79-9-3.49-13.51-5.26-1.13-.44-1.75-.44-2.34.92a66.48,66.48,0,0,1-6.08,10.53,75,75,0,0,0-9.62,19.15,27.35,27.35,0,0,0-1.79,7.78,18.41,18.41,0,0,1-1.6,8.59A38.86,38.86,0,0,0,8,80c1.7,14.74,9.38,26.23,20,36.08.36.35.76.67,1.2,1.05-2.87.55-5.83-.18-11.5-2.77a1.1,1.1,0,0,0-1,0,6.06,6.06,0,0,1,.36.66,15.9,15.9,0,0,0,4.41,3.5c1.52.87,3.09,1.65,5,2.66-3.39.43-6.06-.88-8.84-1.52h0a1,1,0,0,0-.53-.36,23,23,0,0,1-1.59-1.69A73.58,73.58,0,0,1,.36,79.6C-3.09,45.68,18.45,10.71,56,2.12c27-6.19,50.66,1.26,69.92,21.35a68.52,68.52,0,0,1,18.7,39.93,71.63,71.63,0,0,1-13.88,52.79A9.76,9.76,0,0,1,128.15,119Z"/><path class="cls-1" d="M17.09,119.28a.48.48,0,0,1,.53.36Z"/><path class="cls-3" d="M128.62,74c-2,3-4,6-6.15,8.88a5.64,5.64,0,0,1-3.28,2.32,46,46,0,0,1-8.12,1.31c-2.56.1-5.12.5-7.71.46a71.86,71.86,0,0,1-11.25-1.14A15.28,15.28,0,0,1,84.6,82c-2.56-2.31-2.38-5.37-1.87-8.42.39-2.39,1.72-4.48,2.33-6.8a5.51,5.51,0,0,1,2.51-3.93,1.4,1.4,0,0,1,.93.37c.37.16.64-.09.93-.25,3-1.64,5.58-1.26,7.66,1.12a7.53,7.53,0,0,1,.13,9.15,6,6,0,0,1-7.43,2.2c1.76,4.69,7.63,6.65,12,6.45,6.07-.29,10.86-3,13.43-8.63,2.7-5.85,2.55-11.69-1.46-17.12-.72-1-2.66-2.41.41-3a26.33,26.33,0,0,1,17.41,11.4c1.92,2.81.06,5.39-1.3,7.88A6.66,6.66,0,0,1,128.62,74Z"/><path class="cls-3" d="M59.21,66.66A36.28,36.28,0,0,1,62,74.42a7.63,7.63,0,0,1-3.27,8.51c-3.36,2.36-7.14,3.21-11.15,3.52a52.22,52.22,0,0,1-9,.45c-3.92-.35-7.86-.54-11.76-1.27A8.88,8.88,0,0,1,21.39,82c-2.15-2.69-3.68-5.8-5.72-8.57a1.52,1.52,0,0,1-.94-.65c-3.59-4.54-3.45-7.08.63-11.25,4.25-4.35,9.15-7.54,15.31-8.42,2.59.39,1.25,1.59.48,2.57-3.91,4.92-4.43,10.4-2.48,16.15C31.84,81.2,44.52,85,52,79a7.78,7.78,0,0,0,2.54-3.23c-7,1.52-9.61-5.22-8.18-9.89,1.22-4,5.37-5,9-2.48.42-.16.23,1.44,1,.32a1,1,0,0,1,.91-.34A3.34,3.34,0,0,1,59.21,66.66Z"/><path class="cls-4" d="M59.21,66.66l-2.11-3.1c-1-.37-1.46-1.36-2.24-2-5.52-5.05-12.17-7.29-19.51-7.62-1.61-.07-3.18-.73-4.82-.34A28.78,28.78,0,0,0,14.22,63.69a4.92,4.92,0,0,0-.9,5.45c.5,1.3,1.27,2.43,1.76,3.72a.42.42,0,0,1-.06.61c-2.44-1.54-4.31-3.8-6.79-5.29a30,30,0,0,1,1.6-8.59c7-7,15.71-10.09,25.43-10.43a30.44,30.44,0,0,1,14.3,3A22,22,0,0,1,59.82,62.33a7.3,7.3,0,0,1,.8,3C60.66,66.27,60.21,66.75,59.21,66.66Z"/><path class="cls-4" d="M87.7,63.07l-2.64,3.68c-.89-.08-1.11-.64-1.11-1.43a9.13,9.13,0,0,1,1.83-5,23,23,0,0,1,16.28-10.44c12.12-2,22.92.79,32.05,9.25l.17.15.27.3c1.28,2.7,1.42,5.63,1.71,8.53l-6,4.85c-.51.12-.76,0-.61-.59a1.7,1.7,0,0,1,.09-.24c3.16-6.21,2.6-6.35-1.8-10.9a26.1,26.1,0,0,0-13.81-7.57c-9,.15-17.67,1.53-24.66,8A4,4,0,0,1,87.7,63.07Z"/><path class="cls-2" d="M120.36,38.87a2.68,2.68,0,0,1-2.24.65A56.23,56.23,0,0,0,99.31,43.8c-4.34,1.68-8.52,3.74-12.78,5.6a12.86,12.86,0,0,1-5.24,1.3c-.52,0-1,0-1.55-.07C78.6,50.48,77.4,50.12,77,49s.64-1.7,1.28-2.36A36.25,36.25,0,0,1,99.11,36.08a43.79,43.79,0,0,1,17.94,1.12C118.22,37.5,119.62,37.58,120.36,38.87Z"/><path class="cls-2" d="M24.11,39c.29-1,1.21-1.19,2-1.41,13.81-3.89,26.63-2.37,38,7a19.37,19.37,0,0,1,2.59,2.53c1.33,1.61,1,2.57-1,3.24a8.69,8.69,0,0,1-5.1-.06,37.82,37.82,0,0,1-6.23-2.53,115.62,115.62,0,0,0-15.36-6.12,50.44,50.44,0,0,0-12.19-2.14A5.2,5.2,0,0,1,24.11,39Z"/><path class="cls-2" d="M89.06,125.22c-1.06-.18-2.61-.34-4.11-.7a21.78,21.78,0,0,0-10.73-.37,9.56,9.56,0,0,1-4.63-.11,17.47,17.47,0,0,0-8.44.16c-1.42.34-2.88.5-4.32.78-4.56.91-7.54-1.58-10.23-4.71a1.17,1.17,0,0,1-.09-1.64,1.52,1.52,0,0,1,1.65-.47,5.1,5.1,0,0,1,2.15,1.39c.55.54,1,1.16,1.62,1.67,1.63,1.4,2.35,1.5,4.16.38,1.61-1,3.15-2.12,4.7-3.22,2.49-1.76,5.08-2.42,8-1.1a8.2,8.2,0,0,0,7,0c2.73-1.25,5.19-.68,7.55.94,1.63,1.13,3.24,2.29,4.93,3.33,2,1.24,2.8,1.1,4.56-.56.63-.59,1.2-1.25,1.82-1.84a3.6,3.6,0,0,1,1.79-1,1.43,1.43,0,0,1,1.57.64,1.23,1.23,0,0,1-.09,1.44C96.6,122.65,92.34,125.17,89.06,125.22Z"/><path class="cls-5" d="M82,108.26a12.5,12.5,0,0,0,3.27-4.6c.58-1.55.33-1.9-1.27-1.76a10,10,0,0,0-6,2.75c-.38.35-.78.68-1.17,1-.53.09-.8-.08-.66-.67,1.49-4.48,5.46-4.68,9.3-5.33C85,96.86,83,94.7,82,92.1c.31-.1.52-.22.59-.17,3.28,2.47,5.58,5.52,5.7,9.84a5.18,5.18,0,0,1-2,4.3,19.17,19.17,0,0,1-3.74,2.73C82,109,81.91,108.74,82,108.26Z"/><path class="cls-5" d="M61.15,108.26a12.13,12.13,0,0,1-2.88-2.16,6,6,0,0,1-1.77-6.8,13.82,13.82,0,0,1,5.6-7.39c-.29,2.87-2.76,4.86-3,7.82,4.14.45,8,1.22,9.5,5.83.06.51-.15.71-.65.55-3.45-3.48-5.49-4.4-9.06-4,.07,2.31,1.54,3.89,2.85,5.55C61.89,108.16,61.74,108.43,61.15,108.26Z"/><path class="cls-6" d="M61.15,108.26l.63-.62a6.35,6.35,0,0,1,2,1.94A3.78,3.78,0,0,1,61.15,108.26Z"/><path class="cls-7" d="M17.07,115c-.8-.38-1.26-1.08-2.12-2.16a5.85,5.85,0,0,1,2.73,1.55Z"/><path class="cls-8" d="M82,108.26l.55.54a6.09,6.09,0,0,1-2.12,1.33A2.82,2.82,0,0,1,82,108.26Z"/><path class="cls-9" d="M68,106.11l.65-.55c.54.39.49,1.06,1.21,2C68.63,107.17,68.23,106.74,68,106.11Z"/><path class="cls-10" d="M76.18,105l.66.67a2.57,2.57,0,0,1-1.37,1.3A2.16,2.16,0,0,1,76.18,105Z"/><path class="cls-11" d="M129.68,72.35l.61.59a1.7,1.7,0,0,1-1.67,1C128.93,73.4,129.07,72.72,129.68,72.35Z"/><path class="cls-12" d="M15,73.47l.06-.61.59.57c-.07.21-.16.44-.43.38C15.14,73.79,15.09,73.59,15,73.47Z"/><path class="cls-13" d="M128.75,113.44a.43.43,0,0,1-.4.5l-.71,0a1,1,0,0,1,1-.56Z"/><polygon class="cls-2" points="134.28 59.26 134.13 59.25 134.11 59.11 134.26 59.1 134.28 59.26"/><path class="cls-14" d="M128.66,113.35l.25-.3c.31.28,0,.3-.16.39Z"/><path class="cls-15" d="M88.85,61.48a27.65,27.65,0,0,1,15.64-7.73,38.21,38.21,0,0,1,7.71-.51c.67,0,1.39-.11,2,.4l-1.39.27c.66.8,1.29,1.48,1.83,2.23,6.71,9.29,1.87,24.92-11.33,26.24a16.87,16.87,0,0,1-6.61-.53C92.34,80.57,90,78.37,88.34,74c.64-.39.85.31,1.17.53a4.54,4.54,0,0,0,5.12.18c3.49-1.87,4.53-7.38,1.94-10.33a4.84,4.84,0,0,0-7.3-.48c-.29.25-.37.76-.88.74-.26-.34-.11-.68-.09-1C88.23,62.85,89,62.28,88.85,61.48Z"/><path class="cls-16" d="M88.85,61.48c.68.94-.12,1.5-.55,2.15l-.6-.56C87.82,62.35,88.4,62,88.85,61.48Z"/><path class="cls-15" d="M30.53,53.6c1.3-.69,2.69-.35,4-.33A31,31,0,0,1,53.3,59.35a6.7,6.7,0,0,1,2.23,2.07c.12.94,1.23,1.69.54,2.79a.46.46,0,0,1-.59-.09c-2.71-2.81-6.59-1.82-8.27,1.28a7.61,7.61,0,0,0,2.24,9.07c2.17,1.45,4.23,1,6.7-.68a10.17,10.17,0,0,1-3.22,5.31A14.21,14.21,0,0,1,41.1,82.32C34.58,81.44,30,78,28,71.76c-2.21-6.58-1.13-12.6,3.81-17.84Z"/><path class="cls-17" d="M56,64.09c.16-1-1.08-1.64-.5-2.67a4,4,0,0,1,1.57,2.14l-.61.58A.27.27,0,0,1,56,64.09Z"/><path class="cls-18" d="M56,64.09a3.59,3.59,0,0,1,.46,0c-.05.24-.07.67-.16.68-.51.1-.68-.32-.85-.7Z"/></g></g></svg>