<svg xmlns="http://www.w3.org/2000/svg" viewBox="0 0 145.04 145.23"><defs><style>.cls-1{fill:#ffead5;}.cls-2{fill:#232b32;}.cls-3{fill:#5acfc9;}.cls-4{fill:#fff;}.cls-5{fill:#242b32;}.cls-6{fill:#f2543b;}.cls-7{fill:#f45940;}.cls-8{fill:#f45a41;}.cls-9{fill:#f99780;}.cls-10{fill:#f8927a;}.cls-11{fill:#f88c75;}.cls-12{fill:#f88870;}.cls-13{fill:#f7866e;}.cls-14{fill:#fbac95;}.cls-15{fill:#f99c85;}.cls-16{fill:#faac95;}.cls-17{fill:#f56c54;}.cls-18{fill:#9e978f;}.cls-19{fill:#f6765e;}.cls-20{fill:#fcc6b0;}.cls-21{fill:#f66f57;}.cls-22{fill:#f66e56;}.cls-23{fill:#7e807a;}.cls-24{fill:#f88f78;}.cls-25{fill:#faa791;}.cls-26{fill:#a7a79c;}.cls-27{fill:#848c8a;}.cls-28{fill:#fbbaa4;}.cls-29{fill:#4e5054;}.cls-30{fill:#b5aea1;}.cls-31{fill:#7b6c6a;}.cls-32{fill:#80797a;}.cls-33{fill:#f99f89;}.cls-34{fill:#f98e76;}.cls-35{fill:#5bcfc9;}.cls-36{fill:#5c6866;}.cls-37{fill:#6d6b68;}</style></defs><title>Tenzin</title><g id="Layer_2" data-name="Layer 2"><g id="Layer_1-2" data-name="Layer 1"><path class="cls-1" d="M29.22,131.07a95.66,95.66,0,0,1-9.57-8.65A73.66,73.66,0,0,1,.21,80,96.4,96.4,0,0,1,.09,69.38c0-8.84,2.3-17.15,5.61-25.27a69.59,69.59,0,0,1,10.16-17A68.41,68.41,0,0,1,24.6,18,77.89,77.89,0,0,1,42.33,6.5a74.72,74.72,0,0,1,14.91-5,10.06,10.06,0,0,1,2.06-.1c1,2,.94,4.17,1.1,6.28s.15,4.47.46,6.7c.41,3-.29,3.85-3.25,4.48S51.74,20.11,48.67,21c1.3,2.37,3.27,3.84,4.82,5.65,5.4,6.28,10.74,12.6,17,18C72,46,73,46.15,74.44,44.74a258.53,258.53,0,0,0,18-19.33c1.15-1.37,2.48-2.6,3.86-4.21-3.13-1.34-6.22-1.63-9.19-2.39s-3.1-.75-3.06-4c.07-4.65.7-9.27.63-13.92a72.64,72.64,0,0,1,21.9,7.52A78.26,78.26,0,0,1,120.32,18a74.56,74.56,0,0,1,13.93,16.5,72.58,72.58,0,0,1,8,17.87c2.71,8.6,3.11,17.46,2.59,26.34a68.61,68.61,0,0,1-5.07,21.24,71.11,71.11,0,0,1-10.2,17.61,58.52,58.52,0,0,1-13.78,13.14c-.79.17-1.29-.34-1.84-.75-10-7.53-19.77-15.28-30.11-22.29-.71-.48-1.46-1-1.52-2,.15-1.13,1-1.78,2.19-2.74-7.61,5-15,5.65-22.57,1.07-.06.85.46,1.46.22,2.14-1.31,2.19-3.7,3-5.61,4.46Q42.81,120.73,29.22,131.07Z"/><path class="cls-2" d="M82.58,105.83c5.31,3.86,10.68,7.64,15.9,11.61,5.78,4.39,11.8,8.47,17.31,13.22a49.9,49.9,0,0,1-11.32,7.14,72.62,72.62,0,0,1-73.08-5.34c-.71-.48-1.45-.93-2.17-1.39,0-1.07.9-1.42,1.55-1.91q10.32-7.83,20.69-15.6c3.47-2.57,7-5,10.54-7.53.58-.73,1.23-.38,1.84-.07A35.66,35.66,0,0,1,67,107.6c4,2.47,7.8,1.87,11.63-.39C79.86,106.51,80.92,105.26,82.58,105.83Z"/><path class="cls-3" d="M84.65.91c.84.75.66,1.74.61,2.67-.19,4.05-.43,8.1-.63,12.15-.1,1.91-.07,1.88,1.82,2.29a81.28,81.28,0,0,1,11,2.77c-1.73,2-3.37,3.81-5,5.66A245.35,245.35,0,0,1,74.73,45.3c-.38.35-.78.69-1.13,1.07-.82.9-1.54.78-2.41,0a186.4,186.4,0,0,1-13.8-14c-3.07-3.51-6.16-7-9.23-10.51-.22-.26-.41-.54-.72-1,2.6-1.28,5.36-1.49,8-2.25.91-.27,1.86-.39,2.79-.57,2.14-.43,2.19-.43,2.06-2.71C60,10.67,59.62,6,59.3,1.39,60.65.68,62.17.82,63.6.62a65.31,65.31,0,0,1,17.72,0A24.85,24.85,0,0,0,84.65.91Z"/><path class="cls-4" d="M132.26,77.68a49.62,49.62,0,0,1-7.09,7.47,8.71,8.71,0,0,1-6.26,2.48,129.21,129.21,0,0,1-14.31-1.49c-3.31-.43-6.63-.75-9.94-1.2a58.9,58.9,0,0,1-6.32-1.13c-2.39-.59-2.92-1.81-2.1-4.24a25,25,0,0,1,10.33-13.7,1.9,1.9,0,0,1,1.58-.78c2-.11,2.65.92,2.27,2.74a43.31,43.31,0,0,0-.44,8.51,10.23,10.23,0,0,0,.1,2.07c.35,1.66.43,3.79,2.63,3.91s2.52-2,3-3.64c.89-3.31.5-6.69.62-10.05,0-1.34-.17-2.86,1.59-3.44,2.61-.5,5.16.13,7.68.59,3.47.63,6.9,1.48,10.34,2.25A17,17,0,0,1,130.39,70c2.57,1.43,3.66,3.53,3,6.45A2.44,2.44,0,0,1,132.26,77.68Z"/><path class="cls-4" d="M49.47,66.19c.84,1.66,2.41,2.66,3.61,4A23.58,23.58,0,0,1,58.8,80.72c.4,1.71.2,2-1.39,2.7-2.32,1-4.84,1.13-7.28,1.5-5.17.77-10.35,1.47-15.54,2a65.5,65.5,0,0,1-9.51.65,7.37,7.37,0,0,1-4.69-1.83,49.16,49.16,0,0,1-7.72-7.54,3.21,3.21,0,0,1-.65-.57l0,0a10.26,10.26,0,0,1-1-1.89A5.91,5.91,0,0,1,14.21,70,13,13,0,0,1,18,68.3a140.87,140.87,0,0,1,15.49-3.19,7.19,7.19,0,0,1,3.59.25c1.18.69,1.16,1.88,1.11,3-.12,3,.52,5.85.63,8.78a8.58,8.58,0,0,0,.58,2.79c.47,1.23,1,2.53,2.64,2.42,1.41-.1,2-1.26,2.34-2.46a18.26,18.26,0,0,0,.49-7.71c-.19-1.37-.27-2.75-.49-4.12-.31-2,.38-3,2.43-3C47.8,65.14,49,64.81,49.47,66.19Z"/><path class="cls-2" d="M7.83,56.38c.38-.67.75-1.35,1.12-2,.24-.41.13-1,.52-1.28a1.29,1.29,0,0,1-.06-.21,2.23,2.23,0,0,1,0,.23,3.28,3.28,0,0,1-1,.7l-2,1.62c-.52.1-.78-.07-.64-.63A32.12,32.12,0,0,1,16.16,43.46c3.24-2.29,6.61-4.39,10-6.54a38.32,38.32,0,0,0,5.1-3.54A2.3,2.3,0,0,1,34,33a37.1,37.1,0,0,1,9.6,6.06c1.86,1.54,3.68,3.14,5.55,4.67a31.75,31.75,0,0,0,16.44,7,2.56,2.56,0,0,1,1.74.61,9.33,9.33,0,0,1-6.45,4.75c-3.88.72-7.82,1-11.68-.65A102.71,102.71,0,0,0,34.43,50a21.61,21.61,0,0,0-11.75.08c-3.15.89-6.39,1.46-9.27,3.17a29.92,29.92,0,0,0-5,3.66C7.91,57.07,7.68,56.92,7.83,56.38Z"/><path class="cls-2" d="M135.53,53.85l1.62,3a.39.39,0,0,1,.13.42c-.06.14-.1.21-.15.21-2.13-1.76-4.19-3.64-6.76-4.73-7.56-3.23-15.23-5-23.34-1.86-3.63,1.4-7.33,2.61-10.83,4.29-3.89,1.87-7.92,1.67-11.92,1a10,10,0,0,1-6.84-4.69c.44-.83,1.2-.72,1.82-.8a31.53,31.53,0,0,0,16-6.8c2.23-1.78,4.35-3.69,6.57-5.48a33.41,33.41,0,0,1,9-5.51,2.06,2.06,0,0,1,2.36.17c4.1,3.34,8.8,5.79,13.16,8.74,5.15,3.48,9.7,7.5,12.8,13,.39.58.41,1-.46,1a16.54,16.54,0,0,0-3.15-2.63.76.76,0,0,1-.46-.19.35.35,0,0,1-.21-.4l-.22,0,.16.17a2.74,2.74,0,0,0,.32.36A5.79,5.79,0,0,1,135.53,53.85Z"/><path class="cls-5" d="M98.16,65.66l-1.59.21c-1.28-.09-2.51.52-3.95.23a8.84,8.84,0,0,1,4.73-3.87,21.19,21.19,0,0,1,11.49-1c10.39,1.62,20.71,3.71,31,5.93a5.41,5.41,0,0,1,2.56,1l-8.86,9c-.51.13-.74,0-.59-.56.48-3.18-.84-5.33-3.73-6.59A14.06,14.06,0,0,0,126.59,69c-6.13-1.32-12.17-3.18-18.52-3.29C104.77,66.3,101.47,65.79,98.16,65.66Z"/><path class="cls-5" d="M36.9,65.65c-6.33.1-12.36,1.93-18.48,3.23a16,16,0,0,0-1.92.72c-3,1.11-4.92,3-4.92,6.44.16.63-.14.79-.7.69L2.15,68a67.36,67.36,0,0,1,10.78-2.59c6.33-1.27,12.67-2.53,19-3.65,4.5-.79,9.05-1.33,13.6-.16,3.17.81,4.9,2,6.45,4.56H49.47a6,6,0,0,0-2.67-.51c-1.56-.67-3,.43-4.54.34A34.33,34.33,0,0,1,36.9,65.65Z"/><path class="cls-6" d="M82.58,105.83c-1.59.85-3.2,1.66-4.77,2.55a10.32,10.32,0,0,1-10.78.06c-1.62-.9-3.07-2.22-5-2.41-.15-1.26-1.52-1.86-1.76-3.58,2.75,1.26,5.13,2.75,7.82,3.46a16.25,16.25,0,0,0,8.42.06c2.76-.72,5.19-2.17,8-3.51C84.41,104.12,83,104.73,82.58,105.83Z"/><path class="cls-7" d="M100.84,55.44c10.41-4.48,20.29-3.91,29.51,3.08.13.46,0,.71-.5.5-1.95-.92-3.89-1.83-5.83-2.76-7-3.36-14.2-2.8-21.4-.67l-1.23.38C100.84,56.17,100.73,55.92,100.84,55.44Z"/><path class="cls-8" d="M42,55.44c-2.11-.34-4.19-.88-6.31-1.24a26.32,26.32,0,0,0-16.25,2.63c-1.23.6-2.49,1.14-3.74,1.71-.57.22-.66-.06-.56-.53,8.56-6.31,17.77-6.84,27.46-3.1C42.69,55.39,42.61,55.7,42,55.44Z"/><path class="cls-9" d="M16.33,92.09c2.49,2.13,5,4.2,8.16,5.27.18.11.23.22.18.33s-.1.18-.15.18c-3.62-.62-6.25-2.76-8.48-5.51C16,92.11,16.09,92,16.33,92.09Z"/><path class="cls-9" d="M116.92,97.85a20.63,20.63,0,0,1-8.34-3h0a49.6,49.6,0,0,1,8.31,2.57q.26.14.18.3C117,97.8,117,97.85,116.92,97.85Z"/><path class="cls-10" d="M125.6,94.66l5.26-5.23a.44.44,0,0,1,0,.72c-1.52,1.76-2.91,3.66-5,4.78C125.59,95,125.52,94.91,125.6,94.66Z"/><path class="cls-11" d="M34.81,95.79c-2.39.75-4.7,1.81-7.23,2.07-.15-.1-.2-.21-.14-.3s.11-.14.16-.14l6.71-2.13C34.85,95.08,34.94,95.33,34.81,95.79Z"/><path class="cls-12" d="M125.86,94.93A9.32,9.32,0,0,1,120,97.87c-.16-.11-.21-.21-.15-.32s.12-.15.17-.15a25.29,25.29,0,0,0,5.6-2.74A1,1,0,0,0,125.86,94.93Z"/><path class="cls-13" d="M100.84,55.44l.55.53q-2.11,1.26-4.24,2.51a.38.38,0,0,1-.61,0A9.75,9.75,0,0,1,100.84,55.44Z"/><path class="cls-9" d="M12.55,88.07a13.67,13.67,0,0,1,3.78,4l-.29.27c-1.28-1.33-3-2.33-3.49-4.29Z"/><path class="cls-14" d="M34.81,95.79l-.5-.5c1.27-.9,2.79-1,4.22-1.38C37.48,95,36.06,95.19,34.81,95.79Z"/><path class="cls-15" d="M45.75,56.44a9.94,9.94,0,0,1,3.14,2.45A10,10,0,0,1,45.23,57C45.25,56.63,45.55,56.58,45.75,56.44Z"/><path class="cls-16" d="M130.9,90.15c0-.24,0-.48,0-.72.3-1.25,1.42-1.78,2.28-2.56C132.84,88.27,131.71,89.1,130.9,90.15Z"/><path class="cls-17" d="M45.75,56.44l-.52.51L42,55.44l.6-.53A11,11,0,0,1,45.75,56.44Z"/><path class="cls-18" d="M138.73,55.85c.53-.15.36-.63.46-1,.7.49.74,1.28,1,2.26A1.86,1.86,0,0,1,138.73,55.85Z"/><path class="cls-19" d="M15.17,58l.56.53a5.55,5.55,0,0,1-2.16,1.17.45.45,0,0,1,0-.69C14.12,58.68,14.64,58.34,15.17,58Z"/><path class="cls-20" d="M107,94.3c-.67,0-1.38.14-1.84-1,.94.27,1.76.25,2.37.94C107.39,94.49,107.21,94.51,107,94.3Z"/><path class="cls-21" d="M27.6,97.42c0,.15,0,.29,0,.44H24.52a4.36,4.36,0,0,1,0-.51Z"/><path class="cls-22" d="M120,97.4c0,.16,0,.32,0,.47l-3.06,0,0-.46Z"/><path class="cls-23" d="M7.83,56.38l.57.56c-.22.66-.76,1-1.42,1.43A2.05,2.05,0,0,1,7.83,56.38Z"/><path class="cls-24" d="M129.85,59c.16-.17.33-.34.5-.5a2.17,2.17,0,0,1,1.44,1.37A2.32,2.32,0,0,1,129.85,59Z"/><path class="cls-25" d="M13.6,59l0,.69c-.25.48-.66.64-1.39.8A2.44,2.44,0,0,1,13.6,59Z"/><path class="cls-26" d="M8.36,53.79c.18-.52.64-.77,1-1.08a.48.48,0,0,1,.7,0A3.63,3.63,0,0,1,9,54.35Z"/><path class="cls-27" d="M132.94,76.63l.59.56c-.32.45-.44,1.39-1.27.49Z"/><path class="cls-28" d="M96.54,58.49h.61a2.27,2.27,0,0,1-.53.5c-.24.12-.66.44-.78,0S96.2,58.5,96.54,58.49Z"/><path class="cls-29" d="M10.88,76.73l.7-.69a2,2,0,0,1,.48,1.67C11.41,77.69,11.12,77.24,10.88,76.73Z"/><path class="cls-9" d="M107,94.3l.53,0c.41,0,.82.09,1,.54h0C108,94.84,107.39,94.93,107,94.3Z"/><path class="cls-30" d="M135,52.55c.25.17.53.32.54.67s0,.42-.05.63l-.55-.51A.62.62,0,0,1,135,52.55Z"/><path class="cls-31" d="M137.13,57.53c0-.21,0-.42,0-.63.37.2.68.49.38.9C137.39,58,137.17,57.77,137.13,57.53Z"/><path class="cls-32" d="M12,77.66c.41,0,.52.29.65.57C12.3,78.22,12,78.08,12,77.66Z"/><path class="cls-33" d="M12,87.54l-.24-.23s.13,0,.15,0a.81.81,0,0,1,.07.22Z"/><path class="cls-34" d="M12,87.57a.53.53,0,0,1,.53.5h0a.53.53,0,0,1-.51-.53Z"/><path class="cls-1" d="M94.61,133.19c-3.75,1.31-6.86,2.79-10.32,3.21A3,3,0,0,1,81,134.91c-.69-1.1-1.46-2.14-2.23-3.18a7,7,0,0,0-5.51-2.85c-3.81-.29-6.38,1.11-8.4,4.32-2.4,3.83-2.92,3.9-7.21,2.63a45.09,45.09,0,0,1-7.33-2.73l4.71-3A109.32,109.32,0,0,1,65.56,124a6.17,6.17,0,0,1,4.74-.64,6.54,6.54,0,0,0,4.08,0,6.09,6.09,0,0,1,4.74.6,85.08,85.08,0,0,1,8.55,4.9Z"/><path class="cls-3" d="M98.16,65.66c1.49-.74,3-.2,4.57-.24a16.82,16.82,0,0,1,5.34.25c-1.1.15-1,1-1,1.76,0,2.58-.07,5.16-.12,7.74a19.29,19.29,0,0,1-.85,5.06,5.4,5.4,0,0,1-1,2.06,2.73,2.73,0,0,1-4.71-.35,8.83,8.83,0,0,1-1.18-4.69c0-1.89.06-3.79,0-5.68s.62-3.68.74-5.51C99.38,65.59,98.71,65.92,98.16,65.66Z"/><path class="cls-35" d="M36.9,65.65a36.47,36.47,0,0,1,9.9,0c-2,.27-1.94.26-1.7,2.19.46,3.84,1.06,7.68.2,11.56a6.49,6.49,0,0,1-1.18,2.82c-1.32,1.64-3,1.69-4.38.07A9,9,0,0,1,38,76.76a82.15,82.15,0,0,1-.45-9.28C37.56,66.81,37.66,66.07,36.9,65.65Z"/><path class="cls-36" d="M10.09,52.76l-.7,0a3.61,3.61,0,0,1,.46-.56c.23-.2.58-.5.77-.09S10.44,52.65,10.09,52.76Z"/><path class="cls-37" d="M135,52.55l-.06.79a1.05,1.05,0,0,1-.52-1l.12-.12A.42.42,0,0,1,135,52.55Z"/><path class="cls-37" d="M134.46,52.32l-.19-.31.31.19Z"/></g></g></svg>