<svg xmlns="http://www.w3.org/2000/svg" viewBox="0 0 145.22 145.27"><defs><style>.cls-1{fill:#ffead5;}.cls-2{fill:#5acfc9;}.cls-3{fill:#242c32;}.cls-4{fill:#474348;}.cls-5{fill:#595155;}.cls-6{fill:#6e6a6a;}.cls-7{fill:#c6beb5;}.cls-8{fill:#83817e;}.cls-9{fill:#cab9b4;}.cls-10{fill:#786363;}.cls-11{fill:#42383d;}.cls-12{fill:#232b32;}.cls-13{fill:#fff;}.cls-14{fill:#f3533a;}.cls-15{fill:#242c33;}.cls-16{fill:#feffff;}.cls-17{fill:#f5654c;}.cls-18{fill:#f46148;}.cls-19{fill:#f6755d;}.cls-20{fill:#f46047;}.cls-21{fill:#666e6e;}.cls-22{fill:#f88c74;}.cls-23{fill:#f88f77;}.cls-24{fill:#7a8080;}.cls-25{fill:#fab6a0;}</style></defs><title>Yangchen</title><g id="Layer_2" data-name="Layer 2"><g id="Layer_1-2" data-name="Layer 1"><path class="cls-1" d="M140,100a87.66,87.66,0,0,1-8.21,14.61,74.15,74.15,0,0,1-13.42,14.27,64.54,64.54,0,0,1-13.19,8.59,72.24,72.24,0,0,1-21.31,6.82,69.76,69.76,0,0,1-15.18.88,76.38,76.38,0,0,1-22.84-5,70.38,70.38,0,0,1-19.31-11.37A72,72,0,0,1,14.3,115.84,87.08,87.08,0,0,1,5.23,100c0-4.81.33-9.62.32-14.44,0-7.26-1-14.5-.59-21.76.37-6.47.67-13,2.8-19.17C11.58,33.4,18.6,24.42,27.31,16.65a33.68,33.68,0,0,1,2.88-2.46,28.12,28.12,0,0,0,2.49-1.89l0,0a1.91,1.91,0,0,1,.58-.31,13.13,13.13,0,0,1,1.53-1.26A47.56,47.56,0,0,1,46.24,5,97.89,97.89,0,0,1,55.6,2c1.55,4.42,1.91,9.09,2.85,13.64.37,1.78.64,3.57,1,5.36.46,2.54.08,3.29-2.38,4-2.9.85-5.82,1.62-8.71,2.52-.64.2-1.49.22-1.69,1s.56,1.19,1.08,1.62c7.57,6.28,14.88,12.87,22.56,19,1.59,1.28,2.66,1.43,4.42,0,7.47-6,14.63-12.37,22-18.53.64-.54,1.72-1,1.63-1.87-.11-1.14-1.38-1.15-2.23-1.44-2.78-.94-5.63-1.67-8.47-2.44-1.22-.33-2.41-.81-2.15-2.4,1.1-6.89,2.09-13.8,3.85-20.57A77,77,0,0,1,110,10.26a1.94,1.94,0,0,0,1.13.93c.57.45,1,1.12,1.68,1.42a1.32,1.32,0,0,1,.61.31c.79.78,1.73,1.39,2.51,2.19,6.52,4.89,11.42,11.21,15.82,18,5.64,8.65,7.86,18.27,8.07,28.5.21,9.4-.49,18.79-.5,28.19A92.19,92.19,0,0,0,140,100Z"/><path class="cls-2" d="M89.29,1.94c.29,2.53-.46,4.94-.89,7.38-.74,4.24-1.47,8.49-2.32,12.7-.3,1.5.29,1.94,1.58,2.27,3,.77,6,1.68,9,2.53.41.12.82.25,1.23.41.69.26,1.63.25,1.75,1.26.1.83-.63,1.14-1.15,1.58-1.86,1.54-3.73,3.07-5.54,4.67-6.2,5.49-12.67,10.67-19,16-1.12.94-1.74.81-2.79,0-6.34-5.2-12.71-10.35-18.81-15.83-1.6-1.45-3.35-2.72-5-4.15-.8-.71-2.26-1.18-2-2.47.25-1.1,1.68-1,2.63-1.33,3.05-.93,6.13-1.74,9.19-2.65,2-.6,2-.63,1.63-2.68q-1.62-8.76-3.19-17.54A14.12,14.12,0,0,1,55.6,2a88.72,88.72,0,0,1,15-1.95A72.16,72.16,0,0,1,87.78,1.68C88.28,1.78,88.79,1.85,89.29,1.94Z"/><path class="cls-3" d="M140,100c-.72,0-.81-.43-.85-1a131.92,131.92,0,0,1-.32-19.38,134.33,134.33,0,0,0-.4-26.37c-1.23-9.8-5.61-18.21-11.58-25.89a96.8,96.8,0,0,0-11.7-12.42c-.06-.48.07-.74.61-.55a60.34,60.34,0,0,1,13,12.22,72.68,72.68,0,0,1,11.62,72.15C140.21,99.14,140.14,99.57,140,100Z"/><path class="cls-3" d="M28,16.5a100.21,100.21,0,0,0-13.4,15.74A52.47,52.47,0,0,0,6.05,58c-.73,9.09,0,18.12.3,27.18a98.65,98.65,0,0,1-.63,14,1,1,0,0,1-.49.85A88.84,88.84,0,0,1,.78,83.25a72.82,72.82,0,0,1,23.61-64.9,17.15,17.15,0,0,1,3-2.43C27.94,15.75,28.09,16,28,16.5Z"/><path class="cls-4" d="M28,16.5l-.63-.58A9,9,0,0,1,30,13.85c.56-.22.65.05.55.52A13.36,13.36,0,0,1,28,16.5Z"/><path class="cls-5" d="M115.79,14.37l-.61.55a5.54,5.54,0,0,1-2.11-1.82.4.4,0,0,1,0-.66A7.1,7.1,0,0,1,115.79,14.37Z"/><path class="cls-6" d="M30.57,14.37,30,13.85c.79-.68,1.46-1.56,2.66-1.55A4.51,4.51,0,0,1,30.57,14.37Z"/><path class="cls-7" d="M34.74,10.77a2.89,2.89,0,0,1-1.6,1.53.46.46,0,0,1,0-.6A1.61,1.61,0,0,1,34.74,10.77Z"/><path class="cls-8" d="M112.63,12.82a4.28,4.28,0,0,1-1.76-1.53.48.48,0,0,1,.72,0,2.15,2.15,0,0,1,1,.8A.57.57,0,0,1,112.63,12.82Z"/><path class="cls-9" d="M111.59,11.26l-.72,0c-.66,0-.83-.48-.87-1A3.6,3.6,0,0,1,111.59,11.26Z"/><path class="cls-10" d="M33.19,11.7c0,.2,0,.4,0,.6l-.25.07-.26,0C32.58,11.92,32.89,11.82,33.19,11.7Z"/><path class="cls-11" d="M112.63,12.82c0-.25,0-.51,0-.76l.48.38,0,.66Z"/><path class="cls-12" d="M101.61,39.43A45,45,0,0,1,126,47.33a18.9,18.9,0,0,1,2.53,2.21,1.13,1.13,0,0,1,.14,1.44,1.07,1.07,0,0,1-1.4.28c-1-.38-1.91-.79-2.85-1.2-13-5.69-25.21-4.37-36.74,3.74a16.32,16.32,0,0,1-3.82,2.14,2.3,2.3,0,0,1-3.35-2,5.92,5.92,0,0,1,1.44-4.81,26.3,26.3,0,0,1,11.67-8.28A24.56,24.56,0,0,1,101.61,39.43Z"/><path class="cls-12" d="M64.55,53c.1,2.13-1.17,4.14-3.94,2.76a29.41,29.41,0,0,1-3.53-2.15A37.52,37.52,0,0,0,41,47a36.58,36.58,0,0,0-19.25,2.61c-1.28.53-2.52,1.12-3.79,1.66-.59.24-1.24.31-1.63-.3s-.05-1.17.39-1.62a12.55,12.55,0,0,1,1.54-1.38c8.63-6.07,18.15-9.33,28.73-8.14,6.7.76,12.11,4.32,16.32,9.61A5.94,5.94,0,0,1,64.55,53Z"/><path class="cls-13" d="M128.05,73.06c-.9,3.44-3.22,6-5.32,8.72A5.86,5.86,0,0,1,119,83.89a17.17,17.17,0,0,1-3,.49c-2.77-.07-5.46.6-8.23.69s-5.47.62-8.23.41c.34-1.36,1.61-1.12,2.52-1.39,5.62-1.72,8.56-5,9.06-10.36a9.92,9.92,0,0,0-1.65-6.39c-.93-1.5-.68-2.62,1.15-3.15a44.8,44.8,0,0,1,14.56.84c4.16.89,4.66,1.73,4.12,6.1A4.55,4.55,0,0,1,128.05,73.06Z"/><path class="cls-13" d="M45.76,85.49a78.87,78.87,0,0,1-12.84-.95c-1.87-.23-3.78-.3-5.64-.4-2.81-.15-4.43-1.74-6-3.57a20.13,20.13,0,0,1-4.11-6.47,3.28,3.28,0,0,1-.91-1.5,9.1,9.1,0,0,1-.64-2.22c-.49-2.86.45-4.46,3.33-5.11a46.36,46.36,0,0,1,15.31-1.09c2,.45,2.44,1.3,1.33,3.26-4,7-.69,14.42,7.16,16.55C43.82,84.27,45.3,83.93,45.76,85.49Z"/><path class="cls-2" d="M110.07,64.86c-1.12.49-.91,1.07-.27,1.9,2.62,3.42,2.49,7.16,1,11-1.65,4.3-5.27,6.12-9.4,7.21-.66.17-1.39.06-2,.54l-.16,0-.15,0a7.72,7.72,0,0,1-7-1.69c-1.11-1-1.45-2,.34-2.66a4.47,4.47,0,0,0,2.25-1.67,2.89,2.89,0,0,0,.3-3.17,2.82,2.82,0,0,0-2.56-1.45c-2.83-.15-2.83-.17-2.49-3.2,1-1.77,2.75-2.58,4.38-3.45a37.05,37.05,0,0,1,13.79-3.92A1.75,1.75,0,0,1,110.07,64.86Z"/><path class="cls-2" d="M45.76,85.49c-1.25-.65-2.67-.62-4-1-6.55-2.08-10.15-8.65-8.1-14.87a11.57,11.57,0,0,1,2.41-4l-1.39-.75a1.2,1.2,0,0,1,1.09-.57c6.42.46,12.48,2,17.77,5.9a3.24,3.24,0,0,1,.81,1A9.47,9.47,0,0,1,55,73.1c.32,1.34-.16,2-1.57,1.81-1.62-.17-3.25-.17-3.75,1.79s.77,3.17,2.3,4.17c2.12,1.39,2.1,2.22-.07,3.65a7.36,7.36,0,0,1-5.85,1l-.17,0Z"/><path class="cls-14" d="M90.86,122.86c-.56-.12-1.41-.26-2.24-.48a19.53,19.53,0,0,0-12,.32,11.38,11.38,0,0,1-8.28,0,20,20,0,0,0-12.73-.11,5.09,5.09,0,0,1-4.66-.76,2.33,2.33,0,0,1-1.1-1.68,1,1,0,0,1,.37-.92.66.66,0,0,1,.92.08c1.89,1.89,3.65.94,5.31-.3,1.38-1,2.65-2.22,4-3.32a5.58,5.58,0,0,1,5.77-1.26c.73.27,1.51.37,2.25.61a13.15,13.15,0,0,0,8.16,0c.82-.26,1.68-.41,2.5-.67a5,5,0,0,1,4.87,1c1.62,1.28,3.18,2.66,4.83,3.91s3.19,1.85,4.87.16a.7.7,0,0,1,.93-.15,1.07,1.07,0,0,1,.37,1.16C94.81,121.62,93,122.82,90.86,122.86Z"/><path class="cls-15" d="M54,71.44c-4.29-3.75-9.49-5.31-15-6.11-1.43-.21-2.83-.77-4.32-.49A54.9,54.9,0,0,0,19.25,65.9c-2.95.67-3.31,1.27-2.92,4.33.12.94.22,1.89.33,2.83a.35.35,0,0,1-.59,0c-2.22-3.15-4.47-6.27-6.64-9.44-.51-.74-1.25-1.44-1.15-2.49l0,0c1.25-.36,2.36.32,3.52.52,4.13.7,8.28.51,12.43.5S32.48,62,36.63,62A28,28,0,0,1,53.89,68.2a13.49,13.49,0,0,1,3.93,5.08c.28.61.31,1.21-.65,1.2-1.13-.13-1.51-1.2-2.27-1.8-.18-.25-.36-.51-.55-.76S54.1,71.61,54,71.44Z"/><path class="cls-15" d="M110.07,64.86C102.82,65.39,96,67,90.28,71.93a3.82,3.82,0,0,1-2.64,2.67c-.94-.61-.53-1.35-.14-2a14.14,14.14,0,0,1,3.19-4,28,28,0,0,1,15.53-6.4c4.74-.37,9.49,0,14.23,0,4.22,0,8.46.27,12.65-.52,1.24-.23,2.48-.51,4-.83-2.18,4.45-5.26,7.94-7.91,11.72-1,0-.77-.54-.59-1.12.19-5.12.7-4.76-4.44-5.82A52.56,52.56,0,0,0,110.07,64.86Z"/><path class="cls-13" d="M87.64,74.6a12.61,12.61,0,0,1,2.64-2.67c1.13.71-.29,1.58.26,2.46,1.28,0,2.73-1,4.07.08a4.19,4.19,0,0,1,1.6,2.59c.42,2.24-1.36,4.19-4.74,5,1.93,2.79,4.78,3.18,7.7,3.41a17.58,17.58,0,0,1-12.28-.92c-1.54-.75-1.75-1.69-1.5-3.4C85.73,78.83,87.11,76.86,87.64,74.6Z"/><path class="cls-16" d="M54,71.44a.88.88,0,0,1,.45.23.55.55,0,0,1,.43.35,9.49,9.49,0,0,1,2.31,2.46c.76,2,1.6,4,2.25,6s.16,3.65-1.84,4.47a17.91,17.91,0,0,1-11.48.56c2.78-.22,5.45-.7,7.31-3.2-3.84-1.63-5.28-3.58-4.46-5.92s2.17-2.75,5.56-2C54.81,73.32,53.87,72.47,54,71.44Z"/><path class="cls-17" d="M78.85,106.27c1.11-1.07,2.28-2.09,3.29-3.24.75-.85-.11-.9-.69-1a.28.28,0,0,1-.08-.32c0-.09.09-.14.13-.14,1.19.09,1.77-.35,1.57-1.63a19.66,19.66,0,0,0-.88-3c-.26-.78-1-1.47-.49-2.73a11.09,11.09,0,0,1,3,6.74,4.56,4.56,0,0,1-2.07,3.66c-1,.81-2.11,1.47-3.17,2.19C78.86,107,78.73,106.77,78.85,106.27Z"/><path class="cls-18" d="M62.23,102.12a21.82,21.82,0,0,0,4.65,4.7c.21.52,0,.68-.5.57-1.2-.82-2.45-1.58-3.61-2.46-2.65-2-3.08-3.81-1.78-7a13.34,13.34,0,0,1,1.8-3.1c.49-.11.74,0,.57.56-.51,1.89-1.56,3.62-1.62,5.63A3.06,3.06,0,0,1,62.23,102.12Z"/><path class="cls-19" d="M62.23,102.12a1,1,0,0,1-.49-1.05c.73.55,1.51.1,2.26.1,2.44,0,4.61.56,6.16,3.43C67.38,103.19,65,101.93,62.23,102.12Z"/><path class="cls-20" d="M81.5,101.56a3.41,3.41,0,0,0,0,.46,25.2,25.2,0,0,0-6,2c.85-1.5,1.87-2.67,3.76-2.5a3,3,0,0,1,2.28,0Z"/><path class="cls-21" d="M128.62,71.42c.21.37.07.92.59,1.12a3.83,3.83,0,0,1-.42.89c-.74.94-.57-.08-.74-.37A4.07,4.07,0,0,1,128.62,71.42Z"/><path class="cls-22" d="M78.85,106.27l.57.57a3.39,3.39,0,0,1-1.9,1A2.22,2.22,0,0,1,78.85,106.27Z"/><path class="cls-23" d="M63.36,95.44l-.57-.56c.13-.42.48-1,.81-.74C64.1,94.49,63.75,95.05,63.36,95.44Z"/><path class="cls-17" d="M81.5,101.58l-2.27,0A1.88,1.88,0,0,1,81.5,101.58Z"/><path class="cls-24" d="M16.07,73l.59,0c.48.2.4.67.52,1C16.27,74.31,16.29,73.56,16.07,73Z"/><path class="cls-25" d="M66.38,107.39l.5-.57a1,1,0,0,1,.62,1l-.09.1A1.06,1.06,0,0,1,66.38,107.39Z"/><path class="cls-25" d="M67.5,107.78l.62.27c-.05.06-.13.18-.15.17a6.42,6.42,0,0,1-.56-.34Z"/><path class="cls-15" d="M8.28,61.11c-.19,0-.31,0-.32-.21,0,0,.14-.1.19-.09.21.06.24.18.08.34Z"/><path class="cls-2" d="M54.86,72c-.27,0-.42-.07-.43-.35A.39.39,0,0,1,54.86,72Z"/></g></g></svg>