<svg xmlns="http://www.w3.org/2000/svg" viewBox="0 0 145.21 145.02"><defs><style>.cls-1{fill:#232b32;}.cls-2{fill:#ffdfbf;}.cls-3{fill:#f3533a;}.cls-4{fill:#fff;}.cls-5{fill:#fedebe;}.cls-6{fill:#f2533a;}.cls-7{fill:#f9a044;}.cls-8{fill:#f8a045;}.cls-9{fill:#c0ae99;}.cls-10{fill:#c4b09a;}.cls-11{fill:#c8b69f;}.cls-12{fill:#d2baa2;}.cls-13{fill:#949d8b;}.cls-14{fill:#8a643a;}.cls-15{fill:#a99382;}.cls-16{fill:#525452;}.cls-17{fill:#d1ac92;}.cls-18{fill:#c9bea3;}.cls-19{fill:#f3563d;}.cls-20{fill:#f45c43;}.cls-21{fill:#f45a40;}.cls-22{fill:#f67a5f;}.cls-23{fill:#f77b60;}.cls-24{fill:#f7856a;}.cls-25{fill:#faa98b;}.cls-26{fill:#f99b7f;}</style></defs><title>Zuko</title><g id="Layer_2" data-name="Layer 2"><g id="Layer_1-2" data-name="Layer 1"><path class="cls-1" d="M6,101.86A101.37,101.37,0,0,1,1.59,87.8,72.55,72.55,0,0,1,136.36,38.1C146.46,57,147.82,76.73,140.92,97a11.86,11.86,0,0,1-.65,1.4c-1-.17-1.12-1-1.36-1.71-2.75-7.83-7.19-14.66-12.35-21.07-2.12-2.93-4.68-5.5-6.92-8.34a2.88,2.88,0,0,0-3.67-.88,75.46,75.46,0,0,0-12.78,6.14A64.28,64.28,0,0,0,97,76.82c-2.61,1.58-4.35,4.16-6.86,5.85a2.5,2.5,0,0,1-3.31-.46c-.9-1.07-.57-2.29,0-3.41,1.48-2.9,3.82-5.18,6.07-7.38,4.88-4.78,10.1-9.21,16.42-12.08.59-.26,1.59-.37,1.27-1.29s-1.3-1.1-2.18-.73A50.42,50.42,0,0,0,102,60.67,92.39,92.39,0,0,0,88,71.76a9.27,9.27,0,0,1-1.59,1.33,3.4,3.4,0,0,1-1.13.23,8.94,8.94,0,0,1-3.52.4c-2-1-2.55-2.6-2.2-4.72.83-5,4.26-8.1,8.09-10.87A29.89,29.89,0,0,1,91.77,56a13.77,13.77,0,0,0,2-1.08c3.53-1.64,7.32-2.24,11.57-2.75-2.87-3.71-5.82-7-7.7-11-.51,4.7-1.1,9.39-3.71,13.51-.59.46-1.27.77-1.9,1.18a21.84,21.84,0,0,0-11.51,9.94c-1.7,3.2-1.52,5.29.48,7.6a1.91,1.91,0,0,0,1.29.44H83c.93,0,1.83-.66,2.79-.13.29,2.06-1.43,3.24-2.15,4.85-.35.51-.73,1-1,1.52A52.3,52.3,0,0,1,63.9,96a4.22,4.22,0,0,1-2.69.68,1.22,1.22,0,0,1-1.07-1c.08-1,.81-1.49,1.48-2,5.49-4.26,6.74-9.92,5.53-16.44a35.35,35.35,0,0,1-.85-4.57c1.11-3.47-.08-6.43-2.08-9.2a29.14,29.14,0,0,0-6.31-5.78c-3.56-4.69-7.46-9.17-9.55-15.62-1.94,3.85-4.68,6.27-6.25,9.54-.44,1.94-.14,3.89-.2,5.84a12.88,12.88,0,0,0,.78,3.34,8.13,8.13,0,0,0,3,3.8c4.72,3.76,9.71,7.26,13,12.54a17.54,17.54,0,0,1,1.17,2c1.06,2.39.39,3.53-2.37,4.09-3-1.51-5.2-4-7.51-6.3a.84.84,0,0,1-.25-.3c-.07.26.23.24.31.41a29.59,29.59,0,0,1,2.87,3.27c.47.54,1.26,1.16.65,2s-1.4.33-2.13.13-1.3-.4-1.93-.65c-2.1-1.07-3.93-2.55-5.92-3.77-3.36-2.33-6.37-4.89-8.33-8.67C33.94,66.78,31,66.67,28.66,66c-.6-.16-1,.54-1.43,1a90.8,90.8,0,0,0-8.13,9.72A66.34,66.34,0,0,0,9,93.13a26.05,26.05,0,0,0-1.58,5.7C7.18,99.89,7.51,101.35,6,101.86Z"/><path class="cls-2" d="M6,101.86c.89-.9.58-2.13.73-3.18a23.44,23.44,0,0,1,1.73-5.94A61.2,61.2,0,0,1,18.67,76.35c1.51-.16,1.47,1.17,1.82,2a23.23,23.23,0,0,0,5.16,8.27,5.67,5.67,0,0,0,3.15,1.62c6.9,1,13.8,2.12,20.75,2.76a4.09,4.09,0,0,0,3.59-1.57c1.87-2,2.57-4.66,4.23-6.74,2.43-.64,2.94-1.52,1.82-3.59a27.66,27.66,0,0,0-6.27-7.83q-4-3.45-8.21-6.67a6,6,0,0,1-2.54-3.71.86.86,0,0,1,.34-1.31c1.62-.09,2.71,1,3.93,1.77A105.88,105.88,0,0,1,58,70.15c2.49,2,5.08,3.34,8.24,1.41.44.11.7.31.5.81a36.33,36.33,0,0,1,1.54,8.91,13.93,13.93,0,0,1-4.66,11.35c-1.09,1-2.16,2-3.24,3-.14,1.21.63.72,1.19.64,3.72-1.28,6.89-3.53,10-5.84A53.62,53.62,0,0,0,82.24,79.52a.45.45,0,0,1,.68.12,2,2,0,0,1,.16,1.51c-2.36,8.66.77,15.88,6.24,22.23,7.31,8.49,15.87,15.4,26.5,19.41a28.72,28.72,0,0,0,4,1.21c.92.19,1.91.3,2.41,1.29-2.83,3.46-6.56,5.84-10.23,8.25A71.31,71.31,0,0,1,90.25,143a79.2,79.2,0,0,1-19.43,2c-10.21,0-19.78-2.56-29-6.61A63.91,63.91,0,0,1,28.17,130,79.86,79.86,0,0,1,15,116.88a56.18,56.18,0,0,1-5.55-8.42C8.29,106.27,7.15,104.06,6,101.86Z"/><path class="cls-3" d="M122.19,125.29c-14.44-3.3-25.48-11.77-34.61-23a24.73,24.73,0,0,1-6-16.68c.06-2.1.8-4,1.15-6.07a11.08,11.08,0,0,1,.47-1.33l2.43-4.48a.62.62,0,0,1,.09-.56,1.31,1.31,0,0,0,.62-.63A95.56,95.56,0,0,1,100.71,60.7a53,53,0,0,1,6.57-3.61c2.89-1.32,2.89-1.32,4.77,1.58-.2.45-.64.54-1,.7-7.42,3.05-13.37,8.11-18.84,13.81-1.37,1.43-2.63,3-3.9,4.49a9.82,9.82,0,0,0-1.1,1.74,2.19,2.19,0,0,0,0,2.45,1.83,1.83,0,0,0,2.54.48c1.25.23,1.33,1.45,1.88,2.25a34.73,34.73,0,0,0,3.21,4.69,3.94,3.94,0,0,0,3.44,1.39c6.44-.64,12.84-1.47,19.2-2.66a5.63,5.63,0,0,0,3.62-2.25c2.06-2.68,4-5.41,4.83-8.77a2.49,2.49,0,0,1,1-1.73A65,65,0,0,1,139.31,96c.3.81.64,1.59,1,2.39a26.52,26.52,0,0,1-2.41,6,70.56,70.56,0,0,1-13.71,19.27A6.52,6.52,0,0,1,122.19,125.29Z"/><path class="cls-4" d="M126.91,75.26c-.59,4.65-3,8.36-6,11.8a4.2,4.2,0,0,1-2.61,1.47c-6.78,1.24-13.59,2.25-20.47,2.83A3.63,3.63,0,0,1,94.47,90a31,31,0,0,1-4.77-7.65c2.51-2,4.65-4.5,7.37-6.28.84,1.74.39,3.73,1.06,5.51.39,1,.61,2.42,2,2.38s1.58-1.4,1.86-2.48a24.44,24.44,0,0,0,.3-5.41c0-1.28-.22-2.6.48-3.79,2.77-2.23,6-3.53,9.26-4.93,1.73-.75,3.52-1.35,5.26-2.07a1.23,1.23,0,0,1,1.6.3C121.59,68.77,124.64,71.69,126.91,75.26Z"/><path class="cls-4" d="M57.37,82.7C57,86,54.9,88.32,53,90.74a2.94,2.94,0,0,1-2.75,1.16c-5.77-.88-11.61-1.2-17.32-2.41a17.27,17.27,0,0,0-3.32-.35c-3.24,0-4.88-2.24-6.53-4.42a23.93,23.93,0,0,1-3.49-6.89c-.19-.55-.2-1.23-.9-1.48,2.57-3.91,5.87-7.21,8.9-10.73a1.22,1.22,0,0,1,1.59-.36c1.75.72,3.53,1.36,5.29,2.06a1.78,1.78,0,0,1,1.11,1c1.56,4.07,4.9,6.55,8.2,9,.85,1.12.57,2.46.75,3.72s.2,2.81,1.77,3.08c1.4.23,1.64-1.25,2.18-2.18a2.45,2.45,0,0,1,.86-.92l4.28,1.15L49.41,77c-.18-.41,0-.64.39-.8Z"/><path class="cls-5" d="M41.62,50.84c.06-.25.05-.56.2-.73a54.88,54.88,0,0,0,6.61-9.4c1.43,3.22,2.42,6.22,4.25,8.8l5.58,7.79c.05.55-.33.65-.75.71a73.2,73.2,0,0,0-14-4.53C42.21,53.07,41,52.63,41.62,50.84Z"/><path class="cls-6" d="M93.57,54.66a50.23,50.23,0,0,0,3.78-14.74A69.24,69.24,0,0,0,107,52.71a50.9,50.9,0,0,0-13.37,2.65A.52.52,0,0,1,93.57,54.66Z"/><path class="cls-7" d="M102.75,72.27a38.59,38.59,0,0,1-.1,9.3,6.62,6.62,0,0,1-.4,1.76,2.51,2.51,0,0,1-2,1.84c-1.15.14-1.75-.69-2.16-1.54a12.49,12.49,0,0,1-1-7.57A33.64,33.64,0,0,1,102.75,72.27Z"/><path class="cls-8" d="M49.32,81.08A9.63,9.63,0,0,1,48.23,84c-1.14,1.73-2.89,1.64-3.82-.22A8.3,8.3,0,0,1,43.73,80l0-2.58A57.69,57.69,0,0,1,49.32,81.08Z"/><path class="cls-9" d="M81.16,73.86c-2.38-1.4-2.43-3.59-1.89-5.87a14.92,14.92,0,0,1,4.15-7A22.73,22.73,0,0,1,92,55.44a.43.43,0,0,1,0,.69c-1.49.87-3,1.65-4.46,2.61-3.13,2.11-5.77,4.71-7.07,8.35-.81,2.25-1.33,4.56,1.11,6.29C81.76,73.82,81.67,74,81.16,73.86Z"/><path class="cls-10" d="M66.73,72.37l-.51-.6a22.35,22.35,0,0,0-2.38-8.09.93.93,0,0,1,.72-.8c2.07,2.51,3.33,5.28,2.63,8.63A3.43,3.43,0,0,1,66.73,72.37Z"/><path class="cls-11" d="M64.56,62.88l-.47.55c-2.36-1.6-4.77-3.16-6.33-5.67l.5-.46A17.71,17.71,0,0,1,64.56,62.88Z"/><path class="cls-12" d="M41.62,50.84C41.36,52.56,43,52.35,43.8,53c-1.51,1-1.36,2.64-1.66,4.12-.18.36-.41.66-.88.58C41,55.4,40.69,53.09,41.62,50.84Z"/><path class="cls-13" d="M81.16,73.86l.46-.48a11.32,11.32,0,0,0,3.75-.5,1.06,1.06,0,0,1,.51.4,1.19,1.19,0,0,1-.21.44c-1,.06-1.93.62-3,.51a.42.42,0,0,0-.5,0A1,1,0,0,1,81.16,73.86Z"/><path class="cls-10" d="M41.26,57.7l.51-.61c1.35.57,1.37,1.57.9,2.74-.4.25-.38.69-.5,1.07A5.92,5.92,0,0,1,41.26,57.7Z"/><path class="cls-14" d="M49.8,76.2l-.39.8A2.79,2.79,0,0,1,48,75.13,3,3,0,0,1,49.8,76.2Z"/><path class="cls-15" d="M92,56.13v-.69c.4-.48,1-.52,1.53-.78,0,.23,0,.47,0,.7Z"/><path class="cls-16" d="M61.56,96.23a1.47,1.47,0,0,1-1.16.42c-.3,0-.77.16-.83-.25s.38-.68.8-.81C60.61,96.09,61.13,96.07,61.56,96.23Z"/><path class="cls-17" d="M83.24,78.2a1.4,1.4,0,0,1-.47,1.33h-.53A2.09,2.09,0,0,1,83.24,78.2Z"/><path class="cls-18" d="M85.88,73.28l-.51-.4,1-.35A.85.85,0,0,1,85.88,73.28Z"/><path class="cls-9" d="M82.21,74.23c.17-.23.33-.22.5,0l-.25,0Z"/><path class="cls-1" d="M42.67,59.83c-.47-.86-.29-1.93-.9-2.74,0-.68,0-1.36,0-2.05,0-1.92,0-1.92,2.07-2a39.81,39.81,0,0,1,14,4.76,35.91,35.91,0,0,1,6.33,5.67,23.88,23.88,0,0,1,2.07,4.1,6,6,0,0,1,.06,4.24c-2.2,1.92-3.32,2.09-5.8.85a18.86,18.86,0,0,1-3.56-2.53C52.38,66.32,47.86,62.61,42.67,59.83Z"/><path class="cls-19" d="M60.27,130.7a7.7,7.7,0,0,1,3-2.4c2.73-1.46,5.51-2.83,8.25-4.27a3.12,3.12,0,0,1,3-.2,94.55,94.55,0,0,1,10.68,5.74,1.37,1.37,0,0,1,.79,1.15c-.9.57-1.7,0-2.47-.4-2.56-1.22-5.14-2.42-7.63-3.79a4.84,4.84,0,0,0-5.28,0c-2.29,1.35-4.75,2.42-7.15,3.58C62.57,130.53,61.7,131.19,60.27,130.7Z"/><path class="cls-20" d="M81.19,111.21a7.49,7.49,0,0,0,2.33-3c-2.56,0-4.43,1.71-6.77,2.2,1.17-2.67,3.79-4.2,7.47-4.46.75-.23-.27-1.67,1-1.51.78,3.39-1,5.5-3.58,7.25C81.14,111.91,81,111.68,81.19,111.21Z"/><path class="cls-21" d="M62.55,103c-.13.41-.25.82-.38,1.23-.34,1.09-.19,1.66,1.19,1.88a9.3,9.3,0,0,1,6.37,3.84c-.52.86-1,.22-1.37.09-1.37-.51-2.69-1.12-4-1.67-.37-.15-.87-.38-1.13.08s.26.76.39,1.16-.09.68-.57.58c-2.4-2.46-2.61-4.16-1-7.71C62.5,102.3,62.74,102.41,62.55,103Z"/><path class="cls-22" d="M85.26,104.47c-.64.3-.28,1.29-1,1.51.41-1.71-.61-3.08-1.08-4.58-.16-.55.07-.68.56-.55C84.3,102,85.18,103.08,85.26,104.47Z"/><path class="cls-23" d="M63,110.14l.57-.58A6.8,6.8,0,0,1,65.73,112,4.63,4.63,0,0,1,63,110.14Z"/><path class="cls-24" d="M62.55,103l-.52-.52A4.14,4.14,0,0,1,64,99.8,7.1,7.1,0,0,1,62.55,103Z"/><path class="cls-25" d="M81.19,111.21l.49.51c-.38.62-1,.73-1.9,1.06A2.48,2.48,0,0,1,81.19,111.21Z"/><path class="cls-26" d="M83.7,100.85l-.56.55a2.44,2.44,0,0,1-.76-1.86A1.82,1.82,0,0,1,83.7,100.85Z"/></g></g></svg>